<mxfile host="app.diagrams.net" modified="2024-06-20T07:57:22.544Z" agent="Mozilla/5.0 (X11; Linux x86_64; rv:125.0) Gecko/20100101 Firefox/125.0" etag="NeO8KDmZmvVS5UX9ukJg" version="24.5.4" type="github">
  <diagram name="Page-1" id="rB43j8RhS7YDx2vSrmHb">
    <mxGraphModel dx="20360" dy="10827" grid="1" gridSize="10" guides="1" tooltips="1" connect="1" arrows="1" fold="1" page="1" pageScale="1" pageWidth="850" pageHeight="1100" math="0" shadow="0">
      <root>
        <mxCell id="0" />
        <mxCell id="1" parent="0" />
        <mxCell id="2msqa14-VvynCu-mgGiv-204" value="" style="rounded=1;whiteSpace=wrap;html=1;fillColor=#fff2cc;strokeColor=#d6b656;" parent="1" vertex="1">
          <mxGeometry x="1370" y="4030" width="740" height="1040" as="geometry" />
        </mxCell>
        <mxCell id="2msqa14-VvynCu-mgGiv-199" value="" style="rounded=1;whiteSpace=wrap;html=1;fillColor=#dae8fc;strokeColor=#6c8ebf;" parent="1" vertex="1">
          <mxGeometry x="1415" y="4260" width="635" height="770" as="geometry" />
        </mxCell>
        <mxCell id="2msqa14-VvynCu-mgGiv-196" value="" style="rounded=0;whiteSpace=wrap;html=1;fillColor=#f8cecc;strokeColor=#b85450;" parent="1" vertex="1">
          <mxGeometry x="1475" y="4520" width="525" height="460" as="geometry" />
        </mxCell>
        <mxCell id="luZTjx40LB_68a69q-34-152" value="" style="rounded=1;whiteSpace=wrap;html=1;fontStyle=1" parent="1" vertex="1">
          <mxGeometry x="2810" y="445" width="460" height="265" as="geometry" />
        </mxCell>
        <mxCell id="luZTjx40LB_68a69q-34-110" value="" style="rounded=1;whiteSpace=wrap;html=1;fontStyle=1" parent="1" vertex="1">
          <mxGeometry x="200" y="860" width="520" height="475" as="geometry" />
        </mxCell>
        <mxCell id="luZTjx40LB_68a69q-34-87" value="" style="rounded=1;whiteSpace=wrap;html=1;fontStyle=1" parent="1" vertex="1">
          <mxGeometry x="4760" y="655" width="600" height="470" as="geometry" />
        </mxCell>
        <mxCell id="luZTjx40LB_68a69q-34-1" value="HTTP REQUEST 1" style="whiteSpace=wrap;html=1;aspect=fixed;fontStyle=1" parent="1" vertex="1">
          <mxGeometry x="4610" y="365" width="80" height="80" as="geometry" />
        </mxCell>
        <mxCell id="luZTjx40LB_68a69q-34-2" value="HTTP REQUEST 2" style="whiteSpace=wrap;html=1;aspect=fixed;fontStyle=1" parent="1" vertex="1">
          <mxGeometry x="4610" y="505" width="80" height="80" as="geometry" />
        </mxCell>
        <mxCell id="luZTjx40LB_68a69q-34-3" value="ENCODER SIDE" style="text;html=1;align=center;verticalAlign=middle;resizable=0;points=[];autosize=1;strokeColor=none;fillColor=none;fontSize=27;fontStyle=1" parent="1" vertex="1">
          <mxGeometry x="4680" y="140" width="230" height="50" as="geometry" />
        </mxCell>
        <mxCell id="luZTjx40LB_68a69q-34-14" value="" style="whiteSpace=wrap;html=1;aspect=fixed;fontStyle=1" parent="1" vertex="1">
          <mxGeometry x="4350" y="395" width="170" height="170" as="geometry" />
        </mxCell>
        <mxCell id="luZTjx40LB_68a69q-34-15" value="HEADERS FRAME" style="rounded=1;whiteSpace=wrap;html=1;fontStyle=1" parent="1" vertex="1">
          <mxGeometry x="4360" y="405" width="150" height="70" as="geometry" />
        </mxCell>
        <mxCell id="luZTjx40LB_68a69q-34-16" value="DATA FRAME" style="rounded=1;whiteSpace=wrap;html=1;fontStyle=1" parent="1" vertex="1">
          <mxGeometry x="4360" y="485" width="150" height="70" as="geometry" />
        </mxCell>
        <mxCell id="luZTjx40LB_68a69q-34-17" value="FRAMING LAYER " style="text;html=1;align=center;verticalAlign=middle;resizable=0;points=[];autosize=1;strokeColor=none;fillColor=none;fontStyle=1" parent="1" vertex="1">
          <mxGeometry x="4375" y="355" width="120" height="30" as="geometry" />
        </mxCell>
        <mxCell id="luZTjx40LB_68a69q-34-60" value="&lt;div style=&quot;font-size: 20px;&quot;&gt;&lt;font style=&quot;font-size: 20px;&quot;&gt;.&lt;/font&gt;&lt;/div&gt;&lt;div style=&quot;font-size: 20px;&quot;&gt;&lt;font style=&quot;font-size: 20px;&quot;&gt;.&lt;/font&gt;&lt;/div&gt;&lt;div style=&quot;font-size: 20px;&quot;&gt;&lt;font style=&quot;font-size: 20px;&quot;&gt;&lt;br&gt;&lt;/font&gt;&lt;/div&gt;" style="rounded=0;whiteSpace=wrap;html=1;strokeWidth=1;fontStyle=1" parent="1" vertex="1">
          <mxGeometry x="1890" y="70" width="450" height="180" as="geometry" />
        </mxCell>
        <mxCell id="luZTjx40LB_68a69q-34-61" value="&lt;font style=&quot;font-size: 30px;&quot;&gt;1&lt;span style=&quot;white-space: pre;&quot;&gt;&#x9;&lt;/span&gt;&amp;nbsp;&amp;nbsp;&amp;nbsp; :authority&lt;/font&gt;" style="text;html=1;align=center;verticalAlign=middle;resizable=0;points=[];autosize=1;strokeColor=none;fillColor=none;strokeWidth=1;fontStyle=1" parent="1" vertex="1">
          <mxGeometry x="1915" y="80" width="210" height="50" as="geometry" />
        </mxCell>
        <mxCell id="luZTjx40LB_68a69q-34-62" value="&lt;font style=&quot;font-size: 30px;&quot;&gt;61&lt;span style=&quot;white-space: pre;&quot;&gt;&#x9;&lt;/span&gt;www-authenticate&lt;span style=&quot;white-space: pre;&quot;&gt;&#x9;&lt;/span&gt;&lt;/font&gt;" style="text;html=1;align=center;verticalAlign=middle;resizable=0;points=[];autosize=1;strokeColor=none;fillColor=none;strokeWidth=1;fontStyle=1" parent="1" vertex="1">
          <mxGeometry x="1900" y="180" width="340" height="50" as="geometry" />
        </mxCell>
        <mxCell id="luZTjx40LB_68a69q-34-63" value="&lt;font style=&quot;font-size: 40px;&quot;&gt;DYNAMIC TABLE&lt;/font&gt;" style="text;html=1;align=center;verticalAlign=middle;resizable=0;points=[];autosize=1;strokeColor=none;fillColor=none;strokeWidth=1;fontStyle=1" parent="1" vertex="1">
          <mxGeometry x="1935" y="260" width="340" height="60" as="geometry" />
        </mxCell>
        <mxCell id="luZTjx40LB_68a69q-34-198" style="edgeStyle=orthogonalEdgeStyle;rounded=0;orthogonalLoop=1;jettySize=auto;html=1;exitX=1;exitY=0.5;exitDx=0;exitDy=0;entryX=0.5;entryY=0;entryDx=0;entryDy=0;fontStyle=1" parent="1" source="luZTjx40LB_68a69q-34-67" target="luZTjx40LB_68a69q-34-154" edge="1">
          <mxGeometry relative="1" as="geometry" />
        </mxCell>
        <mxCell id="luZTjx40LB_68a69q-34-67" value="" style="rounded=0;whiteSpace=wrap;html=1;strokeWidth=1;fontStyle=1" parent="1" vertex="1">
          <mxGeometry x="1890" y="330" width="450" height="80" as="geometry" />
        </mxCell>
        <mxCell id="luZTjx40LB_68a69q-34-71" style="edgeStyle=orthogonalEdgeStyle;rounded=0;orthogonalLoop=1;jettySize=auto;html=1;exitX=0;exitY=0.5;exitDx=0;exitDy=0;entryX=1.006;entryY=0.576;entryDx=0;entryDy=0;entryPerimeter=0;fontStyle=1" parent="1" source="luZTjx40LB_68a69q-34-2" target="luZTjx40LB_68a69q-34-14" edge="1">
          <mxGeometry relative="1" as="geometry" />
        </mxCell>
        <mxCell id="luZTjx40LB_68a69q-34-72" style="edgeStyle=orthogonalEdgeStyle;rounded=0;orthogonalLoop=1;jettySize=auto;html=1;exitX=0;exitY=0.5;exitDx=0;exitDy=0;entryX=1.018;entryY=0.447;entryDx=0;entryDy=0;entryPerimeter=0;fontStyle=1" parent="1" source="luZTjx40LB_68a69q-34-1" target="luZTjx40LB_68a69q-34-14" edge="1">
          <mxGeometry relative="1" as="geometry" />
        </mxCell>
        <mxCell id="luZTjx40LB_68a69q-34-74" value="&lt;div style=&quot;font-size: 20px;&quot;&gt;&lt;font style=&quot;font-size: 20px;&quot;&gt;Second Request Headers &lt;br&gt;&lt;/font&gt;&lt;/div&gt;" style="text;html=1;align=center;verticalAlign=middle;resizable=0;points=[];autosize=1;strokeColor=none;fillColor=none;fontStyle=1" parent="1" vertex="1">
          <mxGeometry x="4820" y="680" width="250" height="40" as="geometry" />
        </mxCell>
        <UserObject label="&lt;font style=&quot;font-size: 13px;&quot;&gt;&lt;span id=&quot;rfc.figure.u.28&quot;&gt;&lt;span style=&quot;font-size: 18px;&quot;&gt;&lt;pre class=&quot;text&quot;&gt;:method: GET&lt;br&gt;:scheme: https&lt;br&gt;:path: /styles&lt;br&gt;:authority: www.zohowebstatic.com&lt;br&gt;referer: https://www.zoho.com&lt;br&gt;&lt;/pre&gt;&lt;/span&gt;&lt;/span&gt;&lt;/font&gt;" link="&lt;span id=&quot;rfc.figure.u.73&quot;&gt;&lt;span&gt;&lt;pre class=&quot;text&quot;&gt;:status: 302&#xa;cache-control: private&#xa;date: Mon, 21 Oct 2013 20:13:21 GMT&#xa;location: https://www.example.com&lt;/pre&gt;&lt;/span&gt;&lt;/span&gt;" id="luZTjx40LB_68a69q-34-75">
          <mxCell style="text;whiteSpace=wrap;html=1;fontStyle=1" parent="1" vertex="1">
            <mxGeometry x="4840" y="705" width="270" height="80" as="geometry" />
          </mxCell>
        </UserObject>
        <mxCell id="luZTjx40LB_68a69q-34-76" value="&lt;font style=&quot;font-size: 20px;&quot;&gt;Encoded Headers&lt;/font&gt;" style="text;html=1;align=center;verticalAlign=middle;resizable=0;points=[];autosize=1;strokeColor=none;fillColor=none;fontStyle=1" parent="1" vertex="1">
          <mxGeometry x="4820" y="845" width="180" height="40" as="geometry" />
        </mxCell>
        <mxCell id="luZTjx40LB_68a69q-34-78" value="58 109 101 116 104 111 100 58 32 71 69 84 10 58 115 99 104 101 109 101 58 32 104 116 116 112 115 10 58 112 97 116 104 58 32 47 115 116 121 108 101 115 10 58 97 117 116 104 111 114 105 116 121 58 32 119 119 119 46 122 111 104 111 119 101 98 115 116 97 116 105 99 46 99 111 109 62" style="text;whiteSpace=wrap;fontStyle=1;fontSize=17;" parent="1" vertex="1">
          <mxGeometry x="4840" y="895" width="470" height="135" as="geometry" />
        </mxCell>
        <mxCell id="luZTjx40LB_68a69q-34-80" value="&lt;font style=&quot;font-size: 20px;&quot;&gt;Rather than sending referer name and value again, this field is referenced with index 62&lt;/font&gt;" style="text;whiteSpace=wrap;html=1;fontStyle=1" parent="1" vertex="1">
          <mxGeometry x="4830" y="1005" width="430" height="40" as="geometry" />
        </mxCell>
        <mxCell id="luZTjx40LB_68a69q-34-88" value="&lt;font style=&quot;font-size: 25px;&quot;&gt;REQUEST 2&lt;/font&gt;" style="text;whiteSpace=wrap;html=1;fontStyle=1" parent="1" vertex="1">
          <mxGeometry x="4820" y="1065" width="150" height="50" as="geometry" />
        </mxCell>
        <mxCell id="luZTjx40LB_68a69q-34-89" value="&lt;font style=&quot;font-size: 17px;&quot;&gt;During encoding request1 headers, referer name and value added in dynamic table&lt;/font&gt;" style="text;whiteSpace=wrap;html=1;rotation=15;fontStyle=1" parent="1" vertex="1">
          <mxGeometry x="4740.33" y="404.82" width="240.35" height="40" as="geometry" />
        </mxCell>
        <mxCell id="luZTjx40LB_68a69q-34-96" value="" style="rounded=1;whiteSpace=wrap;html=1;fontStyle=1" parent="1" vertex="1">
          <mxGeometry x="290" y="435" width="460" height="265" as="geometry" />
        </mxCell>
        <mxCell id="luZTjx40LB_68a69q-34-98" value="&lt;font style=&quot;font-size: 20px;&quot;&gt;HTTP REQUEST 1 &lt;br&gt;&lt;/font&gt;&lt;div style=&quot;font-size: 20px;&quot;&gt;&lt;font style=&quot;font-size: 20px;&quot;&gt;&lt;br&gt;&lt;/font&gt;&lt;/div&gt;&lt;div style=&quot;font-size: 20px;&quot;&gt;&lt;font style=&quot;font-size: 20px;&quot;&gt;&lt;br&gt;&lt;/font&gt;&lt;/div&gt;&lt;div style=&quot;font-size: 20px;&quot;&gt;&lt;font style=&quot;font-size: 20px;&quot;&gt;&lt;br&gt;&lt;/font&gt;&lt;/div&gt;" style="text;whiteSpace=wrap;html=1;fontStyle=1" parent="1" vertex="1">
          <mxGeometry x="310" y="445" width="180" height="40" as="geometry" />
        </mxCell>
        <mxCell id="luZTjx40LB_68a69q-34-99" value="&lt;font style=&quot;font-size: 30px;&quot;&gt;HEADERS FRAME&lt;br&gt;&lt;/font&gt;" style="rounded=0;whiteSpace=wrap;html=1;fontStyle=1" parent="1" vertex="1">
          <mxGeometry x="310" y="485" width="420" height="75" as="geometry" />
        </mxCell>
        <mxCell id="luZTjx40LB_68a69q-34-100" value="&lt;font style=&quot;font-size: 30px;&quot;&gt;DATA FRAME&lt;br&gt;&lt;/font&gt;" style="rounded=0;whiteSpace=wrap;html=1;fontStyle=1" parent="1" vertex="1">
          <mxGeometry x="310" y="580" width="420" height="75" as="geometry" />
        </mxCell>
        <mxCell id="luZTjx40LB_68a69q-34-101" value="" style="rounded=1;whiteSpace=wrap;html=1;fontStyle=1" parent="1" vertex="1">
          <mxGeometry x="780" y="435" width="460" height="265" as="geometry" />
        </mxCell>
        <mxCell id="luZTjx40LB_68a69q-34-102" value="&lt;font style=&quot;font-size: 20px;&quot;&gt;HTTP REQUEST 2&lt;br&gt;&lt;/font&gt;&lt;div style=&quot;font-size: 20px;&quot;&gt;&lt;font style=&quot;font-size: 20px;&quot;&gt;&lt;br&gt;&lt;/font&gt;&lt;/div&gt;&lt;div style=&quot;font-size: 20px;&quot;&gt;&lt;font style=&quot;font-size: 20px;&quot;&gt;&lt;br&gt;&lt;/font&gt;&lt;/div&gt;&lt;div style=&quot;font-size: 20px;&quot;&gt;&lt;font style=&quot;font-size: 20px;&quot;&gt;&lt;br&gt;&lt;/font&gt;&lt;/div&gt;" style="text;whiteSpace=wrap;html=1;fontStyle=1" parent="1" vertex="1">
          <mxGeometry x="800" y="445" width="200" height="40" as="geometry" />
        </mxCell>
        <mxCell id="luZTjx40LB_68a69q-34-103" value="&lt;font style=&quot;font-size: 30px;&quot;&gt;HEADERS FRAME&lt;br&gt;&lt;/font&gt;" style="rounded=0;whiteSpace=wrap;html=1;fontStyle=1" parent="1" vertex="1">
          <mxGeometry x="800" y="485" width="420" height="75" as="geometry" />
        </mxCell>
        <mxCell id="luZTjx40LB_68a69q-34-104" value="&lt;font style=&quot;font-size: 30px;&quot;&gt;DATA FRAME&lt;br&gt;&lt;/font&gt;" style="rounded=0;whiteSpace=wrap;html=1;fontStyle=1" parent="1" vertex="1">
          <mxGeometry x="800" y="580" width="420" height="75" as="geometry" />
        </mxCell>
        <mxCell id="luZTjx40LB_68a69q-34-106" value="" style="rounded=1;whiteSpace=wrap;html=1;fontStyle=1" parent="1" vertex="1">
          <mxGeometry x="225" y="1045" width="460" height="265" as="geometry" />
        </mxCell>
        <mxCell id="luZTjx40LB_68a69q-34-107" value="&lt;div style=&quot;font-size: 20px;&quot;&gt;&lt;font style=&quot;font-size: 20px;&quot;&gt;REQUEST 1 &lt;br&gt;&lt;/font&gt;&lt;/div&gt;&lt;div style=&quot;font-size: 20px;&quot;&gt;&lt;font style=&quot;font-size: 20px;&quot;&gt;&lt;br&gt;&lt;/font&gt;&lt;/div&gt;&lt;div style=&quot;font-size: 20px;&quot;&gt;&lt;font style=&quot;font-size: 20px;&quot;&gt;&lt;br&gt;&lt;/font&gt;&lt;/div&gt;&lt;div style=&quot;font-size: 20px;&quot;&gt;&lt;font style=&quot;font-size: 20px;&quot;&gt;&lt;br&gt;&lt;/font&gt;&lt;/div&gt;" style="text;whiteSpace=wrap;html=1;fontStyle=1" parent="1" vertex="1">
          <mxGeometry x="245" y="1055" width="150" height="40" as="geometry" />
        </mxCell>
        <mxCell id="luZTjx40LB_68a69q-34-108" value="&lt;font style=&quot;font-size: 30px;&quot;&gt;HEADERS FRAME&lt;br&gt;&lt;/font&gt;" style="rounded=0;whiteSpace=wrap;html=1;fontStyle=1" parent="1" vertex="1">
          <mxGeometry x="245" y="1095" width="420" height="75" as="geometry" />
        </mxCell>
        <mxCell id="luZTjx40LB_68a69q-34-109" value="&lt;font style=&quot;font-size: 30px;&quot;&gt;DATA FRAME&lt;br&gt;&lt;/font&gt;" style="rounded=0;whiteSpace=wrap;html=1;fontStyle=1" parent="1" vertex="1">
          <mxGeometry x="245" y="1190" width="420" height="75" as="geometry" />
        </mxCell>
        <mxCell id="luZTjx40LB_68a69q-34-111" value="TCP Header" style="text;html=1;align=center;verticalAlign=middle;resizable=0;points=[];autosize=1;strokeColor=none;fillColor=none;fontStyle=1" parent="1" vertex="1">
          <mxGeometry x="1065" y="1023" width="90" height="30" as="geometry" />
        </mxCell>
        <mxCell id="luZTjx40LB_68a69q-34-112" value="&lt;font style=&quot;font-size: 25px;&quot;&gt;TCP Headers&lt;br&gt;&lt;/font&gt;" style="text;whiteSpace=wrap;html=1;fontStyle=1" parent="1" vertex="1">
          <mxGeometry x="230" y="905" width="160" height="40" as="geometry" />
        </mxCell>
        <mxCell id="luZTjx40LB_68a69q-34-113" value="&lt;font style=&quot;font-size: 25px;&quot;&gt;TCP Payload&lt;br&gt;&lt;/font&gt;" style="text;whiteSpace=wrap;html=1;fontStyle=1" parent="1" vertex="1">
          <mxGeometry x="230" y="985" width="160" height="40" as="geometry" />
        </mxCell>
        <mxCell id="luZTjx40LB_68a69q-34-114" value="" style="line;strokeWidth=4;html=1;perimeter=backbonePerimeter;points=[];outlineConnect=0;fontStyle=1" parent="1" vertex="1">
          <mxGeometry x="200" y="970" width="520" height="10" as="geometry" />
        </mxCell>
        <mxCell id="luZTjx40LB_68a69q-34-115" value="" style="rounded=1;whiteSpace=wrap;html=1;fontStyle=1" parent="1" vertex="1">
          <mxGeometry x="770" y="860" width="510" height="475" as="geometry" />
        </mxCell>
        <mxCell id="luZTjx40LB_68a69q-34-116" value="" style="rounded=1;whiteSpace=wrap;html=1;fontStyle=1" parent="1" vertex="1">
          <mxGeometry x="795" y="1045" width="460" height="265" as="geometry" />
        </mxCell>
        <mxCell id="luZTjx40LB_68a69q-34-117" value="&lt;div style=&quot;font-size: 20px;&quot;&gt;&lt;font style=&quot;font-size: 20px;&quot;&gt;REQUEST 2&lt;br&gt;&lt;/font&gt;&lt;/div&gt;&lt;div style=&quot;font-size: 20px;&quot;&gt;&lt;font style=&quot;font-size: 20px;&quot;&gt;&lt;br&gt;&lt;/font&gt;&lt;/div&gt;&lt;div style=&quot;font-size: 20px;&quot;&gt;&lt;font style=&quot;font-size: 20px;&quot;&gt;&lt;br&gt;&lt;/font&gt;&lt;/div&gt;&lt;div style=&quot;font-size: 20px;&quot;&gt;&lt;font style=&quot;font-size: 20px;&quot;&gt;&lt;br&gt;&lt;/font&gt;&lt;/div&gt;" style="text;whiteSpace=wrap;html=1;fontStyle=1" parent="1" vertex="1">
          <mxGeometry x="815" y="1055" width="150" height="40" as="geometry" />
        </mxCell>
        <mxCell id="luZTjx40LB_68a69q-34-118" value="&lt;font style=&quot;font-size: 30px;&quot;&gt;HEADERS FRAME&lt;br&gt;&lt;/font&gt;" style="rounded=0;whiteSpace=wrap;html=1;fontStyle=1" parent="1" vertex="1">
          <mxGeometry x="815" y="1095" width="420" height="75" as="geometry" />
        </mxCell>
        <mxCell id="luZTjx40LB_68a69q-34-119" value="&lt;font style=&quot;font-size: 30px;&quot;&gt;DATA FRAME&lt;br&gt;&lt;/font&gt;" style="rounded=0;whiteSpace=wrap;html=1;fontStyle=1" parent="1" vertex="1">
          <mxGeometry x="815" y="1190" width="420" height="75" as="geometry" />
        </mxCell>
        <mxCell id="luZTjx40LB_68a69q-34-120" value="&lt;font style=&quot;font-size: 25px;&quot;&gt;TCP Headers&lt;br&gt;&lt;/font&gt;" style="text;whiteSpace=wrap;html=1;fontStyle=1" parent="1" vertex="1">
          <mxGeometry x="800" y="905" width="160" height="40" as="geometry" />
        </mxCell>
        <mxCell id="luZTjx40LB_68a69q-34-121" value="&lt;font style=&quot;font-size: 25px;&quot;&gt;TCP Payload&lt;br&gt;&lt;/font&gt;" style="text;whiteSpace=wrap;html=1;fontStyle=1" parent="1" vertex="1">
          <mxGeometry x="800" y="985" width="160" height="40" as="geometry" />
        </mxCell>
        <mxCell id="luZTjx40LB_68a69q-34-122" value="" style="line;strokeWidth=4;html=1;perimeter=backbonePerimeter;points=[];outlineConnect=0;fontStyle=1" parent="1" vertex="1">
          <mxGeometry x="770" y="970" width="520" height="10" as="geometry" />
        </mxCell>
        <mxCell id="luZTjx40LB_68a69q-34-124" value="&lt;font style=&quot;font-size: 35px;&quot;&gt;TCP SEGMENT 1&lt;/font&gt;" style="text;whiteSpace=wrap;html=1;fontStyle=1" parent="1" vertex="1">
          <mxGeometry x="200" y="795" width="300" height="40" as="geometry" />
        </mxCell>
        <mxCell id="luZTjx40LB_68a69q-34-125" value="&lt;font style=&quot;font-size: 35px;&quot;&gt;TCP SEGMENT 2&lt;br&gt;&lt;/font&gt;" style="text;whiteSpace=wrap;html=1;fontStyle=1" parent="1" vertex="1">
          <mxGeometry x="770" y="795" width="300" height="40" as="geometry" />
        </mxCell>
        <mxCell id="luZTjx40LB_68a69q-34-128" value="&lt;font style=&quot;font-size: 60px;&quot;&gt;ON&amp;nbsp; NETWORK&lt;br&gt;&lt;/font&gt;" style="text;whiteSpace=wrap;html=1;fontStyle=1" parent="1" vertex="1">
          <mxGeometry x="1690" y="1930" width="555" height="40" as="geometry" />
        </mxCell>
        <mxCell id="luZTjx40LB_68a69q-34-146" style="edgeStyle=orthogonalEdgeStyle;rounded=0;orthogonalLoop=1;jettySize=auto;html=1;exitX=0.5;exitY=1;exitDx=0;exitDy=0;entryX=0.5;entryY=1;entryDx=0;entryDy=0;fontStyle=1" parent="1" source="luZTjx40LB_68a69q-34-126" target="luZTjx40LB_68a69q-34-141" edge="1">
          <mxGeometry relative="1" as="geometry">
            <Array as="points">
              <mxPoint x="765" y="2060" />
              <mxPoint x="2985" y="2060" />
            </Array>
          </mxGeometry>
        </mxCell>
        <mxCell id="luZTjx40LB_68a69q-34-126" value="" style="rounded=1;whiteSpace=wrap;html=1;fontStyle=1" parent="1" vertex="1">
          <mxGeometry x="480" y="1715" width="570" height="160" as="geometry" />
        </mxCell>
        <mxCell id="luZTjx40LB_68a69q-34-131" value="" style="shape=cube;whiteSpace=wrap;html=1;boundedLbl=1;backgroundOutline=1;darkOpacity=0.05;darkOpacity2=0.1;fontStyle=1" parent="1" vertex="1">
          <mxGeometry x="520" y="1740" width="220" height="110" as="geometry" />
        </mxCell>
        <mxCell id="luZTjx40LB_68a69q-34-132" value="TCP" style="text;html=1;align=center;verticalAlign=middle;resizable=0;points=[];autosize=1;strokeColor=none;fillColor=none;fontStyle=1" parent="1" vertex="1">
          <mxGeometry x="215" y="2028" width="50" height="30" as="geometry" />
        </mxCell>
        <mxCell id="luZTjx40LB_68a69q-34-133" value="&lt;span&gt;&lt;font style=&quot;font-size: 30px;&quot;&gt;TCP SEGMENT 1&lt;/font&gt;&lt;/span&gt;" style="text;whiteSpace=wrap;html=1;fontStyle=1" parent="1" vertex="1">
          <mxGeometry x="550" y="1760" width="200" height="40" as="geometry" />
        </mxCell>
        <mxCell id="luZTjx40LB_68a69q-34-134" value="" style="shape=cube;whiteSpace=wrap;html=1;boundedLbl=1;backgroundOutline=1;darkOpacity=0.05;darkOpacity2=0.1;fontStyle=1" parent="1" vertex="1">
          <mxGeometry x="765" y="1740" width="220" height="110" as="geometry" />
        </mxCell>
        <mxCell id="luZTjx40LB_68a69q-34-135" value="&lt;span&gt;&lt;font style=&quot;font-size: 30px;&quot;&gt;TCP SEGMENT 2&lt;br&gt;&lt;/font&gt;&lt;/span&gt;" style="text;whiteSpace=wrap;html=1;fontStyle=1" parent="1" vertex="1">
          <mxGeometry x="795" y="1760" width="200" height="40" as="geometry" />
        </mxCell>
        <mxCell id="luZTjx40LB_68a69q-34-137" style="edgeStyle=orthogonalEdgeStyle;rounded=0;orthogonalLoop=1;jettySize=auto;html=1;exitX=0;exitY=0.5;exitDx=0;exitDy=0;entryX=0;entryY=0;entryDx=0;entryDy=45;entryPerimeter=0;fontStyle=1" parent="1" source="luZTjx40LB_68a69q-34-124" target="luZTjx40LB_68a69q-34-131" edge="1">
          <mxGeometry relative="1" as="geometry">
            <Array as="points">
              <mxPoint x="120" y="815" />
              <mxPoint x="120" y="1785" />
            </Array>
          </mxGeometry>
        </mxCell>
        <mxCell id="luZTjx40LB_68a69q-34-140" style="edgeStyle=orthogonalEdgeStyle;rounded=0;orthogonalLoop=1;jettySize=auto;html=1;exitX=1;exitY=0.75;exitDx=0;exitDy=0;entryX=0.415;entryY=-0.1;entryDx=0;entryDy=0;entryPerimeter=0;fontStyle=1" parent="1" source="luZTjx40LB_68a69q-34-125" target="luZTjx40LB_68a69q-34-135" edge="1">
          <mxGeometry relative="1" as="geometry">
            <Array as="points">
              <mxPoint x="1440" y="825" />
              <mxPoint x="1440" y="1400" />
              <mxPoint x="878" y="1400" />
            </Array>
          </mxGeometry>
        </mxCell>
        <mxCell id="luZTjx40LB_68a69q-34-141" value="" style="rounded=1;whiteSpace=wrap;html=1;fontStyle=1" parent="1" vertex="1">
          <mxGeometry x="2700" y="1700" width="570" height="160" as="geometry" />
        </mxCell>
        <mxCell id="luZTjx40LB_68a69q-34-174" style="edgeStyle=orthogonalEdgeStyle;rounded=0;orthogonalLoop=1;jettySize=auto;html=1;exitX=0;exitY=0;exitDx=100;exitDy=0;exitPerimeter=0;entryX=0;entryY=0.5;entryDx=0;entryDy=0;fontStyle=1" parent="1" source="luZTjx40LB_68a69q-34-142" target="luZTjx40LB_68a69q-34-147" edge="1">
          <mxGeometry relative="1" as="geometry">
            <Array as="points">
              <mxPoint x="2840" y="1535" />
              <mxPoint x="2140" y="1535" />
              <mxPoint x="2140" y="1107" />
            </Array>
          </mxGeometry>
        </mxCell>
        <mxCell id="luZTjx40LB_68a69q-34-142" value="" style="shape=cube;whiteSpace=wrap;html=1;boundedLbl=1;backgroundOutline=1;darkOpacity=0.05;darkOpacity2=0.1;fontStyle=1" parent="1" vertex="1">
          <mxGeometry x="2740" y="1725" width="220" height="110" as="geometry" />
        </mxCell>
        <mxCell id="luZTjx40LB_68a69q-34-143" value="&lt;span&gt;&lt;font style=&quot;font-size: 30px;&quot;&gt;TCP SEGMENT 1&lt;/font&gt;&lt;/span&gt;" style="text;whiteSpace=wrap;html=1;fontStyle=1" parent="1" vertex="1">
          <mxGeometry x="2770" y="1745" width="200" height="40" as="geometry" />
        </mxCell>
        <mxCell id="luZTjx40LB_68a69q-34-144" value="" style="shape=cube;whiteSpace=wrap;html=1;boundedLbl=1;backgroundOutline=1;darkOpacity=0.05;darkOpacity2=0.1;fontStyle=1" parent="1" vertex="1">
          <mxGeometry x="2985" y="1725" width="220" height="110" as="geometry" />
        </mxCell>
        <mxCell id="luZTjx40LB_68a69q-34-175" style="edgeStyle=orthogonalEdgeStyle;rounded=0;orthogonalLoop=1;jettySize=auto;html=1;exitX=0.5;exitY=0;exitDx=0;exitDy=0;entryX=1;entryY=0.5;entryDx=0;entryDy=0;fontStyle=1" parent="1" source="luZTjx40LB_68a69q-34-145" target="luZTjx40LB_68a69q-34-164" edge="1">
          <mxGeometry relative="1" as="geometry">
            <Array as="points">
              <mxPoint x="3115" y="1545" />
              <mxPoint x="3450" y="1545" />
              <mxPoint x="3450" y="1107" />
            </Array>
          </mxGeometry>
        </mxCell>
        <mxCell id="luZTjx40LB_68a69q-34-145" value="&lt;span&gt;&lt;font style=&quot;font-size: 30px;&quot;&gt;TCP SEGMENT 2&lt;br&gt;&lt;/font&gt;&lt;/span&gt;" style="text;whiteSpace=wrap;html=1;fontStyle=1" parent="1" vertex="1">
          <mxGeometry x="3015" y="1745" width="200" height="40" as="geometry" />
        </mxCell>
        <mxCell id="luZTjx40LB_68a69q-34-147" value="" style="rounded=1;whiteSpace=wrap;html=1;fontStyle=1" parent="1" vertex="1">
          <mxGeometry x="2230" y="870" width="520" height="475" as="geometry" />
        </mxCell>
        <mxCell id="luZTjx40LB_68a69q-34-148" value="" style="rounded=1;whiteSpace=wrap;html=1;fontStyle=1" parent="1" vertex="1">
          <mxGeometry x="2320" y="445" width="460" height="265" as="geometry" />
        </mxCell>
        <mxCell id="luZTjx40LB_68a69q-34-149" value="&lt;font style=&quot;font-size: 20px;&quot;&gt;HTTP REQUEST 1 &lt;br&gt;&lt;/font&gt;&lt;div style=&quot;font-size: 20px;&quot;&gt;&lt;font style=&quot;font-size: 20px;&quot;&gt;&lt;br&gt;&lt;/font&gt;&lt;/div&gt;&lt;div style=&quot;font-size: 20px;&quot;&gt;&lt;font style=&quot;font-size: 20px;&quot;&gt;&lt;br&gt;&lt;/font&gt;&lt;/div&gt;&lt;div style=&quot;font-size: 20px;&quot;&gt;&lt;font style=&quot;font-size: 20px;&quot;&gt;&lt;br&gt;&lt;/font&gt;&lt;/div&gt;" style="text;whiteSpace=wrap;html=1;fontStyle=1" parent="1" vertex="1">
          <mxGeometry x="2340" y="455" width="180" height="40" as="geometry" />
        </mxCell>
        <mxCell id="luZTjx40LB_68a69q-34-150" value="&lt;font style=&quot;font-size: 30px;&quot;&gt;HEADERS FRAME&lt;br&gt;&lt;/font&gt;" style="rounded=0;whiteSpace=wrap;html=1;fontStyle=1" parent="1" vertex="1">
          <mxGeometry x="2340" y="495" width="420" height="75" as="geometry" />
        </mxCell>
        <mxCell id="luZTjx40LB_68a69q-34-151" value="&lt;font style=&quot;font-size: 30px;&quot;&gt;DATA FRAME&lt;br&gt;&lt;/font&gt;" style="rounded=0;whiteSpace=wrap;html=1;fontStyle=1" parent="1" vertex="1">
          <mxGeometry x="2340" y="590" width="420" height="75" as="geometry" />
        </mxCell>
        <mxCell id="luZTjx40LB_68a69q-34-153" value="&lt;font style=&quot;font-size: 20px;&quot;&gt;HTTP REQUEST 2&lt;br&gt;&lt;/font&gt;&lt;div style=&quot;font-size: 20px;&quot;&gt;&lt;font style=&quot;font-size: 20px;&quot;&gt;&lt;br&gt;&lt;/font&gt;&lt;/div&gt;&lt;div style=&quot;font-size: 20px;&quot;&gt;&lt;font style=&quot;font-size: 20px;&quot;&gt;&lt;br&gt;&lt;/font&gt;&lt;/div&gt;&lt;div style=&quot;font-size: 20px;&quot;&gt;&lt;font style=&quot;font-size: 20px;&quot;&gt;&lt;br&gt;&lt;/font&gt;&lt;/div&gt;" style="text;whiteSpace=wrap;html=1;fontStyle=1" parent="1" vertex="1">
          <mxGeometry x="2830" y="455" width="200" height="40" as="geometry" />
        </mxCell>
        <mxCell id="luZTjx40LB_68a69q-34-154" value="&lt;font style=&quot;font-size: 30px;&quot;&gt;HEADERS FRAME&lt;br&gt;&lt;/font&gt;" style="rounded=0;whiteSpace=wrap;html=1;fontStyle=1" parent="1" vertex="1">
          <mxGeometry x="2830" y="495" width="420" height="75" as="geometry" />
        </mxCell>
        <mxCell id="luZTjx40LB_68a69q-34-155" value="&lt;font style=&quot;font-size: 30px;&quot;&gt;DATA FRAME&lt;br&gt;&lt;/font&gt;" style="rounded=0;whiteSpace=wrap;html=1;fontStyle=1" parent="1" vertex="1">
          <mxGeometry x="2830" y="590" width="420" height="75" as="geometry" />
        </mxCell>
        <mxCell id="luZTjx40LB_68a69q-34-156" value="" style="rounded=1;whiteSpace=wrap;html=1;fontStyle=1" parent="1" vertex="1">
          <mxGeometry x="2255" y="1055" width="460" height="265" as="geometry" />
        </mxCell>
        <mxCell id="luZTjx40LB_68a69q-34-157" value="&lt;div style=&quot;font-size: 20px;&quot;&gt;&lt;font style=&quot;font-size: 20px;&quot;&gt;REQUEST 1 &lt;br&gt;&lt;/font&gt;&lt;/div&gt;&lt;div style=&quot;font-size: 20px;&quot;&gt;&lt;font style=&quot;font-size: 20px;&quot;&gt;&lt;br&gt;&lt;/font&gt;&lt;/div&gt;&lt;div style=&quot;font-size: 20px;&quot;&gt;&lt;font style=&quot;font-size: 20px;&quot;&gt;&lt;br&gt;&lt;/font&gt;&lt;/div&gt;&lt;div style=&quot;font-size: 20px;&quot;&gt;&lt;font style=&quot;font-size: 20px;&quot;&gt;&lt;br&gt;&lt;/font&gt;&lt;/div&gt;" style="text;whiteSpace=wrap;html=1;fontStyle=1" parent="1" vertex="1">
          <mxGeometry x="2275" y="1065" width="150" height="40" as="geometry" />
        </mxCell>
        <mxCell id="luZTjx40LB_68a69q-34-158" value="&lt;font style=&quot;font-size: 30px;&quot;&gt;HEADERS FRAME&lt;br&gt;&lt;/font&gt;" style="rounded=0;whiteSpace=wrap;html=1;fontStyle=1" parent="1" vertex="1">
          <mxGeometry x="2275" y="1105" width="420" height="75" as="geometry" />
        </mxCell>
        <mxCell id="luZTjx40LB_68a69q-34-159" value="&lt;font style=&quot;font-size: 30px;&quot;&gt;DATA FRAME&lt;br&gt;&lt;/font&gt;" style="rounded=0;whiteSpace=wrap;html=1;fontStyle=1" parent="1" vertex="1">
          <mxGeometry x="2275" y="1200" width="420" height="75" as="geometry" />
        </mxCell>
        <mxCell id="luZTjx40LB_68a69q-34-160" value="TCP Header" style="text;html=1;align=center;verticalAlign=middle;resizable=0;points=[];autosize=1;strokeColor=none;fillColor=none;fontStyle=1" parent="1" vertex="1">
          <mxGeometry x="3095" y="1033" width="90" height="30" as="geometry" />
        </mxCell>
        <mxCell id="luZTjx40LB_68a69q-34-161" value="&lt;font style=&quot;font-size: 25px;&quot;&gt;TCP Headers&lt;br&gt;&lt;/font&gt;" style="text;whiteSpace=wrap;html=1;fontStyle=1" parent="1" vertex="1">
          <mxGeometry x="2260" y="915" width="160" height="40" as="geometry" />
        </mxCell>
        <mxCell id="luZTjx40LB_68a69q-34-162" value="&lt;font style=&quot;font-size: 25px;&quot;&gt;TCP Payload&lt;br&gt;&lt;/font&gt;" style="text;whiteSpace=wrap;html=1;fontStyle=1" parent="1" vertex="1">
          <mxGeometry x="2260" y="995" width="160" height="40" as="geometry" />
        </mxCell>
        <mxCell id="luZTjx40LB_68a69q-34-163" value="" style="line;strokeWidth=4;html=1;perimeter=backbonePerimeter;points=[];outlineConnect=0;fontStyle=1" parent="1" vertex="1">
          <mxGeometry x="2230" y="980" width="520" height="10" as="geometry" />
        </mxCell>
        <mxCell id="luZTjx40LB_68a69q-34-164" value="" style="rounded=1;whiteSpace=wrap;html=1;fontStyle=1" parent="1" vertex="1">
          <mxGeometry x="2800" y="870" width="510" height="475" as="geometry" />
        </mxCell>
        <mxCell id="luZTjx40LB_68a69q-34-165" value="" style="rounded=1;whiteSpace=wrap;html=1;fontStyle=1" parent="1" vertex="1">
          <mxGeometry x="2825" y="1055" width="460" height="265" as="geometry" />
        </mxCell>
        <mxCell id="luZTjx40LB_68a69q-34-166" value="&lt;div style=&quot;font-size: 20px;&quot;&gt;&lt;font style=&quot;font-size: 20px;&quot;&gt;REQUEST 2&lt;br&gt;&lt;/font&gt;&lt;/div&gt;&lt;div style=&quot;font-size: 20px;&quot;&gt;&lt;font style=&quot;font-size: 20px;&quot;&gt;&lt;br&gt;&lt;/font&gt;&lt;/div&gt;&lt;div style=&quot;font-size: 20px;&quot;&gt;&lt;font style=&quot;font-size: 20px;&quot;&gt;&lt;br&gt;&lt;/font&gt;&lt;/div&gt;&lt;div style=&quot;font-size: 20px;&quot;&gt;&lt;font style=&quot;font-size: 20px;&quot;&gt;&lt;br&gt;&lt;/font&gt;&lt;/div&gt;" style="text;whiteSpace=wrap;html=1;fontStyle=1" parent="1" vertex="1">
          <mxGeometry x="2845" y="1065" width="150" height="40" as="geometry" />
        </mxCell>
        <mxCell id="luZTjx40LB_68a69q-34-167" value="&lt;font style=&quot;font-size: 30px;&quot;&gt;HEADERS FRAME&lt;br&gt;&lt;/font&gt;" style="rounded=0;whiteSpace=wrap;html=1;fontStyle=1" parent="1" vertex="1">
          <mxGeometry x="2845" y="1105" width="420" height="75" as="geometry" />
        </mxCell>
        <mxCell id="luZTjx40LB_68a69q-34-168" value="&lt;font style=&quot;font-size: 30px;&quot;&gt;DATA FRAME&lt;br&gt;&lt;/font&gt;" style="rounded=0;whiteSpace=wrap;html=1;fontStyle=1" parent="1" vertex="1">
          <mxGeometry x="2845" y="1200" width="420" height="75" as="geometry" />
        </mxCell>
        <mxCell id="luZTjx40LB_68a69q-34-169" value="&lt;font style=&quot;font-size: 25px;&quot;&gt;TCP Headers&lt;br&gt;&lt;/font&gt;" style="text;whiteSpace=wrap;html=1;fontStyle=1" parent="1" vertex="1">
          <mxGeometry x="2830" y="915" width="160" height="40" as="geometry" />
        </mxCell>
        <mxCell id="luZTjx40LB_68a69q-34-170" value="&lt;font style=&quot;font-size: 25px;&quot;&gt;TCP Payload&lt;br&gt;&lt;/font&gt;" style="text;whiteSpace=wrap;html=1;fontStyle=1" parent="1" vertex="1">
          <mxGeometry x="2830" y="995" width="160" height="40" as="geometry" />
        </mxCell>
        <mxCell id="luZTjx40LB_68a69q-34-171" value="" style="line;strokeWidth=4;html=1;perimeter=backbonePerimeter;points=[];outlineConnect=0;fontStyle=1" parent="1" vertex="1">
          <mxGeometry x="2800" y="980" width="520" height="10" as="geometry" />
        </mxCell>
        <mxCell id="luZTjx40LB_68a69q-34-172" value="&lt;font style=&quot;font-size: 35px;&quot;&gt;TCP SEGMENT 1&lt;/font&gt;" style="text;whiteSpace=wrap;html=1;fontStyle=1" parent="1" vertex="1">
          <mxGeometry x="2230" y="805" width="300" height="40" as="geometry" />
        </mxCell>
        <mxCell id="luZTjx40LB_68a69q-34-173" value="&lt;font style=&quot;font-size: 35px;&quot;&gt;TCP SEGMENT 2&lt;br&gt;&lt;/font&gt;" style="text;whiteSpace=wrap;html=1;fontStyle=1" parent="1" vertex="1">
          <mxGeometry x="2800" y="805" width="300" height="40" as="geometry" />
        </mxCell>
        <mxCell id="luZTjx40LB_68a69q-34-177" value="&lt;font style=&quot;font-size: 40px;&quot;&gt;RECEIVED IN THE CORRECT ORDER &lt;br&gt;&lt;/font&gt;" style="text;whiteSpace=wrap;html=1;fontStyle=1" parent="1" vertex="1">
          <mxGeometry x="2660" y="1895" width="740" height="75" as="geometry" />
        </mxCell>
        <mxCell id="luZTjx40LB_68a69q-34-178" value="&lt;div align=&quot;center&quot; style=&quot;font-size: 100px;&quot;&gt;&lt;font style=&quot;font-size: 100px;&quot;&gt;HTTP/2 HPACK OVERVIEW&lt;br&gt;&lt;/font&gt;&lt;/div&gt;" style="text;whiteSpace=wrap;html=1;align=center;fontStyle=1" parent="1" vertex="1">
          <mxGeometry x="1140" y="-330" width="1300" height="75" as="geometry" />
        </mxCell>
        <mxCell id="luZTjx40LB_68a69q-34-180" style="edgeStyle=orthogonalEdgeStyle;rounded=0;orthogonalLoop=1;jettySize=auto;html=1;exitX=0;exitY=0.5;exitDx=0;exitDy=0;fontStyle=1" parent="1" source="luZTjx40LB_68a69q-34-150" target="wvwlTENvmum87CmziHwN-14" edge="1">
          <mxGeometry relative="1" as="geometry">
            <Array as="points">
              <mxPoint x="1840" y="533" />
              <mxPoint x="1840" y="370" />
            </Array>
            <mxPoint x="1571.9899999999993" y="624.5" as="targetPoint" />
          </mxGeometry>
        </mxCell>
        <mxCell id="luZTjx40LB_68a69q-34-182" value="&lt;font style=&quot;font-size: 40px;&quot;&gt;STATIC TABLE&lt;/font&gt;" style="text;html=1;align=center;verticalAlign=middle;resizable=0;points=[];autosize=1;strokeColor=none;fillColor=none;strokeWidth=1;fontStyle=1" parent="1" vertex="1">
          <mxGeometry x="1215" width="290" height="60" as="geometry" />
        </mxCell>
        <mxCell id="luZTjx40LB_68a69q-34-183" value="&lt;div style=&quot;font-size: 20px;&quot;&gt;&lt;font style=&quot;font-size: 20px;&quot;&gt;.&lt;/font&gt;&lt;/div&gt;&lt;div style=&quot;font-size: 20px;&quot;&gt;&lt;font style=&quot;font-size: 20px;&quot;&gt;.&lt;/font&gt;&lt;/div&gt;&lt;div style=&quot;font-size: 20px;&quot;&gt;&lt;font style=&quot;font-size: 20px;&quot;&gt;&lt;br&gt;&lt;/font&gt;&lt;/div&gt;" style="rounded=0;whiteSpace=wrap;html=1;strokeWidth=1;fontStyle=1" parent="1" vertex="1">
          <mxGeometry x="1155" y="70" width="450" height="180" as="geometry" />
        </mxCell>
        <mxCell id="luZTjx40LB_68a69q-34-184" value="&lt;font style=&quot;font-size: 30px;&quot;&gt;1&lt;span style=&quot;white-space: pre;&quot;&gt;&#x9;    &lt;/span&gt;:authority&lt;/font&gt;" style="text;html=1;align=center;verticalAlign=middle;resizable=0;points=[];autosize=1;strokeColor=none;fillColor=none;strokeWidth=1;fontStyle=1" parent="1" vertex="1">
          <mxGeometry x="1170" y="80" width="210" height="50" as="geometry" />
        </mxCell>
        <mxCell id="luZTjx40LB_68a69q-34-185" value="&lt;font style=&quot;font-size: 30px;&quot;&gt;61&lt;span style=&quot;white-space: pre;&quot;&gt;&#x9;&lt;/span&gt;www-authenticate&lt;span style=&quot;white-space: pre;&quot;&gt;&#x9;&lt;/span&gt;&lt;/font&gt;" style="text;html=1;align=center;verticalAlign=middle;resizable=0;points=[];autosize=1;strokeColor=none;fillColor=none;strokeWidth=1;fontStyle=1" parent="1" vertex="1">
          <mxGeometry x="1165" y="180" width="340" height="50" as="geometry" />
        </mxCell>
        <mxCell id="luZTjx40LB_68a69q-34-186" value="&lt;font style=&quot;font-size: 40px;&quot;&gt;DYNAMIC TABLE&lt;/font&gt;" style="text;html=1;align=center;verticalAlign=middle;resizable=0;points=[];autosize=1;strokeColor=none;fillColor=none;strokeWidth=1;fontStyle=1" parent="1" vertex="1">
          <mxGeometry x="1200" y="260" width="340" height="60" as="geometry" />
        </mxCell>
        <mxCell id="luZTjx40LB_68a69q-34-192" style="edgeStyle=orthogonalEdgeStyle;rounded=0;orthogonalLoop=1;jettySize=auto;html=1;exitX=0.5;exitY=1;exitDx=0;exitDy=0;entryX=1;entryY=0.5;entryDx=0;entryDy=0;fontStyle=1" parent="1" source="luZTjx40LB_68a69q-34-187" target="luZTjx40LB_68a69q-34-103" edge="1">
          <mxGeometry relative="1" as="geometry" />
        </mxCell>
        <mxCell id="luZTjx40LB_68a69q-34-187" value="" style="rounded=0;whiteSpace=wrap;html=1;strokeWidth=1;fontStyle=1" parent="1" vertex="1">
          <mxGeometry x="1155" y="330" width="450" height="80" as="geometry" />
        </mxCell>
        <mxCell id="luZTjx40LB_68a69q-34-188" value="&lt;font style=&quot;font-size: 26px;&quot;&gt;62&lt;span style=&quot;white-space: pre;&quot;&gt;&#x9;&lt;/span&gt;referer&lt;span style=&quot;white-space: pre;&quot;&gt;&#x9;&lt;/span&gt;https://www.zoho.com&lt;/font&gt;" style="text;html=1;align=center;verticalAlign=middle;resizable=0;points=[];autosize=1;strokeColor=none;fillColor=none;strokeWidth=1;fontStyle=1" parent="1" vertex="1">
          <mxGeometry x="1160" y="350" width="440" height="40" as="geometry" />
        </mxCell>
        <mxCell id="luZTjx40LB_68a69q-34-189" style="edgeStyle=orthogonalEdgeStyle;rounded=0;orthogonalLoop=1;jettySize=auto;html=1;exitX=1;exitY=0.5;exitDx=0;exitDy=0;entryX=-0.019;entryY=0.44;entryDx=0;entryDy=0;entryPerimeter=0;fontStyle=1" parent="1" source="luZTjx40LB_68a69q-34-99" target="luZTjx40LB_68a69q-34-188" edge="1">
          <mxGeometry relative="1" as="geometry">
            <Array as="points">
              <mxPoint x="770" y="523" />
              <mxPoint x="770" y="210" />
              <mxPoint x="1080" y="210" />
              <mxPoint x="1080" y="367" />
            </Array>
          </mxGeometry>
        </mxCell>
        <mxCell id="luZTjx40LB_68a69q-34-193" value="&lt;font style=&quot;font-size: 30px;&quot;&gt;HTTP REQUEST 2 REFERENCED THIS ENTRY &lt;br&gt;&lt;/font&gt;" style="text;whiteSpace=wrap;html=1;fontStyle=1" parent="1" vertex="1">
          <mxGeometry x="1275" y="545" width="230" height="50" as="geometry" />
        </mxCell>
        <mxCell id="luZTjx40LB_68a69q-34-194" value="&lt;font style=&quot;font-size: 30px;&quot;&gt;HTTP REQUEST 1 ADDED THIS ENTRY &lt;br&gt;&lt;/font&gt;" style="text;whiteSpace=wrap;html=1;fontStyle=1" parent="1" vertex="1">
          <mxGeometry x="567.5" y="135" width="572.5" height="50" as="geometry" />
        </mxCell>
        <mxCell id="luZTjx40LB_68a69q-34-199" value="&lt;font style=&quot;font-size: 30px;&quot;&gt;HTTP REQUEST 2 HEADERS DECODED WITH THIS ENTRY&lt;br&gt;&lt;/font&gt;" style="text;whiteSpace=wrap;html=1;fontStyle=1" parent="1" vertex="1">
          <mxGeometry x="2550" y="278" width="450" height="50" as="geometry" />
        </mxCell>
        <mxCell id="luZTjx40LB_68a69q-34-200" value="&lt;div style=&quot;font-size: 100px;&quot; align=&quot;center&quot;&gt;&lt;font style=&quot;font-size: 100px;&quot;&gt;ENCODER SIDE&lt;br&gt;&lt;/font&gt;&lt;/div&gt;" style="text;whiteSpace=wrap;html=1;fontStyle=1" parent="1" vertex="1">
          <mxGeometry x="380" y="-110" width="835" height="180" as="geometry" />
        </mxCell>
        <mxCell id="luZTjx40LB_68a69q-34-201" value="&lt;div align=&quot;center&quot; style=&quot;font-size: 100px;&quot;&gt;&lt;font style=&quot;font-size: 100px;&quot;&gt;DECODER SIDE&lt;br&gt;&lt;/font&gt;&lt;/div&gt;" style="text;whiteSpace=wrap;html=1;fontStyle=1" parent="1" vertex="1">
          <mxGeometry x="2420" y="-80" width="790" height="160" as="geometry" />
        </mxCell>
        <mxCell id="2msqa14-VvynCu-mgGiv-98" value="" style="rounded=1;whiteSpace=wrap;html=1;fontStyle=1" parent="1" vertex="1">
          <mxGeometry x="4930" y="3535" width="460" height="265" as="geometry" />
        </mxCell>
        <mxCell id="2msqa14-VvynCu-mgGiv-104" value="&lt;font style=&quot;font-size: 40px;&quot;&gt;DYNAMIC TABLE&lt;/font&gt;" style="text;html=1;align=center;verticalAlign=middle;resizable=0;points=[];autosize=1;strokeColor=none;fillColor=none;strokeWidth=1;fontStyle=1" parent="1" vertex="1">
          <mxGeometry x="3725" y="3330" width="340" height="60" as="geometry" />
        </mxCell>
        <mxCell id="2msqa14-VvynCu-mgGiv-106" value="" style="rounded=0;whiteSpace=wrap;html=1;strokeWidth=1;fontStyle=1" parent="1" vertex="1">
          <mxGeometry x="3650" y="3420" width="810" height="80" as="geometry" />
        </mxCell>
        <mxCell id="2msqa14-VvynCu-mgGiv-108" value="" style="rounded=1;whiteSpace=wrap;html=1;fontStyle=1;" parent="1" vertex="1">
          <mxGeometry x="385" y="3567.5" width="460" height="265" as="geometry" />
        </mxCell>
        <mxCell id="2msqa14-VvynCu-mgGiv-240" style="edgeStyle=orthogonalEdgeStyle;rounded=0;orthogonalLoop=1;jettySize=auto;html=1;exitX=0;exitY=0.5;exitDx=0;exitDy=0;entryX=0.5;entryY=0;entryDx=0;entryDy=0;" parent="1" source="2msqa14-VvynCu-mgGiv-108" target="2msqa14-VvynCu-mgGiv-116" edge="1">
          <mxGeometry relative="1" as="geometry">
            <Array as="points">
              <mxPoint x="365" y="3700" />
              <mxPoint x="365" y="3910" />
              <mxPoint x="1340" y="3910" />
              <mxPoint x="1340" y="4673" />
            </Array>
          </mxGeometry>
        </mxCell>
        <mxCell id="2msqa14-VvynCu-mgGiv-109" value="&lt;font style=&quot;font-size: 20px;&quot;&gt;HTTP REQUEST 1 &lt;br&gt;&lt;/font&gt;&lt;div style=&quot;font-size: 20px;&quot;&gt;&lt;font style=&quot;font-size: 20px;&quot;&gt;&lt;br&gt;&lt;/font&gt;&lt;/div&gt;&lt;div style=&quot;font-size: 20px;&quot;&gt;&lt;font style=&quot;font-size: 20px;&quot;&gt;&lt;br&gt;&lt;/font&gt;&lt;/div&gt;&lt;div style=&quot;font-size: 20px;&quot;&gt;&lt;font style=&quot;font-size: 20px;&quot;&gt;&lt;br&gt;&lt;/font&gt;&lt;/div&gt;" style="text;whiteSpace=wrap;html=1;fontStyle=1" parent="1" vertex="1">
          <mxGeometry x="405" y="3577.5" width="180" height="40" as="geometry" />
        </mxCell>
        <mxCell id="2msqa14-VvynCu-mgGiv-110" value="&lt;font style=&quot;font-size: 30px;&quot;&gt;HEADERS FRAME&lt;br&gt;&lt;/font&gt;" style="rounded=0;whiteSpace=wrap;html=1;fontStyle=1" parent="1" vertex="1">
          <mxGeometry x="405" y="3617.5" width="420" height="75" as="geometry" />
        </mxCell>
        <mxCell id="2msqa14-VvynCu-mgGiv-111" value="&lt;font style=&quot;font-size: 30px;&quot;&gt;DATA FRAME&lt;br&gt;&lt;/font&gt;" style="rounded=0;whiteSpace=wrap;html=1;fontStyle=1" parent="1" vertex="1">
          <mxGeometry x="405" y="3712.5" width="420" height="75" as="geometry" />
        </mxCell>
        <mxCell id="2msqa14-VvynCu-mgGiv-112" value="" style="rounded=1;whiteSpace=wrap;html=1;fontStyle=1;" parent="1" vertex="1">
          <mxGeometry x="875" y="3567.5" width="460" height="265" as="geometry" />
        </mxCell>
        <mxCell id="2msqa14-VvynCu-mgGiv-113" value="&lt;font style=&quot;font-size: 20px;&quot;&gt;HTTP REQUEST 2&lt;br&gt;&lt;/font&gt;&lt;div style=&quot;font-size: 20px;&quot;&gt;&lt;font style=&quot;font-size: 20px;&quot;&gt;&lt;br&gt;&lt;/font&gt;&lt;/div&gt;&lt;div style=&quot;font-size: 20px;&quot;&gt;&lt;font style=&quot;font-size: 20px;&quot;&gt;&lt;br&gt;&lt;/font&gt;&lt;/div&gt;&lt;div style=&quot;font-size: 20px;&quot;&gt;&lt;font style=&quot;font-size: 20px;&quot;&gt;&lt;br&gt;&lt;/font&gt;&lt;/div&gt;" style="text;whiteSpace=wrap;html=1;fontStyle=1" parent="1" vertex="1">
          <mxGeometry x="895" y="3577.5" width="200" height="40" as="geometry" />
        </mxCell>
        <mxCell id="2msqa14-VvynCu-mgGiv-114" value="&lt;font style=&quot;font-size: 30px;&quot;&gt;HEADERS FRAME&lt;br&gt;&lt;/font&gt;" style="rounded=0;whiteSpace=wrap;html=1;fontStyle=1" parent="1" vertex="1">
          <mxGeometry x="895" y="3617.5" width="420" height="75" as="geometry" />
        </mxCell>
        <mxCell id="2msqa14-VvynCu-mgGiv-115" value="&lt;font style=&quot;font-size: 30px;&quot;&gt;DATA FRAME&lt;br&gt;&lt;/font&gt;" style="rounded=0;whiteSpace=wrap;html=1;fontStyle=1" parent="1" vertex="1">
          <mxGeometry x="895" y="3712.5" width="420" height="75" as="geometry" />
        </mxCell>
        <mxCell id="2msqa14-VvynCu-mgGiv-116" value="" style="rounded=1;whiteSpace=wrap;html=1;fontStyle=1" parent="1" vertex="1">
          <mxGeometry x="1500" y="4673" width="460" height="265" as="geometry" />
        </mxCell>
        <mxCell id="2msqa14-VvynCu-mgGiv-117" value="&lt;div style=&quot;font-size: 20px;&quot;&gt;&lt;font style=&quot;font-size: 20px;&quot;&gt;REQUEST 1 &lt;br&gt;&lt;/font&gt;&lt;/div&gt;&lt;div style=&quot;font-size: 20px;&quot;&gt;&lt;font style=&quot;font-size: 20px;&quot;&gt;&lt;br&gt;&lt;/font&gt;&lt;/div&gt;&lt;div style=&quot;font-size: 20px;&quot;&gt;&lt;font style=&quot;font-size: 20px;&quot;&gt;&lt;br&gt;&lt;/font&gt;&lt;/div&gt;&lt;div style=&quot;font-size: 20px;&quot;&gt;&lt;font style=&quot;font-size: 20px;&quot;&gt;&lt;br&gt;&lt;/font&gt;&lt;/div&gt;" style="text;whiteSpace=wrap;html=1;fontStyle=1" parent="1" vertex="1">
          <mxGeometry x="1520" y="4683" width="150" height="40" as="geometry" />
        </mxCell>
        <mxCell id="2msqa14-VvynCu-mgGiv-118" value="&lt;font style=&quot;font-size: 30px;&quot;&gt;HEADERS FRAME&lt;br&gt;&lt;/font&gt;" style="rounded=0;whiteSpace=wrap;html=1;fontStyle=1" parent="1" vertex="1">
          <mxGeometry x="1520" y="4723" width="420" height="75" as="geometry" />
        </mxCell>
        <mxCell id="2msqa14-VvynCu-mgGiv-119" value="&lt;font style=&quot;font-size: 30px;&quot;&gt;DATA FRAME&lt;br&gt;&lt;/font&gt;" style="rounded=0;whiteSpace=wrap;html=1;fontStyle=1" parent="1" vertex="1">
          <mxGeometry x="1520" y="4818" width="420" height="75" as="geometry" />
        </mxCell>
        <mxCell id="2msqa14-VvynCu-mgGiv-132" value="&lt;font style=&quot;font-size: 35px;&quot;&gt;UDP DATAGRAM 1&lt;br&gt;&lt;/font&gt;" style="text;whiteSpace=wrap;html=1;fontStyle=1" parent="1" vertex="1">
          <mxGeometry x="-220" y="3928" width="410" height="40" as="geometry" />
        </mxCell>
        <mxCell id="2msqa14-VvynCu-mgGiv-133" value="&lt;font style=&quot;font-size: 35px;&quot;&gt;UDP DATAGRAM 2&lt;br&gt;&lt;/font&gt;" style="text;whiteSpace=wrap;html=1;fontStyle=1" parent="1" vertex="1">
          <mxGeometry x="590" y="3933" width="430" height="40" as="geometry" />
        </mxCell>
        <mxCell id="2msqa14-VvynCu-mgGiv-134" value="&lt;font style=&quot;font-size: 60px;&quot;&gt;ON&amp;nbsp; NETWORK&lt;br&gt;&lt;/font&gt;" style="text;whiteSpace=wrap;html=1;fontStyle=1" parent="1" vertex="1">
          <mxGeometry x="2845" y="5770" width="555" height="40" as="geometry" />
        </mxCell>
        <mxCell id="2msqa14-VvynCu-mgGiv-287" style="edgeStyle=orthogonalEdgeStyle;rounded=0;orthogonalLoop=1;jettySize=auto;html=1;exitX=0.5;exitY=1;exitDx=0;exitDy=0;entryX=0.5;entryY=1;entryDx=0;entryDy=0;strokeWidth=11;" parent="1" source="2msqa14-VvynCu-mgGiv-136" target="2msqa14-VvynCu-mgGiv-278" edge="1">
          <mxGeometry relative="1" as="geometry">
            <Array as="points">
              <mxPoint x="1430" y="5890" />
              <mxPoint x="4950" y="5890" />
              <mxPoint x="4950" y="5735" />
            </Array>
          </mxGeometry>
        </mxCell>
        <mxCell id="2msqa14-VvynCu-mgGiv-136" value="" style="rounded=1;whiteSpace=wrap;html=1;fontStyle=1" parent="1" vertex="1">
          <mxGeometry x="730" y="5550" width="1400" height="160" as="geometry" />
        </mxCell>
        <mxCell id="2msqa14-VvynCu-mgGiv-137" value="" style="shape=cube;whiteSpace=wrap;html=1;boundedLbl=1;backgroundOutline=1;darkOpacity=0.05;darkOpacity2=0.1;fontStyle=1;fillColor=#fff2cc;strokeColor=#d6b656;" parent="1" vertex="1">
          <mxGeometry x="780" y="5575" width="240" height="110" as="geometry" />
        </mxCell>
        <mxCell id="2msqa14-VvynCu-mgGiv-139" value="&lt;span&gt;&lt;font style=&quot;font-size: 30px;&quot;&gt;UDP DATAGRAM 1&lt;br&gt;&lt;/font&gt;&lt;/span&gt;" style="text;whiteSpace=wrap;html=1;fontStyle=1" parent="1" vertex="1">
          <mxGeometry x="810" y="5595" width="240" height="40" as="geometry" />
        </mxCell>
        <mxCell id="2msqa14-VvynCu-mgGiv-140" value="" style="shape=cube;whiteSpace=wrap;html=1;boundedLbl=1;backgroundOutline=1;darkOpacity=0.05;darkOpacity2=0.1;fontStyle=1;fillColor=#fff2cc;strokeColor=#d6b656;" parent="1" vertex="1">
          <mxGeometry x="1037" y="5575" width="273" height="110" as="geometry" />
        </mxCell>
        <mxCell id="2msqa14-VvynCu-mgGiv-141" value="&lt;span&gt;&lt;font style=&quot;font-size: 30px;&quot;&gt;UDP DATAGRAM 2&lt;br&gt;&lt;/font&gt;&lt;/span&gt;" style="text;whiteSpace=wrap;html=1;fontStyle=1" parent="1" vertex="1">
          <mxGeometry x="1080" y="5595" width="200" height="40" as="geometry" />
        </mxCell>
        <mxCell id="2msqa14-VvynCu-mgGiv-151" value="" style="rounded=1;whiteSpace=wrap;html=1;fontStyle=1" parent="1" vertex="1">
          <mxGeometry x="5800" y="85" width="520" height="475" as="geometry" />
        </mxCell>
        <mxCell id="2msqa14-VvynCu-mgGiv-152" value="" style="rounded=1;whiteSpace=wrap;html=1;fontStyle=1" parent="1" vertex="1">
          <mxGeometry x="4440" y="3535" width="460" height="265" as="geometry" />
        </mxCell>
        <mxCell id="2msqa14-VvynCu-mgGiv-153" value="&lt;font style=&quot;font-size: 20px;&quot;&gt;HTTP REQUEST 1 &lt;br&gt;&lt;/font&gt;&lt;div style=&quot;font-size: 20px;&quot;&gt;&lt;font style=&quot;font-size: 20px;&quot;&gt;&lt;br&gt;&lt;/font&gt;&lt;/div&gt;&lt;div style=&quot;font-size: 20px;&quot;&gt;&lt;font style=&quot;font-size: 20px;&quot;&gt;&lt;br&gt;&lt;/font&gt;&lt;/div&gt;&lt;div style=&quot;font-size: 20px;&quot;&gt;&lt;font style=&quot;font-size: 20px;&quot;&gt;&lt;br&gt;&lt;/font&gt;&lt;/div&gt;" style="text;whiteSpace=wrap;html=1;fontStyle=1" parent="1" vertex="1">
          <mxGeometry x="4460" y="3545" width="180" height="40" as="geometry" />
        </mxCell>
        <mxCell id="2msqa14-VvynCu-mgGiv-154" value="&lt;font style=&quot;font-size: 30px;&quot;&gt;HEADERS FRAME&lt;br&gt;&lt;/font&gt;" style="rounded=0;whiteSpace=wrap;html=1;fontStyle=1" parent="1" vertex="1">
          <mxGeometry x="4460" y="3585" width="420" height="75" as="geometry" />
        </mxCell>
        <mxCell id="2msqa14-VvynCu-mgGiv-155" value="&lt;font style=&quot;font-size: 30px;&quot;&gt;DATA FRAME&lt;br&gt;&lt;/font&gt;" style="rounded=0;whiteSpace=wrap;html=1;fontStyle=1" parent="1" vertex="1">
          <mxGeometry x="4460" y="3680" width="420" height="75" as="geometry" />
        </mxCell>
        <mxCell id="2msqa14-VvynCu-mgGiv-156" value="&lt;font style=&quot;font-size: 20px;&quot;&gt;HTTP REQUEST 2&lt;br&gt;&lt;/font&gt;&lt;div style=&quot;font-size: 20px;&quot;&gt;&lt;font style=&quot;font-size: 20px;&quot;&gt;&lt;br&gt;&lt;/font&gt;&lt;/div&gt;&lt;div style=&quot;font-size: 20px;&quot;&gt;&lt;font style=&quot;font-size: 20px;&quot;&gt;&lt;br&gt;&lt;/font&gt;&lt;/div&gt;&lt;div style=&quot;font-size: 20px;&quot;&gt;&lt;font style=&quot;font-size: 20px;&quot;&gt;&lt;br&gt;&lt;/font&gt;&lt;/div&gt;" style="text;whiteSpace=wrap;html=1;fontStyle=1" parent="1" vertex="1">
          <mxGeometry x="4950" y="3545" width="200" height="40" as="geometry" />
        </mxCell>
        <mxCell id="2msqa14-VvynCu-mgGiv-157" value="&lt;font style=&quot;font-size: 30px;&quot;&gt;HEADERS FRAME&lt;br&gt;&lt;/font&gt;" style="rounded=0;whiteSpace=wrap;html=1;fontStyle=1" parent="1" vertex="1">
          <mxGeometry x="4950" y="3585" width="420" height="75" as="geometry" />
        </mxCell>
        <mxCell id="2msqa14-VvynCu-mgGiv-158" value="&lt;font style=&quot;font-size: 30px;&quot;&gt;DATA FRAME&lt;br&gt;&lt;/font&gt;" style="rounded=0;whiteSpace=wrap;html=1;fontStyle=1" parent="1" vertex="1">
          <mxGeometry x="4950" y="3680" width="420" height="75" as="geometry" />
        </mxCell>
        <mxCell id="2msqa14-VvynCu-mgGiv-159" value="" style="rounded=1;whiteSpace=wrap;html=1;fontStyle=1" parent="1" vertex="1">
          <mxGeometry x="5845" y="270" width="460" height="265" as="geometry" />
        </mxCell>
        <mxCell id="2msqa14-VvynCu-mgGiv-160" value="&lt;div style=&quot;font-size: 20px;&quot;&gt;&lt;font style=&quot;font-size: 20px;&quot;&gt;REQUEST 1 &lt;br&gt;&lt;/font&gt;&lt;/div&gt;&lt;div style=&quot;font-size: 20px;&quot;&gt;&lt;font style=&quot;font-size: 20px;&quot;&gt;&lt;br&gt;&lt;/font&gt;&lt;/div&gt;&lt;div style=&quot;font-size: 20px;&quot;&gt;&lt;font style=&quot;font-size: 20px;&quot;&gt;&lt;br&gt;&lt;/font&gt;&lt;/div&gt;&lt;div style=&quot;font-size: 20px;&quot;&gt;&lt;font style=&quot;font-size: 20px;&quot;&gt;&lt;br&gt;&lt;/font&gt;&lt;/div&gt;" style="text;whiteSpace=wrap;html=1;fontStyle=1" parent="1" vertex="1">
          <mxGeometry x="5865" y="280" width="150" height="40" as="geometry" />
        </mxCell>
        <mxCell id="2msqa14-VvynCu-mgGiv-161" value="&lt;font style=&quot;font-size: 30px;&quot;&gt;HEADERS FRAME&lt;br&gt;&lt;/font&gt;" style="rounded=0;whiteSpace=wrap;html=1;fontStyle=1" parent="1" vertex="1">
          <mxGeometry x="5865" y="320" width="420" height="75" as="geometry" />
        </mxCell>
        <mxCell id="2msqa14-VvynCu-mgGiv-162" value="&lt;font style=&quot;font-size: 30px;&quot;&gt;DATA FRAME&lt;br&gt;&lt;/font&gt;" style="rounded=0;whiteSpace=wrap;html=1;fontStyle=1" parent="1" vertex="1">
          <mxGeometry x="5865" y="415" width="420" height="75" as="geometry" />
        </mxCell>
        <mxCell id="2msqa14-VvynCu-mgGiv-163" value="TCP Header" style="text;html=1;align=center;verticalAlign=middle;resizable=0;points=[];autosize=1;strokeColor=none;fillColor=none;fontStyle=1" parent="1" vertex="1">
          <mxGeometry x="6685" y="248" width="90" height="30" as="geometry" />
        </mxCell>
        <mxCell id="2msqa14-VvynCu-mgGiv-164" value="&lt;font style=&quot;font-size: 25px;&quot;&gt;TCP Headers&lt;br&gt;&lt;/font&gt;" style="text;whiteSpace=wrap;html=1;fontStyle=1" parent="1" vertex="1">
          <mxGeometry x="5850" y="130" width="160" height="40" as="geometry" />
        </mxCell>
        <mxCell id="2msqa14-VvynCu-mgGiv-165" value="&lt;font style=&quot;font-size: 25px;&quot;&gt;TCP Payload&lt;br&gt;&lt;/font&gt;" style="text;whiteSpace=wrap;html=1;fontStyle=1" parent="1" vertex="1">
          <mxGeometry x="5850" y="210" width="160" height="40" as="geometry" />
        </mxCell>
        <mxCell id="2msqa14-VvynCu-mgGiv-166" value="" style="line;strokeWidth=4;html=1;perimeter=backbonePerimeter;points=[];outlineConnect=0;fontStyle=1" parent="1" vertex="1">
          <mxGeometry x="5820" y="195" width="520" height="10" as="geometry" />
        </mxCell>
        <mxCell id="2msqa14-VvynCu-mgGiv-167" value="" style="rounded=1;whiteSpace=wrap;html=1;fontStyle=1" parent="1" vertex="1">
          <mxGeometry x="6370" y="95" width="510" height="475" as="geometry" />
        </mxCell>
        <mxCell id="2msqa14-VvynCu-mgGiv-168" value="" style="rounded=1;whiteSpace=wrap;html=1;fontStyle=1" parent="1" vertex="1">
          <mxGeometry x="6415" y="270" width="460" height="265" as="geometry" />
        </mxCell>
        <mxCell id="2msqa14-VvynCu-mgGiv-169" value="&lt;div style=&quot;font-size: 20px;&quot;&gt;&lt;font style=&quot;font-size: 20px;&quot;&gt;REQUEST 2&lt;br&gt;&lt;/font&gt;&lt;/div&gt;&lt;div style=&quot;font-size: 20px;&quot;&gt;&lt;font style=&quot;font-size: 20px;&quot;&gt;&lt;br&gt;&lt;/font&gt;&lt;/div&gt;&lt;div style=&quot;font-size: 20px;&quot;&gt;&lt;font style=&quot;font-size: 20px;&quot;&gt;&lt;br&gt;&lt;/font&gt;&lt;/div&gt;&lt;div style=&quot;font-size: 20px;&quot;&gt;&lt;font style=&quot;font-size: 20px;&quot;&gt;&lt;br&gt;&lt;/font&gt;&lt;/div&gt;" style="text;whiteSpace=wrap;html=1;fontStyle=1" parent="1" vertex="1">
          <mxGeometry x="6435" y="280" width="150" height="40" as="geometry" />
        </mxCell>
        <mxCell id="2msqa14-VvynCu-mgGiv-170" value="&lt;font style=&quot;font-size: 30px;&quot;&gt;HEADERS FRAME&lt;br&gt;&lt;/font&gt;" style="rounded=0;whiteSpace=wrap;html=1;fontStyle=1" parent="1" vertex="1">
          <mxGeometry x="6435" y="320" width="420" height="75" as="geometry" />
        </mxCell>
        <mxCell id="2msqa14-VvynCu-mgGiv-171" value="&lt;font style=&quot;font-size: 30px;&quot;&gt;DATA FRAME&lt;br&gt;&lt;/font&gt;" style="rounded=0;whiteSpace=wrap;html=1;fontStyle=1" parent="1" vertex="1">
          <mxGeometry x="6435" y="415" width="420" height="75" as="geometry" />
        </mxCell>
        <mxCell id="2msqa14-VvynCu-mgGiv-172" value="&lt;font style=&quot;font-size: 25px;&quot;&gt;TCP Headers&lt;br&gt;&lt;/font&gt;" style="text;whiteSpace=wrap;html=1;fontStyle=1" parent="1" vertex="1">
          <mxGeometry x="6420" y="130" width="160" height="40" as="geometry" />
        </mxCell>
        <mxCell id="2msqa14-VvynCu-mgGiv-173" value="&lt;font style=&quot;font-size: 25px;&quot;&gt;TCP Payload&lt;br&gt;&lt;/font&gt;" style="text;whiteSpace=wrap;html=1;fontStyle=1" parent="1" vertex="1">
          <mxGeometry x="6420" y="210" width="160" height="40" as="geometry" />
        </mxCell>
        <mxCell id="2msqa14-VvynCu-mgGiv-174" value="" style="line;strokeWidth=4;html=1;perimeter=backbonePerimeter;points=[];outlineConnect=0;fontStyle=1" parent="1" vertex="1">
          <mxGeometry x="6390" y="195" width="520" height="10" as="geometry" />
        </mxCell>
        <mxCell id="2msqa14-VvynCu-mgGiv-175" value="&lt;font style=&quot;font-size: 35px;&quot;&gt;TCP SEGMENT 1&lt;/font&gt;" style="text;whiteSpace=wrap;html=1;fontStyle=1" parent="1" vertex="1">
          <mxGeometry x="5820" y="20" width="300" height="40" as="geometry" />
        </mxCell>
        <mxCell id="2msqa14-VvynCu-mgGiv-176" value="&lt;font style=&quot;font-size: 35px;&quot;&gt;TCP SEGMENT 2&lt;br&gt;&lt;/font&gt;" style="text;whiteSpace=wrap;html=1;fontStyle=1" parent="1" vertex="1">
          <mxGeometry x="6390" y="20" width="300" height="40" as="geometry" />
        </mxCell>
        <mxCell id="2msqa14-VvynCu-mgGiv-178" value="&lt;div align=&quot;center&quot; style=&quot;font-size: 100px;&quot;&gt;&lt;font style=&quot;font-size: 100px;&quot;&gt;HTTP/3 QPACK OVERVIEW&lt;br&gt;&lt;/font&gt;&lt;/div&gt;" style="text;whiteSpace=wrap;html=1;align=center;fontStyle=1" parent="1" vertex="1">
          <mxGeometry x="2620" y="6013" width="1300" height="75" as="geometry" />
        </mxCell>
        <mxCell id="2msqa14-VvynCu-mgGiv-181" value="&lt;font style=&quot;font-size: 40px;&quot;&gt;STATIC TABLE&lt;/font&gt;" style="text;html=1;align=center;verticalAlign=middle;resizable=0;points=[];autosize=1;strokeColor=none;fillColor=none;strokeWidth=1;fontStyle=1" parent="1" vertex="1">
          <mxGeometry x="1295" y="3080" width="290" height="60" as="geometry" />
        </mxCell>
        <mxCell id="2msqa14-VvynCu-mgGiv-182" value="&lt;div style=&quot;font-size: 20px;&quot;&gt;&lt;font style=&quot;font-size: 20px;&quot;&gt;.&lt;/font&gt;&lt;/div&gt;&lt;div style=&quot;font-size: 20px;&quot;&gt;&lt;font style=&quot;font-size: 20px;&quot;&gt;.&lt;/font&gt;&lt;/div&gt;&lt;div style=&quot;font-size: 20px;&quot;&gt;&lt;font style=&quot;font-size: 20px;&quot;&gt;&lt;br&gt;&lt;/font&gt;&lt;/div&gt;" style="rounded=0;whiteSpace=wrap;html=1;strokeWidth=1;fontStyle=1" parent="1" vertex="1">
          <mxGeometry x="1220" y="3160" width="840" height="240" as="geometry" />
        </mxCell>
        <mxCell id="2msqa14-VvynCu-mgGiv-183" value="&lt;font style=&quot;font-size: 46px;&quot;&gt;0&lt;span style=&quot;white-space: pre;&quot;&gt;&#x9;&lt;/span&gt;:authority&lt;/font&gt;" style="text;html=1;align=center;verticalAlign=middle;resizable=0;points=[];autosize=1;strokeColor=none;fillColor=none;strokeWidth=1;fontStyle=1" parent="1" vertex="1">
          <mxGeometry x="1280" y="3192.5" width="270" height="70" as="geometry" />
        </mxCell>
        <mxCell id="2msqa14-VvynCu-mgGiv-184" value="&lt;font style=&quot;font-size: 46px;&quot;&gt;98&lt;span style=&quot;white-space: pre;&quot;&gt;&#x9;&lt;/span&gt;frame-options&lt;span style=&quot;white-space: pre;&quot;&gt;&#x9;&lt;/span&gt;sameorigin&lt;/font&gt;" style="text;html=1;align=center;verticalAlign=middle;resizable=0;points=[];autosize=1;strokeColor=none;fillColor=none;strokeWidth=1;fontStyle=1" parent="1" vertex="1">
          <mxGeometry x="1265" y="3310" width="650" height="70" as="geometry" />
        </mxCell>
        <mxCell id="2msqa14-VvynCu-mgGiv-185" value="&lt;font style=&quot;font-size: 40px;&quot;&gt;DYNAMIC TABLE&lt;/font&gt;" style="text;html=1;align=center;verticalAlign=middle;resizable=0;points=[];autosize=1;strokeColor=none;fillColor=none;strokeWidth=1;fontStyle=1" parent="1" vertex="1">
          <mxGeometry x="1295" y="3392.5" width="340" height="60" as="geometry" />
        </mxCell>
        <mxCell id="2msqa14-VvynCu-mgGiv-186" style="edgeStyle=orthogonalEdgeStyle;rounded=0;orthogonalLoop=1;jettySize=auto;html=1;exitX=0.5;exitY=1;exitDx=0;exitDy=0;entryX=1;entryY=0.5;entryDx=0;entryDy=0;fontStyle=1" parent="1" source="2msqa14-VvynCu-mgGiv-187" target="2msqa14-VvynCu-mgGiv-114" edge="1">
          <mxGeometry relative="1" as="geometry" />
        </mxCell>
        <mxCell id="2msqa14-VvynCu-mgGiv-187" value="" style="rounded=0;whiteSpace=wrap;html=1;strokeWidth=1;fontStyle=1" parent="1" vertex="1">
          <mxGeometry x="1220" y="3462.5" width="840" height="77.5" as="geometry" />
        </mxCell>
        <mxCell id="2msqa14-VvynCu-mgGiv-188" value="&lt;font style=&quot;font-size: 46px;&quot;&gt;0&lt;span style=&quot;white-space: pre;&quot;&gt;&#x9;&lt;/span&gt;referer&lt;span style=&quot;white-space: pre;&quot;&gt;&#x9;&lt;/span&gt;https://www.zoho.com&lt;/font&gt;" style="text;html=1;align=center;verticalAlign=middle;resizable=0;points=[];autosize=1;strokeColor=none;fillColor=none;strokeWidth=1;fontStyle=1" parent="1" vertex="1">
          <mxGeometry x="1265" y="3462.5" width="680" height="70" as="geometry" />
        </mxCell>
        <mxCell id="2msqa14-VvynCu-mgGiv-189" style="edgeStyle=orthogonalEdgeStyle;rounded=0;orthogonalLoop=1;jettySize=auto;html=1;exitX=1;exitY=0.5;exitDx=0;exitDy=0;entryX=-0.019;entryY=0.44;entryDx=0;entryDy=0;entryPerimeter=0;fontStyle=1" parent="1" source="2msqa14-VvynCu-mgGiv-110" target="2msqa14-VvynCu-mgGiv-188" edge="1">
          <mxGeometry relative="1" as="geometry">
            <Array as="points">
              <mxPoint x="865" y="3655.5" />
              <mxPoint x="865" y="3342.5" />
              <mxPoint x="1175" y="3342.5" />
              <mxPoint x="1175" y="3499.5" />
            </Array>
          </mxGeometry>
        </mxCell>
        <mxCell id="2msqa14-VvynCu-mgGiv-190" value="&lt;font style=&quot;font-size: 46px;&quot;&gt;HTTP REQUEST 2 REFERENCED THIS ENTRY &lt;br&gt;&lt;/font&gt;" style="text;whiteSpace=wrap;html=1;fontStyle=1" parent="1" vertex="1">
          <mxGeometry x="1345" y="3667.5" width="1035" height="50" as="geometry" />
        </mxCell>
        <mxCell id="2msqa14-VvynCu-mgGiv-191" value="&lt;font style=&quot;font-size: 46px;&quot;&gt;HTTP REQUEST 1 ADDED THIS ENTRY &lt;br&gt;&lt;/font&gt;" style="text;whiteSpace=wrap;html=1;fontStyle=1" parent="1" vertex="1">
          <mxGeometry x="607.5" y="3212.5" width="575" height="50" as="geometry" />
        </mxCell>
        <mxCell id="2msqa14-VvynCu-mgGiv-193" value="&lt;div style=&quot;font-size: 100px;&quot; align=&quot;center&quot;&gt;&lt;font style=&quot;font-size: 100px;&quot;&gt;ENCODER SIDE&lt;br&gt;&lt;/font&gt;&lt;/div&gt;" style="text;whiteSpace=wrap;html=1;fontStyle=1" parent="1" vertex="1">
          <mxGeometry x="612.5" y="2800" width="835" height="180" as="geometry" />
        </mxCell>
        <mxCell id="2msqa14-VvynCu-mgGiv-194" value="&lt;div align=&quot;center&quot; style=&quot;font-size: 100px;&quot;&gt;&lt;font style=&quot;font-size: 100px;&quot;&gt;DECODER SIDE&lt;br&gt;&lt;/font&gt;&lt;/div&gt;" style="text;whiteSpace=wrap;html=1;fontStyle=1" parent="1" vertex="1">
          <mxGeometry x="5075" y="2910" width="790" height="160" as="geometry" />
        </mxCell>
        <mxCell id="2msqa14-VvynCu-mgGiv-197" value="&lt;font style=&quot;font-size: 60px;&quot;&gt;&lt;b&gt;STREAM &lt;br&gt;&lt;/b&gt;&lt;/font&gt;" style="text;whiteSpace=wrap;html=1;" parent="1" vertex="1">
          <mxGeometry x="1490" y="4520" width="480" height="60" as="geometry" />
        </mxCell>
        <mxCell id="2msqa14-VvynCu-mgGiv-198" value="&lt;font style=&quot;font-size: 40px;&quot;&gt;&lt;b&gt;Stream Id 3&lt;br&gt;&lt;/b&gt;&lt;/font&gt;" style="text;whiteSpace=wrap;html=1;" parent="1" vertex="1">
          <mxGeometry x="1500" y="4593" width="345" height="80" as="geometry" />
        </mxCell>
        <mxCell id="2msqa14-VvynCu-mgGiv-200" value="&lt;font style=&quot;font-size: 60px;&quot;&gt;&lt;b&gt;QUIC HEADERS &lt;br&gt;&lt;/b&gt;&lt;/font&gt;" style="text;whiteSpace=wrap;html=1;" parent="1" vertex="1">
          <mxGeometry x="1472.5" y="4300" width="520" height="100" as="geometry" />
        </mxCell>
        <mxCell id="2msqa14-VvynCu-mgGiv-201" value="" style="line;strokeWidth=4;html=1;perimeter=backbonePerimeter;points=[];outlineConnect=0;" parent="1" vertex="1">
          <mxGeometry x="1415" y="4410" width="635" height="10" as="geometry" />
        </mxCell>
        <mxCell id="2msqa14-VvynCu-mgGiv-202" value="&lt;font style=&quot;font-size: 60px;&quot;&gt;&lt;b&gt;QUIC PAYLOAD&lt;br&gt;&lt;/b&gt;&lt;/font&gt;" style="text;whiteSpace=wrap;html=1;" parent="1" vertex="1">
          <mxGeometry x="1472.5" y="4420" width="490" height="100" as="geometry" />
        </mxCell>
        <mxCell id="2msqa14-VvynCu-mgGiv-208" value="" style="rounded=1;whiteSpace=wrap;html=1;fillColor=#fff2cc;strokeColor=#d6b656;" parent="1" vertex="1">
          <mxGeometry x="2255" y="4018" width="740" height="1040" as="geometry" />
        </mxCell>
        <mxCell id="2msqa14-VvynCu-mgGiv-205" value="&lt;font style=&quot;font-size: 60px;&quot;&gt;&lt;b&gt;UDP HEADERS&lt;br&gt;&lt;/b&gt;&lt;/font&gt;" style="text;whiteSpace=wrap;html=1;" parent="1" vertex="1">
          <mxGeometry x="1435" y="4047.5" width="490" height="100" as="geometry" />
        </mxCell>
        <mxCell id="2msqa14-VvynCu-mgGiv-206" value="" style="line;strokeWidth=4;html=1;perimeter=backbonePerimeter;points=[];outlineConnect=0;" parent="1" vertex="1">
          <mxGeometry x="1370" y="4142.5" width="740" height="10" as="geometry" />
        </mxCell>
        <mxCell id="2msqa14-VvynCu-mgGiv-207" value="&lt;font style=&quot;font-size: 60px;&quot;&gt;&lt;b&gt;UDP PAYLOAD&lt;br&gt;&lt;/b&gt;&lt;/font&gt;" style="text;whiteSpace=wrap;html=1;" parent="1" vertex="1">
          <mxGeometry x="1435" y="4155" width="490" height="100" as="geometry" />
        </mxCell>
        <mxCell id="2msqa14-VvynCu-mgGiv-209" value="" style="rounded=1;whiteSpace=wrap;html=1;fillColor=#dae8fc;strokeColor=#6c8ebf;" parent="1" vertex="1">
          <mxGeometry x="2300" y="4248" width="635" height="770" as="geometry" />
        </mxCell>
        <mxCell id="2msqa14-VvynCu-mgGiv-210" value="" style="rounded=0;whiteSpace=wrap;html=1;fillColor=#f8cecc;strokeColor=#b85450;" parent="1" vertex="1">
          <mxGeometry x="2360" y="4508" width="525" height="460" as="geometry" />
        </mxCell>
        <mxCell id="2msqa14-VvynCu-mgGiv-211" value="" style="rounded=1;whiteSpace=wrap;html=1;fontStyle=1" parent="1" vertex="1">
          <mxGeometry x="2385" y="4661" width="460" height="265" as="geometry" />
        </mxCell>
        <mxCell id="2msqa14-VvynCu-mgGiv-212" value="&lt;div style=&quot;font-size: 20px;&quot;&gt;&lt;font style=&quot;font-size: 20px;&quot;&gt;REQUEST 2&lt;br&gt;&lt;/font&gt;&lt;/div&gt;" style="text;whiteSpace=wrap;html=1;fontStyle=1" parent="1" vertex="1">
          <mxGeometry x="2405" y="4671" width="150" height="40" as="geometry" />
        </mxCell>
        <mxCell id="2msqa14-VvynCu-mgGiv-213" value="&lt;font style=&quot;font-size: 30px;&quot;&gt;HEADERS FRAME&lt;br&gt;&lt;/font&gt;" style="rounded=0;whiteSpace=wrap;html=1;fontStyle=1" parent="1" vertex="1">
          <mxGeometry x="2405" y="4711" width="420" height="75" as="geometry" />
        </mxCell>
        <mxCell id="2msqa14-VvynCu-mgGiv-214" value="&lt;font style=&quot;font-size: 30px;&quot;&gt;DATA FRAME&lt;br&gt;&lt;/font&gt;" style="rounded=0;whiteSpace=wrap;html=1;fontStyle=1" parent="1" vertex="1">
          <mxGeometry x="2405" y="4806" width="420" height="75" as="geometry" />
        </mxCell>
        <mxCell id="2msqa14-VvynCu-mgGiv-215" value="&lt;font style=&quot;font-size: 60px;&quot;&gt;&lt;b&gt;STREAM &lt;br&gt;&lt;/b&gt;&lt;/font&gt;" style="text;whiteSpace=wrap;html=1;" parent="1" vertex="1">
          <mxGeometry x="2375" y="4508" width="480" height="60" as="geometry" />
        </mxCell>
        <mxCell id="2msqa14-VvynCu-mgGiv-216" value="&lt;font style=&quot;font-size: 40px;&quot;&gt;&lt;b&gt;Stream Id 5&lt;br&gt;&lt;/b&gt;&lt;/font&gt;" style="text;whiteSpace=wrap;html=1;" parent="1" vertex="1">
          <mxGeometry x="2385" y="4581" width="345" height="80" as="geometry" />
        </mxCell>
        <mxCell id="2msqa14-VvynCu-mgGiv-217" value="&lt;font style=&quot;font-size: 60px;&quot;&gt;&lt;b&gt;QUIC HEADERS &lt;br&gt;&lt;/b&gt;&lt;/font&gt;" style="text;whiteSpace=wrap;html=1;" parent="1" vertex="1">
          <mxGeometry x="2357.5" y="4288" width="520" height="100" as="geometry" />
        </mxCell>
        <mxCell id="2msqa14-VvynCu-mgGiv-218" value="" style="line;strokeWidth=4;html=1;perimeter=backbonePerimeter;points=[];outlineConnect=0;" parent="1" vertex="1">
          <mxGeometry x="2300" y="4398" width="635" height="10" as="geometry" />
        </mxCell>
        <mxCell id="2msqa14-VvynCu-mgGiv-219" value="&lt;font style=&quot;font-size: 60px;&quot;&gt;&lt;b&gt;QUIC PAYLOAD&lt;br&gt;&lt;/b&gt;&lt;/font&gt;" style="text;whiteSpace=wrap;html=1;" parent="1" vertex="1">
          <mxGeometry x="2357.5" y="4408" width="490" height="100" as="geometry" />
        </mxCell>
        <mxCell id="2msqa14-VvynCu-mgGiv-220" value="&lt;font style=&quot;font-size: 60px;&quot;&gt;&lt;b&gt;UDP HEADERS&lt;br&gt;&lt;/b&gt;&lt;/font&gt;" style="text;whiteSpace=wrap;html=1;" parent="1" vertex="1">
          <mxGeometry x="2320" y="4035.5" width="490" height="100" as="geometry" />
        </mxCell>
        <mxCell id="2msqa14-VvynCu-mgGiv-221" value="" style="line;strokeWidth=4;html=1;perimeter=backbonePerimeter;points=[];outlineConnect=0;" parent="1" vertex="1">
          <mxGeometry x="2255" y="4130.5" width="740" height="10" as="geometry" />
        </mxCell>
        <mxCell id="2msqa14-VvynCu-mgGiv-222" value="&lt;font style=&quot;font-size: 60px;&quot;&gt;&lt;b&gt;UDP PAYLOAD&lt;br&gt;&lt;/b&gt;&lt;/font&gt;" style="text;whiteSpace=wrap;html=1;" parent="1" vertex="1">
          <mxGeometry x="2320" y="4143" width="490" height="100" as="geometry" />
        </mxCell>
        <mxCell id="2msqa14-VvynCu-mgGiv-223" value="" style="rounded=1;whiteSpace=wrap;html=1;fillColor=#fff2cc;strokeColor=#d6b656;" parent="1" vertex="1">
          <mxGeometry x="-230" y="4040" width="740" height="1040" as="geometry" />
        </mxCell>
        <mxCell id="2msqa14-VvynCu-mgGiv-224" value="" style="rounded=1;whiteSpace=wrap;html=1;fillColor=#dae8fc;strokeColor=#6c8ebf;" parent="1" vertex="1">
          <mxGeometry x="-185" y="4270" width="635" height="770" as="geometry" />
        </mxCell>
        <mxCell id="2msqa14-VvynCu-mgGiv-225" value="" style="rounded=0;whiteSpace=wrap;html=1;fillColor=#f8cecc;strokeColor=#b85450;" parent="1" vertex="1">
          <mxGeometry x="-125" y="4530" width="525" height="460" as="geometry" />
        </mxCell>
        <mxCell id="2msqa14-VvynCu-mgGiv-226" value="" style="rounded=1;whiteSpace=wrap;html=1;fontStyle=1" parent="1" vertex="1">
          <mxGeometry x="-100" y="4683" width="460" height="265" as="geometry" />
        </mxCell>
        <mxCell id="2msqa14-VvynCu-mgGiv-227" value="&lt;font style=&quot;font-size: 24px;&quot;&gt;QPACK STREAMS&lt;/font&gt;" style="text;whiteSpace=wrap;html=1;fontStyle=1" parent="1" vertex="1">
          <mxGeometry x="-80" y="4693" width="230" height="40" as="geometry" />
        </mxCell>
        <mxCell id="2msqa14-VvynCu-mgGiv-228" value="&lt;font style=&quot;font-size: 30px;&quot;&gt;ENCODER STREAM CREATION&lt;br&gt;&lt;/font&gt;" style="rounded=0;whiteSpace=wrap;html=1;fontStyle=1;fillColor=#d80073;fontColor=#ffffff;strokeColor=#A50040;" parent="1" vertex="1">
          <mxGeometry x="-80" y="4733" width="420" height="75" as="geometry" />
        </mxCell>
        <mxCell id="2msqa14-VvynCu-mgGiv-229" value="&lt;font style=&quot;font-size: 30px;&quot;&gt;DECODER STREAM CREATION&lt;br&gt;&lt;/font&gt;" style="rounded=0;whiteSpace=wrap;html=1;fontStyle=1;fillColor=#6a00ff;fontColor=#ffffff;strokeColor=#3700CC;" parent="1" vertex="1">
          <mxGeometry x="-80" y="4828" width="420" height="75" as="geometry" />
        </mxCell>
        <mxCell id="2msqa14-VvynCu-mgGiv-230" value="&lt;font style=&quot;font-size: 60px;&quot;&gt;&lt;b&gt;STREAM &lt;br&gt;&lt;/b&gt;&lt;/font&gt;" style="text;whiteSpace=wrap;html=1;" parent="1" vertex="1">
          <mxGeometry x="-110" y="4530" width="480" height="60" as="geometry" />
        </mxCell>
        <mxCell id="2msqa14-VvynCu-mgGiv-231" value="&lt;font style=&quot;font-size: 40px;&quot;&gt;&lt;b&gt;Stream Id 1&lt;br&gt;&lt;/b&gt;&lt;/font&gt;" style="text;whiteSpace=wrap;html=1;" parent="1" vertex="1">
          <mxGeometry x="-100" y="4603" width="345" height="80" as="geometry" />
        </mxCell>
        <mxCell id="2msqa14-VvynCu-mgGiv-232" value="&lt;font style=&quot;font-size: 60px;&quot;&gt;&lt;b&gt;QUIC HEADERS &lt;br&gt;&lt;/b&gt;&lt;/font&gt;" style="text;whiteSpace=wrap;html=1;" parent="1" vertex="1">
          <mxGeometry x="-127.5" y="4310" width="520" height="100" as="geometry" />
        </mxCell>
        <mxCell id="2msqa14-VvynCu-mgGiv-233" value="" style="line;strokeWidth=4;html=1;perimeter=backbonePerimeter;points=[];outlineConnect=0;" parent="1" vertex="1">
          <mxGeometry x="-185" y="4420" width="635" height="10" as="geometry" />
        </mxCell>
        <mxCell id="2msqa14-VvynCu-mgGiv-234" value="&lt;font style=&quot;font-size: 60px;&quot;&gt;&lt;b&gt;QUIC PAYLOAD&lt;br&gt;&lt;/b&gt;&lt;/font&gt;" style="text;whiteSpace=wrap;html=1;" parent="1" vertex="1">
          <mxGeometry x="-127.5" y="4430" width="490" height="100" as="geometry" />
        </mxCell>
        <mxCell id="2msqa14-VvynCu-mgGiv-235" value="&lt;font style=&quot;font-size: 60px;&quot;&gt;&lt;b&gt;UDP HEADERS&lt;br&gt;&lt;/b&gt;&lt;/font&gt;" style="text;whiteSpace=wrap;html=1;" parent="1" vertex="1">
          <mxGeometry x="-165" y="4057.5" width="490" height="100" as="geometry" />
        </mxCell>
        <mxCell id="2msqa14-VvynCu-mgGiv-236" value="" style="line;strokeWidth=4;html=1;perimeter=backbonePerimeter;points=[];outlineConnect=0;" parent="1" vertex="1">
          <mxGeometry x="-230" y="4152.5" width="740" height="10" as="geometry" />
        </mxCell>
        <mxCell id="2msqa14-VvynCu-mgGiv-237" value="&lt;font style=&quot;font-size: 60px;&quot;&gt;&lt;b&gt;UDP PAYLOAD&lt;br&gt;&lt;/b&gt;&lt;/font&gt;" style="text;whiteSpace=wrap;html=1;" parent="1" vertex="1">
          <mxGeometry x="-165" y="4165" width="490" height="100" as="geometry" />
        </mxCell>
        <mxCell id="2msqa14-VvynCu-mgGiv-239" value="&lt;font style=&quot;font-size: 35px;&quot;&gt;UDP DATAGRAM 3&lt;br&gt;&lt;/font&gt;" style="text;whiteSpace=wrap;html=1;fontStyle=1" parent="1" vertex="1">
          <mxGeometry x="1390" y="3935" width="370" height="40" as="geometry" />
        </mxCell>
        <mxCell id="2msqa14-VvynCu-mgGiv-249" value="" style="rounded=1;whiteSpace=wrap;html=1;fillColor=#fff2cc;strokeColor=#d6b656;" parent="1" vertex="1">
          <mxGeometry x="567.5" y="4057.5" width="740" height="1012.5" as="geometry" />
        </mxCell>
        <mxCell id="2msqa14-VvynCu-mgGiv-250" value="" style="rounded=1;whiteSpace=wrap;html=1;fillColor=#dae8fc;strokeColor=#6c8ebf;" parent="1" vertex="1">
          <mxGeometry x="612.5" y="4287.5" width="635" height="732.5" as="geometry" />
        </mxCell>
        <mxCell id="2msqa14-VvynCu-mgGiv-251" value="" style="rounded=0;whiteSpace=wrap;html=1;fillColor=#f8cecc;strokeColor=#b85450;" parent="1" vertex="1">
          <mxGeometry x="660" y="4550" width="550" height="390" as="geometry" />
        </mxCell>
        <mxCell id="2msqa14-VvynCu-mgGiv-252" value="" style="rounded=1;whiteSpace=wrap;html=1;fontStyle=1" parent="1" vertex="1">
          <mxGeometry x="697.5" y="4700.5" width="460" height="169.5" as="geometry" />
        </mxCell>
        <mxCell id="2msqa14-VvynCu-mgGiv-253" value="&lt;div style=&quot;font-size: 20px;&quot;&gt;QPACK STREAMS&lt;font style=&quot;font-size: 20px;&quot;&gt;&lt;br&gt;&lt;/font&gt;&lt;/div&gt;" style="text;whiteSpace=wrap;html=1;fontStyle=1" parent="1" vertex="1">
          <mxGeometry x="717.5" y="4710.5" width="222.5" height="40" as="geometry" />
        </mxCell>
        <mxCell id="2msqa14-VvynCu-mgGiv-256" value="&lt;font style=&quot;font-size: 60px;&quot;&gt;&lt;b&gt;STREAM &lt;br&gt;&lt;/b&gt;&lt;/font&gt;" style="text;whiteSpace=wrap;html=1;" parent="1" vertex="1">
          <mxGeometry x="687.5" y="4547.5" width="480" height="60" as="geometry" />
        </mxCell>
        <mxCell id="2msqa14-VvynCu-mgGiv-257" value="&lt;font style=&quot;font-size: 40px;&quot;&gt;&lt;b&gt;Stream Id 3&lt;br&gt;&lt;/b&gt;&lt;/font&gt;" style="text;whiteSpace=wrap;html=1;" parent="1" vertex="1">
          <mxGeometry x="697.5" y="4620.5" width="345" height="80" as="geometry" />
        </mxCell>
        <mxCell id="2msqa14-VvynCu-mgGiv-258" value="&lt;font style=&quot;font-size: 60px;&quot;&gt;&lt;b&gt;QUIC HEADERS &lt;br&gt;&lt;/b&gt;&lt;/font&gt;" style="text;whiteSpace=wrap;html=1;" parent="1" vertex="1">
          <mxGeometry x="670" y="4327.5" width="520" height="100" as="geometry" />
        </mxCell>
        <mxCell id="2msqa14-VvynCu-mgGiv-259" value="" style="line;strokeWidth=4;html=1;perimeter=backbonePerimeter;points=[];outlineConnect=0;" parent="1" vertex="1">
          <mxGeometry x="612.5" y="4437.5" width="635" height="10" as="geometry" />
        </mxCell>
        <mxCell id="2msqa14-VvynCu-mgGiv-260" value="&lt;font style=&quot;font-size: 60px;&quot;&gt;&lt;b&gt;QUIC PAYLOAD&lt;br&gt;&lt;/b&gt;&lt;/font&gt;" style="text;whiteSpace=wrap;html=1;" parent="1" vertex="1">
          <mxGeometry x="670" y="4447.5" width="490" height="100" as="geometry" />
        </mxCell>
        <mxCell id="2msqa14-VvynCu-mgGiv-261" value="&lt;font style=&quot;font-size: 60px;&quot;&gt;&lt;b&gt;UDP HEADERS&lt;br&gt;&lt;/b&gt;&lt;/font&gt;" style="text;whiteSpace=wrap;html=1;" parent="1" vertex="1">
          <mxGeometry x="632.5" y="4075" width="490" height="100" as="geometry" />
        </mxCell>
        <mxCell id="2msqa14-VvynCu-mgGiv-262" value="" style="line;strokeWidth=4;html=1;perimeter=backbonePerimeter;points=[];outlineConnect=0;" parent="1" vertex="1">
          <mxGeometry x="567.5" y="4170" width="740" height="10" as="geometry" />
        </mxCell>
        <mxCell id="2msqa14-VvynCu-mgGiv-263" value="&lt;font style=&quot;font-size: 60px;&quot;&gt;&lt;b&gt;UDP PAYLOAD&lt;br&gt;&lt;/b&gt;&lt;/font&gt;" style="text;whiteSpace=wrap;html=1;" parent="1" vertex="1">
          <mxGeometry x="632.5" y="4182.5" width="490" height="100" as="geometry" />
        </mxCell>
        <mxCell id="2msqa14-VvynCu-mgGiv-416" style="edgeStyle=orthogonalEdgeStyle;rounded=0;orthogonalLoop=1;jettySize=auto;html=1;exitX=0.5;exitY=1;exitDx=0;exitDy=0;fillColor=#d80073;strokeColor=#A50040;strokeWidth=7;" parent="1" source="2msqa14-VvynCu-mgGiv-264" edge="1">
          <mxGeometry relative="1" as="geometry">
            <mxPoint x="910" y="5290" as="targetPoint" />
            <Array as="points">
              <mxPoint x="910" y="4825" />
            </Array>
          </mxGeometry>
        </mxCell>
        <mxCell id="2msqa14-VvynCu-mgGiv-264" value="&lt;div&gt;&lt;font style=&quot;font-size: 30px;&quot;&gt;ENCODER STREAM INST.&lt;/font&gt;&lt;/div&gt;&lt;div&gt;&lt;font style=&quot;font-size: 30px;&quot;&gt;Insert with Literal Name &lt;br&gt;&lt;/font&gt;&lt;/div&gt;" style="rounded=0;whiteSpace=wrap;html=1;fontStyle=1;fillColor=#d80073;fontColor=#ffffff;strokeColor=#A50040;" parent="1" vertex="1">
          <mxGeometry x="717.5" y="4750.5" width="420" height="75" as="geometry" />
        </mxCell>
        <mxCell id="2msqa14-VvynCu-mgGiv-265" style="edgeStyle=orthogonalEdgeStyle;rounded=0;orthogonalLoop=1;jettySize=auto;html=1;exitX=1;exitY=0.75;exitDx=0;exitDy=0;entryX=0;entryY=0.5;entryDx=0;entryDy=0;" parent="1" source="2msqa14-VvynCu-mgGiv-112" target="2msqa14-VvynCu-mgGiv-211" edge="1">
          <mxGeometry relative="1" as="geometry">
            <Array as="points">
              <mxPoint x="2180" y="3766" />
              <mxPoint x="2180" y="4793" />
            </Array>
          </mxGeometry>
        </mxCell>
        <mxCell id="2msqa14-VvynCu-mgGiv-266" value="&lt;font style=&quot;font-size: 40px;&quot;&gt;&lt;b&gt;&lt;br&gt;&lt;/b&gt;&lt;/font&gt;" style="text;whiteSpace=wrap;html=1;" parent="1" vertex="1">
          <mxGeometry x="2070" y="5360" width="250" height="70" as="geometry" />
        </mxCell>
        <mxCell id="2msqa14-VvynCu-mgGiv-268" value="&lt;font style=&quot;font-size: 35px;&quot;&gt;UDP DATAGRAM 4&lt;br&gt;&lt;/font&gt;" style="text;whiteSpace=wrap;html=1;fontStyle=1" parent="1" vertex="1">
          <mxGeometry x="2270" y="3933" width="370" height="40" as="geometry" />
        </mxCell>
        <mxCell id="2msqa14-VvynCu-mgGiv-270" value="" style="shape=cube;whiteSpace=wrap;html=1;boundedLbl=1;backgroundOutline=1;darkOpacity=0.05;darkOpacity2=0.1;fontStyle=1;fillColor=#fff2cc;strokeColor=#d6b656;" parent="1" vertex="1">
          <mxGeometry x="1325" y="5575" width="240" height="110" as="geometry" />
        </mxCell>
        <mxCell id="2msqa14-VvynCu-mgGiv-271" value="&lt;span&gt;&lt;font style=&quot;font-size: 30px;&quot;&gt;UDP DATAGRAM 3&lt;br&gt;&lt;/font&gt;&lt;/span&gt;" style="text;whiteSpace=wrap;html=1;fontStyle=1" parent="1" vertex="1">
          <mxGeometry x="1355" y="5595" width="240" height="40" as="geometry" />
        </mxCell>
        <mxCell id="2msqa14-VvynCu-mgGiv-272" value="" style="shape=cube;whiteSpace=wrap;html=1;boundedLbl=1;backgroundOutline=1;darkOpacity=0.05;darkOpacity2=0.1;fontStyle=1;fillColor=#fff2cc;strokeColor=#d6b656;" parent="1" vertex="1">
          <mxGeometry x="1582" y="5575" width="273" height="110" as="geometry" />
        </mxCell>
        <mxCell id="2msqa14-VvynCu-mgGiv-273" value="&lt;span&gt;&lt;font style=&quot;font-size: 30px;&quot;&gt;UDP DATAGRAM 4&lt;br&gt;&lt;/font&gt;&lt;/span&gt;" style="text;whiteSpace=wrap;html=1;fontStyle=1" parent="1" vertex="1">
          <mxGeometry x="1625" y="5595" width="200" height="40" as="geometry" />
        </mxCell>
        <mxCell id="2msqa14-VvynCu-mgGiv-274" style="edgeStyle=orthogonalEdgeStyle;rounded=0;orthogonalLoop=1;jettySize=auto;html=1;exitX=0.5;exitY=1;exitDx=0;exitDy=0;entryX=0;entryY=0;entryDx=0;entryDy=45;entryPerimeter=0;" parent="1" source="2msqa14-VvynCu-mgGiv-223" target="2msqa14-VvynCu-mgGiv-137" edge="1">
          <mxGeometry relative="1" as="geometry" />
        </mxCell>
        <mxCell id="2msqa14-VvynCu-mgGiv-275" style="edgeStyle=orthogonalEdgeStyle;rounded=0;orthogonalLoop=1;jettySize=auto;html=1;exitX=0.5;exitY=1;exitDx=0;exitDy=0;entryX=0;entryY=0;entryDx=126.5;entryDy=0;entryPerimeter=0;" parent="1" source="2msqa14-VvynCu-mgGiv-249" target="2msqa14-VvynCu-mgGiv-140" edge="1">
          <mxGeometry relative="1" as="geometry" />
        </mxCell>
        <mxCell id="2msqa14-VvynCu-mgGiv-276" style="edgeStyle=orthogonalEdgeStyle;rounded=0;orthogonalLoop=1;jettySize=auto;html=1;exitX=0.5;exitY=1;exitDx=0;exitDy=0;entryX=0;entryY=0;entryDx=110.00000000000001;entryDy=0;entryPerimeter=0;" parent="1" source="2msqa14-VvynCu-mgGiv-204" target="2msqa14-VvynCu-mgGiv-270" edge="1">
          <mxGeometry relative="1" as="geometry" />
        </mxCell>
        <mxCell id="2msqa14-VvynCu-mgGiv-277" style="edgeStyle=orthogonalEdgeStyle;rounded=0;orthogonalLoop=1;jettySize=auto;html=1;exitX=0.5;exitY=1;exitDx=0;exitDy=0;entryX=0.39;entryY=-0.118;entryDx=0;entryDy=0;entryPerimeter=0;" parent="1" source="2msqa14-VvynCu-mgGiv-208" target="2msqa14-VvynCu-mgGiv-273" edge="1">
          <mxGeometry relative="1" as="geometry" />
        </mxCell>
        <mxCell id="2msqa14-VvynCu-mgGiv-278" value="" style="rounded=1;whiteSpace=wrap;html=1;fontStyle=1" parent="1" vertex="1">
          <mxGeometry x="4265" y="5575" width="1400" height="160" as="geometry" />
        </mxCell>
        <mxCell id="2msqa14-VvynCu-mgGiv-420" style="edgeStyle=orthogonalEdgeStyle;rounded=0;orthogonalLoop=1;jettySize=auto;html=1;exitX=0;exitY=0;exitDx=0;exitDy=45;exitPerimeter=0;" parent="1" source="2msqa14-VvynCu-mgGiv-279" edge="1">
          <mxGeometry relative="1" as="geometry">
            <mxPoint x="4340" y="5070" as="targetPoint" />
          </mxGeometry>
        </mxCell>
        <mxCell id="2msqa14-VvynCu-mgGiv-279" value="" style="shape=cube;whiteSpace=wrap;html=1;boundedLbl=1;backgroundOutline=1;darkOpacity=0.05;darkOpacity2=0.1;fontStyle=1;fillColor=#fff2cc;strokeColor=#d6b656;" parent="1" vertex="1">
          <mxGeometry x="4300" y="5595" width="240" height="110" as="geometry" />
        </mxCell>
        <mxCell id="2msqa14-VvynCu-mgGiv-280" value="&lt;span&gt;&lt;font style=&quot;font-size: 30px;&quot;&gt;UDP DATAGRAM 1&lt;br&gt;&lt;/font&gt;&lt;/span&gt;" style="text;whiteSpace=wrap;html=1;fontStyle=1" parent="1" vertex="1">
          <mxGeometry x="4330" y="5615" width="240" height="40" as="geometry" />
        </mxCell>
        <mxCell id="2msqa14-VvynCu-mgGiv-281" value="" style="shape=cube;whiteSpace=wrap;html=1;boundedLbl=1;backgroundOutline=1;darkOpacity=0.05;darkOpacity2=0.1;fontStyle=1;fillColor=#fff2cc;strokeColor=#d6b656;" parent="1" vertex="1">
          <mxGeometry x="4557" y="5595" width="273" height="110" as="geometry" />
        </mxCell>
        <mxCell id="2msqa14-VvynCu-mgGiv-282" value="&lt;span&gt;&lt;font style=&quot;font-size: 30px;&quot;&gt;UDP DATAGRAM 3&lt;br&gt;&lt;/font&gt;&lt;/span&gt;" style="text;whiteSpace=wrap;html=1;fontStyle=1" parent="1" vertex="1">
          <mxGeometry x="4600" y="5615" width="200" height="40" as="geometry" />
        </mxCell>
        <mxCell id="2msqa14-VvynCu-mgGiv-422" style="edgeStyle=orthogonalEdgeStyle;rounded=0;orthogonalLoop=1;jettySize=auto;html=1;exitX=0;exitY=0;exitDx=110;exitDy=0;exitPerimeter=0;entryX=0.5;entryY=1;entryDx=0;entryDy=0;" parent="1" source="2msqa14-VvynCu-mgGiv-283" target="2msqa14-VvynCu-mgGiv-365" edge="1">
          <mxGeometry relative="1" as="geometry" />
        </mxCell>
        <mxCell id="2msqa14-VvynCu-mgGiv-283" value="" style="shape=cube;whiteSpace=wrap;html=1;boundedLbl=1;backgroundOutline=1;darkOpacity=0.05;darkOpacity2=0.1;fontStyle=1;fillColor=#fff2cc;strokeColor=#d6b656;" parent="1" vertex="1">
          <mxGeometry x="4845" y="5595" width="240" height="110" as="geometry" />
        </mxCell>
        <mxCell id="2msqa14-VvynCu-mgGiv-284" value="&lt;span&gt;&lt;font style=&quot;font-size: 30px;&quot;&gt;UDP DATAGRAM 4&lt;br&gt;&lt;/font&gt;&lt;/span&gt;" style="text;whiteSpace=wrap;html=1;fontStyle=1" parent="1" vertex="1">
          <mxGeometry x="4875" y="5615" width="240" height="40" as="geometry" />
        </mxCell>
        <mxCell id="2msqa14-VvynCu-mgGiv-351" value="" style="rounded=1;whiteSpace=wrap;html=1;fillColor=#fff2cc;strokeColor=#d6b656;" parent="1" vertex="1">
          <mxGeometry x="4600" y="4030" width="740" height="1040" as="geometry" />
        </mxCell>
        <mxCell id="2msqa14-VvynCu-mgGiv-352" value="" style="rounded=1;whiteSpace=wrap;html=1;fillColor=#dae8fc;strokeColor=#6c8ebf;" parent="1" vertex="1">
          <mxGeometry x="4645" y="4260" width="635" height="770" as="geometry" />
        </mxCell>
        <mxCell id="2msqa14-VvynCu-mgGiv-353" value="" style="rounded=0;whiteSpace=wrap;html=1;fillColor=#f8cecc;strokeColor=#b85450;" parent="1" vertex="1">
          <mxGeometry x="4705" y="4520" width="525" height="460" as="geometry" />
        </mxCell>
        <mxCell id="2msqa14-VvynCu-mgGiv-354" value="" style="rounded=1;whiteSpace=wrap;html=1;fontStyle=1" parent="1" vertex="1">
          <mxGeometry x="4730" y="4673" width="460" height="265" as="geometry" />
        </mxCell>
        <mxCell id="2msqa14-VvynCu-mgGiv-355" value="&lt;div style=&quot;font-size: 20px;&quot;&gt;&lt;font style=&quot;font-size: 20px;&quot;&gt;REQUEST 1 &lt;br&gt;&lt;/font&gt;&lt;/div&gt;&lt;div style=&quot;font-size: 20px;&quot;&gt;&lt;font style=&quot;font-size: 20px;&quot;&gt;&lt;br&gt;&lt;/font&gt;&lt;/div&gt;&lt;div style=&quot;font-size: 20px;&quot;&gt;&lt;font style=&quot;font-size: 20px;&quot;&gt;&lt;br&gt;&lt;/font&gt;&lt;/div&gt;&lt;div style=&quot;font-size: 20px;&quot;&gt;&lt;font style=&quot;font-size: 20px;&quot;&gt;&lt;br&gt;&lt;/font&gt;&lt;/div&gt;" style="text;whiteSpace=wrap;html=1;fontStyle=1" parent="1" vertex="1">
          <mxGeometry x="4750" y="4683" width="150" height="40" as="geometry" />
        </mxCell>
        <mxCell id="2msqa14-VvynCu-mgGiv-356" value="&lt;font style=&quot;font-size: 30px;&quot;&gt;HEADERS FRAME&lt;br&gt;&lt;/font&gt;" style="rounded=0;whiteSpace=wrap;html=1;fontStyle=1" parent="1" vertex="1">
          <mxGeometry x="4750" y="4723" width="420" height="75" as="geometry" />
        </mxCell>
        <mxCell id="2msqa14-VvynCu-mgGiv-357" value="&lt;font style=&quot;font-size: 30px;&quot;&gt;DATA FRAME&lt;br&gt;&lt;/font&gt;" style="rounded=0;whiteSpace=wrap;html=1;fontStyle=1" parent="1" vertex="1">
          <mxGeometry x="4750" y="4818" width="420" height="75" as="geometry" />
        </mxCell>
        <mxCell id="2msqa14-VvynCu-mgGiv-358" value="&lt;font style=&quot;font-size: 35px;&quot;&gt;UDP DATAGRAM 1&lt;br&gt;&lt;/font&gt;" style="text;whiteSpace=wrap;html=1;fontStyle=1" parent="1" vertex="1">
          <mxGeometry x="3800" y="3904" width="410" height="40" as="geometry" />
        </mxCell>
        <mxCell id="2msqa14-VvynCu-mgGiv-359" value="&lt;font style=&quot;font-size: 35px;&quot;&gt;UDP DATAGRAM 2&lt;br&gt;&lt;/font&gt;" style="text;whiteSpace=wrap;html=1;fontStyle=1" parent="1" vertex="1">
          <mxGeometry x="4610" y="3909" width="430" height="40" as="geometry" />
        </mxCell>
        <mxCell id="2msqa14-VvynCu-mgGiv-360" value="&lt;font style=&quot;font-size: 60px;&quot;&gt;&lt;b&gt;STREAM &lt;br&gt;&lt;/b&gt;&lt;/font&gt;" style="text;whiteSpace=wrap;html=1;" parent="1" vertex="1">
          <mxGeometry x="4720" y="4520" width="480" height="60" as="geometry" />
        </mxCell>
        <mxCell id="2msqa14-VvynCu-mgGiv-361" value="&lt;font style=&quot;font-size: 40px;&quot;&gt;&lt;b&gt;Stream Id 3&lt;br&gt;&lt;/b&gt;&lt;/font&gt;" style="text;whiteSpace=wrap;html=1;" parent="1" vertex="1">
          <mxGeometry x="4730" y="4593" width="345" height="80" as="geometry" />
        </mxCell>
        <mxCell id="2msqa14-VvynCu-mgGiv-362" value="&lt;font style=&quot;font-size: 60px;&quot;&gt;&lt;b&gt;QUIC HEADERS &lt;br&gt;&lt;/b&gt;&lt;/font&gt;" style="text;whiteSpace=wrap;html=1;" parent="1" vertex="1">
          <mxGeometry x="4702.5" y="4300" width="520" height="100" as="geometry" />
        </mxCell>
        <mxCell id="2msqa14-VvynCu-mgGiv-363" value="" style="line;strokeWidth=4;html=1;perimeter=backbonePerimeter;points=[];outlineConnect=0;" parent="1" vertex="1">
          <mxGeometry x="4645" y="4410" width="635" height="10" as="geometry" />
        </mxCell>
        <mxCell id="2msqa14-VvynCu-mgGiv-364" value="&lt;font style=&quot;font-size: 60px;&quot;&gt;&lt;b&gt;QUIC PAYLOAD&lt;br&gt;&lt;/b&gt;&lt;/font&gt;" style="text;whiteSpace=wrap;html=1;" parent="1" vertex="1">
          <mxGeometry x="4702.5" y="4420" width="490" height="100" as="geometry" />
        </mxCell>
        <mxCell id="2msqa14-VvynCu-mgGiv-365" value="" style="rounded=1;whiteSpace=wrap;html=1;fillColor=#fff2cc;strokeColor=#d6b656;" parent="1" vertex="1">
          <mxGeometry x="5410" y="4013" width="740" height="1040" as="geometry" />
        </mxCell>
        <mxCell id="2msqa14-VvynCu-mgGiv-366" value="&lt;font style=&quot;font-size: 60px;&quot;&gt;&lt;b&gt;UDP HEADERS&lt;br&gt;&lt;/b&gt;&lt;/font&gt;" style="text;whiteSpace=wrap;html=1;" parent="1" vertex="1">
          <mxGeometry x="4665" y="4047.5" width="490" height="100" as="geometry" />
        </mxCell>
        <mxCell id="2msqa14-VvynCu-mgGiv-367" value="" style="line;strokeWidth=4;html=1;perimeter=backbonePerimeter;points=[];outlineConnect=0;" parent="1" vertex="1">
          <mxGeometry x="4600" y="4142.5" width="740" height="10" as="geometry" />
        </mxCell>
        <mxCell id="2msqa14-VvynCu-mgGiv-368" value="&lt;font style=&quot;font-size: 60px;&quot;&gt;&lt;b&gt;UDP PAYLOAD&lt;br&gt;&lt;/b&gt;&lt;/font&gt;" style="text;whiteSpace=wrap;html=1;" parent="1" vertex="1">
          <mxGeometry x="4665" y="4155" width="490" height="100" as="geometry" />
        </mxCell>
        <mxCell id="2msqa14-VvynCu-mgGiv-369" value="" style="rounded=1;whiteSpace=wrap;html=1;fillColor=#dae8fc;strokeColor=#6c8ebf;" parent="1" vertex="1">
          <mxGeometry x="5455" y="4243" width="635" height="770" as="geometry" />
        </mxCell>
        <mxCell id="2msqa14-VvynCu-mgGiv-370" value="" style="rounded=0;whiteSpace=wrap;html=1;fillColor=#f8cecc;strokeColor=#b85450;" parent="1" vertex="1">
          <mxGeometry x="5515" y="4503" width="525" height="460" as="geometry" />
        </mxCell>
        <mxCell id="2msqa14-VvynCu-mgGiv-371" value="" style="rounded=1;whiteSpace=wrap;html=1;fontStyle=1" parent="1" vertex="1">
          <mxGeometry x="5540" y="4656" width="460" height="265" as="geometry" />
        </mxCell>
        <mxCell id="2msqa14-VvynCu-mgGiv-372" value="&lt;div style=&quot;font-size: 20px;&quot;&gt;&lt;font style=&quot;font-size: 20px;&quot;&gt;REQUEST 2&lt;br&gt;&lt;/font&gt;&lt;/div&gt;" style="text;whiteSpace=wrap;html=1;fontStyle=1" parent="1" vertex="1">
          <mxGeometry x="5560" y="4666" width="150" height="40" as="geometry" />
        </mxCell>
        <mxCell id="2msqa14-VvynCu-mgGiv-373" value="&lt;font style=&quot;font-size: 30px;&quot;&gt;HEADERS FRAME&lt;br&gt;&lt;/font&gt;" style="rounded=0;whiteSpace=wrap;html=1;fontStyle=1" parent="1" vertex="1">
          <mxGeometry x="5560" y="4706" width="420" height="75" as="geometry" />
        </mxCell>
        <mxCell id="2msqa14-VvynCu-mgGiv-374" value="&lt;font style=&quot;font-size: 30px;&quot;&gt;DATA FRAME&lt;br&gt;&lt;/font&gt;" style="rounded=0;whiteSpace=wrap;html=1;fontStyle=1" parent="1" vertex="1">
          <mxGeometry x="5560" y="4801" width="420" height="75" as="geometry" />
        </mxCell>
        <mxCell id="2msqa14-VvynCu-mgGiv-375" value="&lt;font style=&quot;font-size: 60px;&quot;&gt;&lt;b&gt;STREAM &lt;br&gt;&lt;/b&gt;&lt;/font&gt;" style="text;whiteSpace=wrap;html=1;" parent="1" vertex="1">
          <mxGeometry x="5530" y="4503" width="480" height="60" as="geometry" />
        </mxCell>
        <mxCell id="2msqa14-VvynCu-mgGiv-376" value="&lt;font style=&quot;font-size: 40px;&quot;&gt;&lt;b&gt;Stream Id 5&lt;br&gt;&lt;/b&gt;&lt;/font&gt;" style="text;whiteSpace=wrap;html=1;" parent="1" vertex="1">
          <mxGeometry x="5540" y="4576" width="345" height="80" as="geometry" />
        </mxCell>
        <mxCell id="2msqa14-VvynCu-mgGiv-377" value="&lt;font style=&quot;font-size: 60px;&quot;&gt;&lt;b&gt;QUIC HEADERS &lt;br&gt;&lt;/b&gt;&lt;/font&gt;" style="text;whiteSpace=wrap;html=1;" parent="1" vertex="1">
          <mxGeometry x="5512.5" y="4283" width="520" height="100" as="geometry" />
        </mxCell>
        <mxCell id="2msqa14-VvynCu-mgGiv-378" value="" style="line;strokeWidth=4;html=1;perimeter=backbonePerimeter;points=[];outlineConnect=0;" parent="1" vertex="1">
          <mxGeometry x="5455" y="4393" width="635" height="10" as="geometry" />
        </mxCell>
        <mxCell id="2msqa14-VvynCu-mgGiv-379" value="&lt;font style=&quot;font-size: 60px;&quot;&gt;&lt;b&gt;QUIC PAYLOAD&lt;br&gt;&lt;/b&gt;&lt;/font&gt;" style="text;whiteSpace=wrap;html=1;" parent="1" vertex="1">
          <mxGeometry x="5512.5" y="4403" width="490" height="100" as="geometry" />
        </mxCell>
        <mxCell id="2msqa14-VvynCu-mgGiv-380" value="&lt;font style=&quot;font-size: 60px;&quot;&gt;&lt;b&gt;UDP HEADERS&lt;br&gt;&lt;/b&gt;&lt;/font&gt;" style="text;whiteSpace=wrap;html=1;" parent="1" vertex="1">
          <mxGeometry x="5475" y="4030.5" width="490" height="100" as="geometry" />
        </mxCell>
        <mxCell id="2msqa14-VvynCu-mgGiv-381" value="" style="line;strokeWidth=4;html=1;perimeter=backbonePerimeter;points=[];outlineConnect=0;" parent="1" vertex="1">
          <mxGeometry x="5410" y="4125.5" width="740" height="10" as="geometry" />
        </mxCell>
        <mxCell id="2msqa14-VvynCu-mgGiv-382" value="&lt;font style=&quot;font-size: 60px;&quot;&gt;&lt;b&gt;UDP PAYLOAD&lt;br&gt;&lt;/b&gt;&lt;/font&gt;" style="text;whiteSpace=wrap;html=1;" parent="1" vertex="1">
          <mxGeometry x="5475" y="4138" width="490" height="100" as="geometry" />
        </mxCell>
        <mxCell id="2msqa14-VvynCu-mgGiv-383" value="" style="rounded=1;whiteSpace=wrap;html=1;fillColor=#fff2cc;strokeColor=#d6b656;" parent="1" vertex="1">
          <mxGeometry x="3790" y="4016" width="740" height="1040" as="geometry" />
        </mxCell>
        <mxCell id="2msqa14-VvynCu-mgGiv-384" value="" style="rounded=1;whiteSpace=wrap;html=1;fillColor=#dae8fc;strokeColor=#6c8ebf;" parent="1" vertex="1">
          <mxGeometry x="3835" y="4246" width="635" height="770" as="geometry" />
        </mxCell>
        <mxCell id="2msqa14-VvynCu-mgGiv-385" value="" style="rounded=0;whiteSpace=wrap;html=1;fillColor=#f8cecc;strokeColor=#b85450;" parent="1" vertex="1">
          <mxGeometry x="3895" y="4506" width="525" height="460" as="geometry" />
        </mxCell>
        <mxCell id="2msqa14-VvynCu-mgGiv-386" value="" style="rounded=1;whiteSpace=wrap;html=1;fontStyle=1" parent="1" vertex="1">
          <mxGeometry x="3920" y="4659" width="460" height="265" as="geometry" />
        </mxCell>
        <mxCell id="2msqa14-VvynCu-mgGiv-387" value="&lt;font style=&quot;font-size: 24px;&quot;&gt;QPACK STREAMS&lt;/font&gt;" style="text;whiteSpace=wrap;html=1;fontStyle=1" parent="1" vertex="1">
          <mxGeometry x="3940" y="4669" width="230" height="40" as="geometry" />
        </mxCell>
        <mxCell id="2msqa14-VvynCu-mgGiv-418" style="edgeStyle=orthogonalEdgeStyle;rounded=0;orthogonalLoop=1;jettySize=auto;html=1;exitX=1;exitY=0.5;exitDx=0;exitDy=0;entryX=0.25;entryY=1;entryDx=0;entryDy=0;fillColor=#d80073;strokeColor=#A50040;strokeWidth=6;" parent="1" source="2msqa14-VvynCu-mgGiv-388" target="2msqa14-VvynCu-mgGiv-229" edge="1">
          <mxGeometry relative="1" as="geometry">
            <Array as="points">
              <mxPoint x="4560" y="4747" />
              <mxPoint x="4560" y="5230" />
              <mxPoint x="25" y="5230" />
            </Array>
          </mxGeometry>
        </mxCell>
        <mxCell id="2msqa14-VvynCu-mgGiv-388" value="&lt;font style=&quot;font-size: 30px;&quot;&gt;ENCODER STREAM CREATION&lt;br&gt;&lt;/font&gt;" style="rounded=0;whiteSpace=wrap;html=1;fontStyle=1;fillColor=#d80073;fontColor=#ffffff;strokeColor=#A50040;" parent="1" vertex="1">
          <mxGeometry x="3940" y="4709" width="420" height="75" as="geometry" />
        </mxCell>
        <mxCell id="2msqa14-VvynCu-mgGiv-419" style="edgeStyle=orthogonalEdgeStyle;rounded=0;orthogonalLoop=1;jettySize=auto;html=1;exitX=0.75;exitY=1;exitDx=0;exitDy=0;entryX=1;entryY=0.5;entryDx=0;entryDy=0;fillColor=#6a00ff;strokeColor=#3700CC;strokeWidth=6;" parent="1" source="2msqa14-VvynCu-mgGiv-389" target="2msqa14-VvynCu-mgGiv-228" edge="1">
          <mxGeometry relative="1" as="geometry">
            <Array as="points">
              <mxPoint x="4255" y="5130" />
              <mxPoint x="3640" y="5130" />
              <mxPoint x="3640" y="5430" />
              <mxPoint x="540" y="5430" />
              <mxPoint x="540" y="4771" />
            </Array>
          </mxGeometry>
        </mxCell>
        <mxCell id="2msqa14-VvynCu-mgGiv-389" value="&lt;font style=&quot;font-size: 30px;&quot;&gt;DECODER STREAM CREATION&lt;br&gt;&lt;/font&gt;" style="rounded=0;whiteSpace=wrap;html=1;fontStyle=1;fillColor=#6a00ff;fontColor=#ffffff;strokeColor=#3700CC;" parent="1" vertex="1">
          <mxGeometry x="3940" y="4804" width="420" height="75" as="geometry" />
        </mxCell>
        <mxCell id="2msqa14-VvynCu-mgGiv-390" value="&lt;font style=&quot;font-size: 60px;&quot;&gt;&lt;b&gt;STREAM &lt;br&gt;&lt;/b&gt;&lt;/font&gt;" style="text;whiteSpace=wrap;html=1;" parent="1" vertex="1">
          <mxGeometry x="3910" y="4506" width="480" height="60" as="geometry" />
        </mxCell>
        <mxCell id="2msqa14-VvynCu-mgGiv-391" value="&lt;font style=&quot;font-size: 40px;&quot;&gt;&lt;b&gt;Stream Id 1&lt;br&gt;&lt;/b&gt;&lt;/font&gt;" style="text;whiteSpace=wrap;html=1;" parent="1" vertex="1">
          <mxGeometry x="3920" y="4579" width="345" height="80" as="geometry" />
        </mxCell>
        <mxCell id="2msqa14-VvynCu-mgGiv-392" value="&lt;font style=&quot;font-size: 60px;&quot;&gt;&lt;b&gt;QUIC HEADERS &lt;br&gt;&lt;/b&gt;&lt;/font&gt;" style="text;whiteSpace=wrap;html=1;" parent="1" vertex="1">
          <mxGeometry x="3892.5" y="4286" width="520" height="100" as="geometry" />
        </mxCell>
        <mxCell id="2msqa14-VvynCu-mgGiv-393" value="" style="line;strokeWidth=4;html=1;perimeter=backbonePerimeter;points=[];outlineConnect=0;" parent="1" vertex="1">
          <mxGeometry x="3835" y="4396" width="635" height="10" as="geometry" />
        </mxCell>
        <mxCell id="2msqa14-VvynCu-mgGiv-394" value="&lt;font style=&quot;font-size: 60px;&quot;&gt;&lt;b&gt;QUIC PAYLOAD&lt;br&gt;&lt;/b&gt;&lt;/font&gt;" style="text;whiteSpace=wrap;html=1;" parent="1" vertex="1">
          <mxGeometry x="3892.5" y="4406" width="490" height="100" as="geometry" />
        </mxCell>
        <mxCell id="2msqa14-VvynCu-mgGiv-395" value="&lt;font style=&quot;font-size: 60px;&quot;&gt;&lt;b&gt;UDP HEADERS&lt;br&gt;&lt;/b&gt;&lt;/font&gt;" style="text;whiteSpace=wrap;html=1;" parent="1" vertex="1">
          <mxGeometry x="3855" y="4033.5" width="490" height="100" as="geometry" />
        </mxCell>
        <mxCell id="2msqa14-VvynCu-mgGiv-396" value="" style="line;strokeWidth=4;html=1;perimeter=backbonePerimeter;points=[];outlineConnect=0;" parent="1" vertex="1">
          <mxGeometry x="3790" y="4128.5" width="740" height="10" as="geometry" />
        </mxCell>
        <mxCell id="2msqa14-VvynCu-mgGiv-397" value="&lt;font style=&quot;font-size: 60px;&quot;&gt;&lt;b&gt;UDP PAYLOAD&lt;br&gt;&lt;/b&gt;&lt;/font&gt;" style="text;whiteSpace=wrap;html=1;" parent="1" vertex="1">
          <mxGeometry x="3855" y="4141" width="490" height="100" as="geometry" />
        </mxCell>
        <mxCell id="2msqa14-VvynCu-mgGiv-398" value="&lt;font style=&quot;font-size: 35px;&quot;&gt;UDP DATAGRAM 3&lt;br&gt;&lt;/font&gt;" style="text;whiteSpace=wrap;html=1;fontStyle=1" parent="1" vertex="1">
          <mxGeometry x="5410" y="3911" width="370" height="40" as="geometry" />
        </mxCell>
        <mxCell id="2msqa14-VvynCu-mgGiv-399" value="" style="rounded=1;whiteSpace=wrap;html=1;fillColor=#fff2cc;strokeColor=#d6b656;" parent="1" vertex="1">
          <mxGeometry x="6340" y="4026.75" width="740" height="1012.5" as="geometry" />
        </mxCell>
        <mxCell id="2msqa14-VvynCu-mgGiv-400" value="" style="rounded=1;whiteSpace=wrap;html=1;fillColor=#dae8fc;strokeColor=#6c8ebf;" parent="1" vertex="1">
          <mxGeometry x="6385" y="4256.75" width="635" height="732.5" as="geometry" />
        </mxCell>
        <mxCell id="2msqa14-VvynCu-mgGiv-401" value="" style="rounded=0;whiteSpace=wrap;html=1;fillColor=#f8cecc;strokeColor=#b85450;" parent="1" vertex="1">
          <mxGeometry x="6432.5" y="4519.25" width="550" height="390" as="geometry" />
        </mxCell>
        <mxCell id="2msqa14-VvynCu-mgGiv-402" value="" style="rounded=1;whiteSpace=wrap;html=1;fontStyle=1" parent="1" vertex="1">
          <mxGeometry x="6470" y="4669.75" width="460" height="169.5" as="geometry" />
        </mxCell>
        <mxCell id="2msqa14-VvynCu-mgGiv-403" value="&lt;div style=&quot;font-size: 20px;&quot;&gt;QPACK STREAMS&lt;font style=&quot;font-size: 20px;&quot;&gt;&lt;br&gt;&lt;/font&gt;&lt;/div&gt;" style="text;whiteSpace=wrap;html=1;fontStyle=1" parent="1" vertex="1">
          <mxGeometry x="6490" y="4679.75" width="222.5" height="40" as="geometry" />
        </mxCell>
        <mxCell id="2msqa14-VvynCu-mgGiv-404" value="&lt;font style=&quot;font-size: 60px;&quot;&gt;&lt;b&gt;STREAM &lt;br&gt;&lt;/b&gt;&lt;/font&gt;" style="text;whiteSpace=wrap;html=1;" parent="1" vertex="1">
          <mxGeometry x="6460" y="4516.75" width="480" height="60" as="geometry" />
        </mxCell>
        <mxCell id="2msqa14-VvynCu-mgGiv-405" value="&lt;font style=&quot;font-size: 40px;&quot;&gt;&lt;b&gt;Stream Id 3&lt;br&gt;&lt;/b&gt;&lt;/font&gt;" style="text;whiteSpace=wrap;html=1;" parent="1" vertex="1">
          <mxGeometry x="6470" y="4589.75" width="345" height="80" as="geometry" />
        </mxCell>
        <mxCell id="2msqa14-VvynCu-mgGiv-406" value="&lt;font style=&quot;font-size: 60px;&quot;&gt;&lt;b&gt;QUIC HEADERS &lt;br&gt;&lt;/b&gt;&lt;/font&gt;" style="text;whiteSpace=wrap;html=1;" parent="1" vertex="1">
          <mxGeometry x="6442.5" y="4296.75" width="520" height="100" as="geometry" />
        </mxCell>
        <mxCell id="2msqa14-VvynCu-mgGiv-407" value="" style="line;strokeWidth=4;html=1;perimeter=backbonePerimeter;points=[];outlineConnect=0;" parent="1" vertex="1">
          <mxGeometry x="6385" y="4406.75" width="635" height="10" as="geometry" />
        </mxCell>
        <mxCell id="2msqa14-VvynCu-mgGiv-408" value="&lt;font style=&quot;font-size: 60px;&quot;&gt;&lt;b&gt;QUIC PAYLOAD&lt;br&gt;&lt;/b&gt;&lt;/font&gt;" style="text;whiteSpace=wrap;html=1;" parent="1" vertex="1">
          <mxGeometry x="6442.5" y="4416.75" width="490" height="100" as="geometry" />
        </mxCell>
        <mxCell id="2msqa14-VvynCu-mgGiv-409" value="&lt;font style=&quot;font-size: 60px;&quot;&gt;&lt;b&gt;UDP HEADERS&lt;br&gt;&lt;/b&gt;&lt;/font&gt;" style="text;whiteSpace=wrap;html=1;" parent="1" vertex="1">
          <mxGeometry x="6405" y="4044.25" width="490" height="100" as="geometry" />
        </mxCell>
        <mxCell id="2msqa14-VvynCu-mgGiv-410" value="" style="line;strokeWidth=4;html=1;perimeter=backbonePerimeter;points=[];outlineConnect=0;" parent="1" vertex="1">
          <mxGeometry x="6340" y="4139.25" width="740" height="10" as="geometry" />
        </mxCell>
        <mxCell id="2msqa14-VvynCu-mgGiv-411" value="&lt;font style=&quot;font-size: 60px;&quot;&gt;&lt;b&gt;UDP PAYLOAD&lt;br&gt;&lt;/b&gt;&lt;/font&gt;" style="text;whiteSpace=wrap;html=1;" parent="1" vertex="1">
          <mxGeometry x="6405" y="4151.75" width="490" height="100" as="geometry" />
        </mxCell>
        <mxCell id="2msqa14-VvynCu-mgGiv-426" style="edgeStyle=orthogonalEdgeStyle;rounded=0;orthogonalLoop=1;jettySize=auto;html=1;exitX=0.5;exitY=1;exitDx=0;exitDy=0;fillColor=#6a00ff;strokeColor=#3700CC;strokeWidth=6;" parent="1" source="2msqa14-VvynCu-mgGiv-412" edge="1">
          <mxGeometry relative="1" as="geometry">
            <mxPoint x="3510" y="5432" as="targetPoint" />
            <Array as="points">
              <mxPoint x="6700" y="5540" />
              <mxPoint x="3511" y="5540" />
              <mxPoint x="3511" y="5432" />
            </Array>
          </mxGeometry>
        </mxCell>
        <mxCell id="2msqa14-VvynCu-mgGiv-412" value="&lt;div&gt;&lt;font style=&quot;font-size: 30px;&quot;&gt;DECODER STREAM INST.&lt;/font&gt;&lt;/div&gt;&lt;div&gt;&lt;font style=&quot;font-size: 30px;&quot;&gt;Stream Cancellation - 3 &lt;br&gt;&lt;/font&gt;&lt;/div&gt;" style="rounded=0;whiteSpace=wrap;html=1;fontStyle=1;fillColor=#6a00ff;fontColor=#ffffff;strokeColor=#3700CC;" parent="1" vertex="1">
          <mxGeometry x="6490" y="4719.75" width="420" height="75" as="geometry" />
        </mxCell>
        <mxCell id="2msqa14-VvynCu-mgGiv-414" style="edgeStyle=orthogonalEdgeStyle;rounded=0;orthogonalLoop=1;jettySize=auto;html=1;exitX=0;exitY=0.5;exitDx=0;exitDy=0;curved=0;strokeWidth=6;fillColor=#d80073;strokeColor=#A50040;" parent="1" source="2msqa14-VvynCu-mgGiv-228" target="2msqa14-VvynCu-mgGiv-389" edge="1">
          <mxGeometry relative="1" as="geometry">
            <Array as="points">
              <mxPoint x="-330" y="4771" />
              <mxPoint x="-330" y="5290" />
              <mxPoint x="4150" y="5290" />
            </Array>
          </mxGeometry>
        </mxCell>
        <mxCell id="2msqa14-VvynCu-mgGiv-415" style="edgeStyle=orthogonalEdgeStyle;rounded=0;orthogonalLoop=1;jettySize=auto;html=1;exitX=0.5;exitY=1;exitDx=0;exitDy=0;entryX=0;entryY=0.25;entryDx=0;entryDy=0;strokeWidth=6;fillColor=#6a00ff;strokeColor=#3700CC;" parent="1" source="2msqa14-VvynCu-mgGiv-229" target="2msqa14-VvynCu-mgGiv-388" edge="1">
          <mxGeometry relative="1" as="geometry">
            <Array as="points">
              <mxPoint x="130" y="5170" />
              <mxPoint x="3420" y="5170" />
              <mxPoint x="3420" y="4728" />
            </Array>
          </mxGeometry>
        </mxCell>
        <mxCell id="2msqa14-VvynCu-mgGiv-417" value="&lt;b style=&quot;font-size: 40px;&quot;&gt;&lt;font style=&quot;font-size: 40px;&quot;&gt;UDP DATAGRAM 2 GOT LOST&lt;br&gt;&lt;/font&gt;&lt;/b&gt;" style="text;whiteSpace=wrap;html=1;" parent="1" vertex="1">
          <mxGeometry x="4880" y="5480" width="590" height="70" as="geometry" />
        </mxCell>
        <mxCell id="2msqa14-VvynCu-mgGiv-421" style="edgeStyle=orthogonalEdgeStyle;rounded=0;orthogonalLoop=1;jettySize=auto;html=1;exitX=0;exitY=0;exitDx=126.5;exitDy=0;exitPerimeter=0;entryX=0.536;entryY=1;entryDx=0;entryDy=0;entryPerimeter=0;" parent="1" source="2msqa14-VvynCu-mgGiv-281" target="2msqa14-VvynCu-mgGiv-351" edge="1">
          <mxGeometry relative="1" as="geometry" />
        </mxCell>
        <mxCell id="2msqa14-VvynCu-mgGiv-423" value="&lt;font style=&quot;font-size: 31px;&quot;&gt;&lt;b style=&quot;font-size: 45px;&quot;&gt;&lt;font style=&quot;font-size: 45px;&quot;&gt;WHILE DECODING REQUEST 1 no entry found for index 0 in dynamic table&lt;br&gt;&lt;/font&gt;&lt;/b&gt;&lt;/font&gt;" style="text;whiteSpace=wrap;html=1;" parent="1" vertex="1">
          <mxGeometry x="3935" y="3630" width="560" height="100" as="geometry" />
        </mxCell>
        <mxCell id="2msqa14-VvynCu-mgGiv-424" style="edgeStyle=orthogonalEdgeStyle;rounded=0;orthogonalLoop=1;jettySize=auto;html=1;exitX=0;exitY=0.5;exitDx=0;exitDy=0;entryX=0.409;entryY=1.025;entryDx=0;entryDy=0;entryPerimeter=0;" parent="1" source="2msqa14-VvynCu-mgGiv-154" target="2msqa14-VvynCu-mgGiv-106" edge="1">
          <mxGeometry relative="1" as="geometry" />
        </mxCell>
        <mxCell id="2msqa14-VvynCu-mgGiv-425" value="&lt;div style=&quot;font-size: 46px;&quot; align=&quot;justify&quot;&gt;&lt;font style=&quot;font-size: 46px;&quot;&gt;&lt;b&gt;&lt;font style=&quot;font-size: 46px;&quot;&gt;Before Retransmission, Decoder sends Stream Cancelleation Instruction informing Stream 3 request is not processed&lt;/font&gt;&lt;/b&gt;&lt;br&gt;&lt;/font&gt;&lt;/div&gt;" style="text;whiteSpace=wrap;html=1;" parent="1" vertex="1">
          <mxGeometry x="6385" y="3675" width="585" height="80" as="geometry" />
        </mxCell>
        <mxCell id="2msqa14-VvynCu-mgGiv-428" value="&lt;font style=&quot;font-size: 46px;&quot;&gt;&lt;b style=&quot;&quot;&gt;BOTH REQUEST 1 and REQUEST 2 got stalled&lt;/b&gt;&lt;font style=&quot;font-size: 46px;&quot;&gt;&lt;font style=&quot;font-size: 46px;&quot;&gt;&lt;br&gt;&lt;/font&gt;&lt;/font&gt;&lt;/font&gt;" style="text;whiteSpace=wrap;html=1;" parent="1" vertex="1">
          <mxGeometry x="4690" y="3367.5" width="695" height="80" as="geometry" />
        </mxCell>
        <mxCell id="2msqa14-VvynCu-mgGiv-430" value="&lt;div style=&quot;font-size: 100px;&quot; align=&quot;center&quot;&gt;&lt;font style=&quot;font-size: 100px;&quot;&gt;HTTP/3 QPACK OVERVIEW&lt;br&gt;&lt;/font&gt;&lt;/div&gt;" style="text;whiteSpace=wrap;html=1;" parent="1" vertex="1">
          <mxGeometry x="1730" y="2270" width="560" height="380" as="geometry" />
        </mxCell>
        <mxCell id="2msqa14-VvynCu-mgGiv-431" value="&lt;div align=&quot;center&quot; style=&quot;font-size: 100px;&quot;&gt;&lt;font style=&quot;font-size: 100px;&quot;&gt;HTTP/3 QPACK OVERVIEW&lt;br&gt;&lt;/font&gt;&lt;/div&gt;" style="text;whiteSpace=wrap;html=1;align=center;fontStyle=1" parent="1" vertex="1">
          <mxGeometry x="2650" y="2540" width="1300" height="75" as="geometry" />
        </mxCell>
        <mxCell id="wvwlTENvmum87CmziHwN-1" value="&lt;div style=&quot;font-size: 20px;&quot;&gt;&lt;font style=&quot;font-size: 20px;&quot;&gt;.&lt;/font&gt;&lt;/div&gt;&lt;div style=&quot;font-size: 20px;&quot;&gt;&lt;font style=&quot;font-size: 20px;&quot;&gt;.&lt;/font&gt;&lt;/div&gt;&lt;div style=&quot;font-size: 20px;&quot;&gt;&lt;font style=&quot;font-size: 20px;&quot;&gt;&lt;br&gt;&lt;/font&gt;&lt;/div&gt;" style="rounded=0;whiteSpace=wrap;html=1;strokeWidth=1;fontStyle=1" parent="1" vertex="1">
          <mxGeometry x="5010" y="270" width="370" height="150" as="geometry" />
        </mxCell>
        <mxCell id="wvwlTENvmum87CmziHwN-2" value="&lt;font style=&quot;font-size: 20px;&quot;&gt;1&lt;span style=&quot;white-space: pre;&quot;&gt;&#x9;&lt;/span&gt;&amp;nbsp;&amp;nbsp; :authority&lt;/font&gt;" style="text;html=1;align=center;verticalAlign=middle;resizable=0;points=[];autosize=1;strokeColor=none;fillColor=none;strokeWidth=1;fontStyle=1" parent="1" vertex="1">
          <mxGeometry x="5027" y="270" width="150" height="40" as="geometry" />
        </mxCell>
        <mxCell id="wvwlTENvmum87CmziHwN-3" value="&lt;font style=&quot;font-size: 20px;&quot;&gt;61&lt;span style=&quot;white-space: pre;&quot;&gt;&#x9;&lt;/span&gt;www-authenticate&lt;span style=&quot;white-space: pre;&quot;&gt;&#x9;&lt;/span&gt;&lt;/font&gt;" style="text;html=1;align=center;verticalAlign=middle;resizable=0;points=[];autosize=1;strokeColor=none;fillColor=none;strokeWidth=1;fontStyle=1" parent="1" vertex="1">
          <mxGeometry x="5020" y="375" width="260" height="40" as="geometry" />
        </mxCell>
        <mxCell id="wvwlTENvmum87CmziHwN-4" value="&lt;font style=&quot;font-size: 20px;&quot;&gt;DYNAMIC TABLE&lt;/font&gt;" style="text;html=1;align=center;verticalAlign=middle;resizable=0;points=[];autosize=1;strokeColor=none;fillColor=none;strokeWidth=1;fontStyle=1" parent="1" vertex="1">
          <mxGeometry x="5085" y="435" width="180" height="40" as="geometry" />
        </mxCell>
        <mxCell id="wvwlTENvmum87CmziHwN-5" value="" style="rounded=0;whiteSpace=wrap;html=1;strokeWidth=1;fontStyle=1" parent="1" vertex="1">
          <mxGeometry x="5010" y="480" width="370" height="50" as="geometry" />
        </mxCell>
        <mxCell id="wvwlTENvmum87CmziHwN-6" value="&lt;font style=&quot;font-size: 20px;&quot;&gt;62&lt;span style=&quot;white-space: pre;&quot;&gt;&#x9;&lt;/span&gt;referer&lt;span style=&quot;white-space: pre;&quot;&gt;&#x9;&lt;/span&gt;https://www.zoho.com&lt;/font&gt;" style="text;html=1;align=center;verticalAlign=middle;resizable=0;points=[];autosize=1;strokeColor=none;fillColor=none;strokeWidth=1;fontStyle=1" parent="1" vertex="1">
          <mxGeometry x="5020" y="480" width="350" height="40" as="geometry" />
        </mxCell>
        <mxCell id="wvwlTENvmum87CmziHwN-7" value="&lt;font size=&quot;1&quot;&gt;&lt;b&gt;&lt;font style=&quot;font-size: 20px;&quot;&gt;STATIC TABLE&lt;/font&gt;&lt;/b&gt;&lt;/font&gt;" style="text;whiteSpace=wrap;html=1;" parent="1" vertex="1">
          <mxGeometry x="5090" y="220" width="350" height="70" as="geometry" />
        </mxCell>
        <mxCell id="wvwlTENvmum87CmziHwN-8" value="" style="curved=1;endArrow=classic;html=1;rounded=0;exitX=1;exitY=0.5;exitDx=0;exitDy=0;entryX=0;entryY=0.5;entryDx=0;entryDy=0;" parent="1" source="luZTjx40LB_68a69q-34-1" target="wvwlTENvmum87CmziHwN-5" edge="1">
          <mxGeometry width="50" height="50" relative="1" as="geometry">
            <mxPoint x="4790" y="575" as="sourcePoint" />
            <mxPoint x="4840" y="525" as="targetPoint" />
            <Array as="points">
              <mxPoint x="4790" y="580" />
              <mxPoint x="4800" y="500" />
              <mxPoint x="4890" y="550" />
              <mxPoint x="4950" y="540" />
            </Array>
          </mxGeometry>
        </mxCell>
        <mxCell id="wvwlTENvmum87CmziHwN-11" style="edgeStyle=orthogonalEdgeStyle;rounded=0;orthogonalLoop=1;jettySize=auto;html=1;exitX=0.817;exitY=1.082;exitDx=0;exitDy=0;entryX=1;entryY=0.75;entryDx=0;entryDy=0;exitPerimeter=0;" parent="1" source="wvwlTENvmum87CmziHwN-5" target="luZTjx40LB_68a69q-34-78" edge="1">
          <mxGeometry relative="1" as="geometry">
            <Array as="points">
              <mxPoint x="5312" y="600" />
              <mxPoint x="5390" y="600" />
              <mxPoint x="5390" y="996" />
            </Array>
          </mxGeometry>
        </mxCell>
        <mxCell id="wvwlTENvmum87CmziHwN-12" value="&lt;b&gt;&lt;font style=&quot;font-size: 20px;&quot;&gt;Referenced entry with index 62&lt;br&gt;&lt;/font&gt;&lt;/b&gt;" style="text;whiteSpace=wrap;html=1;" parent="1" vertex="1">
          <mxGeometry x="5420" y="800" width="180" height="50" as="geometry" />
        </mxCell>
        <mxCell id="wvwlTENvmum87CmziHwN-13" value="&lt;font style=&quot;font-size: 40px;&quot;&gt;STATIC TABLE&lt;/font&gt;" style="text;html=1;align=center;verticalAlign=middle;resizable=0;points=[];autosize=1;strokeColor=none;fillColor=none;strokeWidth=1;fontStyle=1" parent="1" vertex="1">
          <mxGeometry x="1955" y="-10" width="290" height="60" as="geometry" />
        </mxCell>
        <mxCell id="wvwlTENvmum87CmziHwN-14" value="&lt;font style=&quot;font-size: 26px;&quot;&gt;62&lt;span style=&quot;white-space: pre;&quot;&gt;&#x9;&lt;/span&gt;referer&lt;span style=&quot;white-space: pre;&quot;&gt;&#x9;&lt;/span&gt;https://www.zoho.com&lt;/font&gt;" style="text;html=1;align=center;verticalAlign=middle;resizable=0;points=[];autosize=1;strokeColor=none;fillColor=none;strokeWidth=1;fontStyle=1" parent="1" vertex="1">
          <mxGeometry x="1895" y="350" width="440" height="40" as="geometry" />
        </mxCell>
        <mxCell id="wvwlTENvmum87CmziHwN-15" value="&lt;b&gt;&lt;font style=&quot;font-size: 30px;&quot;&gt;HTTP REQUEST 1 ADDED THIS ENTRY &lt;font style=&quot;font-size: 30px;&quot;&gt;&lt;br&gt;&lt;/font&gt;&lt;/font&gt;&lt;/b&gt;" style="text;whiteSpace=wrap;html=1;" parent="1" vertex="1">
          <mxGeometry x="1740" y="565" width="560" height="100" as="geometry" />
        </mxCell>
        <mxCell id="wvwlTENvmum87CmziHwN-16" value="" style="rounded=1;whiteSpace=wrap;html=1;fontStyle=1" parent="1" vertex="1">
          <mxGeometry x="5890" y="1485" width="600" height="470" as="geometry" />
        </mxCell>
        <mxCell id="wvwlTENvmum87CmziHwN-17" value="HTTP REQUEST 1" style="whiteSpace=wrap;html=1;aspect=fixed;fontStyle=1" parent="1" vertex="1">
          <mxGeometry x="6030" y="1210" width="80" height="80" as="geometry" />
        </mxCell>
        <mxCell id="wvwlTENvmum87CmziHwN-18" value="HTTP REQUEST 2" style="whiteSpace=wrap;html=1;aspect=fixed;fontStyle=1" parent="1" vertex="1">
          <mxGeometry x="6030" y="1350" width="80" height="80" as="geometry" />
        </mxCell>
        <mxCell id="wvwlTENvmum87CmziHwN-19" value="ENCODER SIDE" style="text;html=1;align=center;verticalAlign=middle;resizable=0;points=[];autosize=1;strokeColor=none;fillColor=none;fontSize=27;fontStyle=1" parent="1" vertex="1">
          <mxGeometry x="6100" y="985" width="230" height="50" as="geometry" />
        </mxCell>
        <mxCell id="wvwlTENvmum87CmziHwN-20" value="" style="whiteSpace=wrap;html=1;aspect=fixed;fontStyle=1" parent="1" vertex="1">
          <mxGeometry x="5770" y="1240" width="170" height="170" as="geometry" />
        </mxCell>
        <mxCell id="wvwlTENvmum87CmziHwN-21" value="HEADERS FRAME" style="rounded=1;whiteSpace=wrap;html=1;fontStyle=1" parent="1" vertex="1">
          <mxGeometry x="5780" y="1250" width="150" height="70" as="geometry" />
        </mxCell>
        <mxCell id="wvwlTENvmum87CmziHwN-22" value="DATA FRAME" style="rounded=1;whiteSpace=wrap;html=1;fontStyle=1" parent="1" vertex="1">
          <mxGeometry x="5780" y="1330" width="150" height="70" as="geometry" />
        </mxCell>
        <mxCell id="wvwlTENvmum87CmziHwN-23" value="FRAMING LAYER " style="text;html=1;align=center;verticalAlign=middle;resizable=0;points=[];autosize=1;strokeColor=none;fillColor=none;fontStyle=1" parent="1" vertex="1">
          <mxGeometry x="5795" y="1200" width="120" height="30" as="geometry" />
        </mxCell>
        <mxCell id="wvwlTENvmum87CmziHwN-24" style="edgeStyle=orthogonalEdgeStyle;rounded=0;orthogonalLoop=1;jettySize=auto;html=1;exitX=0;exitY=0.5;exitDx=0;exitDy=0;entryX=1.006;entryY=0.576;entryDx=0;entryDy=0;entryPerimeter=0;fontStyle=1" parent="1" source="wvwlTENvmum87CmziHwN-18" target="wvwlTENvmum87CmziHwN-20" edge="1">
          <mxGeometry relative="1" as="geometry" />
        </mxCell>
        <mxCell id="wvwlTENvmum87CmziHwN-25" style="edgeStyle=orthogonalEdgeStyle;rounded=0;orthogonalLoop=1;jettySize=auto;html=1;exitX=0;exitY=0.5;exitDx=0;exitDy=0;entryX=1.018;entryY=0.447;entryDx=0;entryDy=0;entryPerimeter=0;fontStyle=1" parent="1" source="wvwlTENvmum87CmziHwN-17" target="wvwlTENvmum87CmziHwN-20" edge="1">
          <mxGeometry relative="1" as="geometry" />
        </mxCell>
        <mxCell id="wvwlTENvmum87CmziHwN-26" value="&lt;div style=&quot;font-size: 20px;&quot;&gt;&lt;font style=&quot;font-size: 20px;&quot;&gt;Second Request Headers &lt;br&gt;&lt;/font&gt;&lt;/div&gt;" style="text;html=1;align=center;verticalAlign=middle;resizable=0;points=[];autosize=1;strokeColor=none;fillColor=none;fontStyle=1" parent="1" vertex="1">
          <mxGeometry x="5950" y="1510" width="250" height="40" as="geometry" />
        </mxCell>
        <UserObject label="&lt;font style=&quot;font-size: 13px;&quot;&gt;&lt;span id=&quot;rfc.figure.u.28&quot;&gt;&lt;span style=&quot;font-size: 18px;&quot;&gt;&lt;pre class=&quot;text&quot;&gt;:method: GET&lt;br&gt;:scheme: https&lt;br&gt;:path: /styles&lt;br&gt;:authority: www.zohowebstatic.com&lt;br&gt;referer: https://www.zoho.com&lt;br&gt;&lt;/pre&gt;&lt;/span&gt;&lt;/span&gt;&lt;/font&gt;" link="&lt;span id=&quot;rfc.figure.u.73&quot;&gt;&lt;span&gt;&lt;pre class=&quot;text&quot;&gt;:status: 302&#xa;cache-control: private&#xa;date: Mon, 21 Oct 2013 20:13:21 GMT&#xa;location: https://www.example.com&lt;/pre&gt;&lt;/span&gt;&lt;/span&gt;" id="wvwlTENvmum87CmziHwN-27">
          <mxCell style="text;whiteSpace=wrap;html=1;fontStyle=1" parent="1" vertex="1">
            <mxGeometry x="5970" y="1535" width="270" height="80" as="geometry" />
          </mxCell>
        </UserObject>
        <mxCell id="wvwlTENvmum87CmziHwN-28" value="&lt;font style=&quot;font-size: 20px;&quot;&gt;Encoded Headers&lt;/font&gt;" style="text;html=1;align=center;verticalAlign=middle;resizable=0;points=[];autosize=1;strokeColor=none;fillColor=none;fontStyle=1" parent="1" vertex="1">
          <mxGeometry x="5950" y="1675" width="180" height="40" as="geometry" />
        </mxCell>
        <mxCell id="wvwlTENvmum87CmziHwN-29" value="58 109 101 116 104 111 100 58 32 71 69 84 10 58 115 99 104 101 109 101 58 32 104 116 116 112 115 10 58 112 97 116 104 58 32 47 115 116 121 108 101 115 10 58 97 117 116 104 111 114 105 116 121 58 32 119 119 119 46 122 111 104 111 119 101 98 115 116 97 116 105 99 46 99 111 109 62" style="text;whiteSpace=wrap;fontStyle=1;fontSize=17;" parent="1" vertex="1">
          <mxGeometry x="5970" y="1725" width="470" height="135" as="geometry" />
        </mxCell>
        <mxCell id="wvwlTENvmum87CmziHwN-30" value="&lt;font style=&quot;font-size: 20px;&quot;&gt;Rather than sending referer name and value again, this field is referenced with index 62&lt;/font&gt;" style="text;whiteSpace=wrap;html=1;fontStyle=1" parent="1" vertex="1">
          <mxGeometry x="5960" y="1840" width="430" height="40" as="geometry" />
        </mxCell>
        <mxCell id="wvwlTENvmum87CmziHwN-31" value="&lt;font style=&quot;font-size: 25px;&quot;&gt;REQUEST 2&lt;/font&gt;" style="text;whiteSpace=wrap;html=1;fontStyle=1" parent="1" vertex="1">
          <mxGeometry x="5950" y="1895" width="150" height="50" as="geometry" />
        </mxCell>
        <mxCell id="wvwlTENvmum87CmziHwN-32" value="&lt;font style=&quot;font-size: 17px;&quot;&gt;During encoding request1 headers, referer name and value added in dynamic table&lt;/font&gt;" style="text;whiteSpace=wrap;html=1;rotation=15;fontStyle=1" parent="1" vertex="1">
          <mxGeometry x="6160.33" y="1249.82" width="240.35" height="40" as="geometry" />
        </mxCell>
        <mxCell id="wvwlTENvmum87CmziHwN-33" value="&lt;div style=&quot;font-size: 20px;&quot;&gt;&lt;font style=&quot;font-size: 20px;&quot;&gt;.&lt;/font&gt;&lt;/div&gt;&lt;div style=&quot;font-size: 20px;&quot;&gt;&lt;font style=&quot;font-size: 20px;&quot;&gt;.&lt;/font&gt;&lt;/div&gt;&lt;div style=&quot;font-size: 20px;&quot;&gt;&lt;font style=&quot;font-size: 20px;&quot;&gt;&lt;br&gt;&lt;/font&gt;&lt;/div&gt;" style="rounded=0;whiteSpace=wrap;html=1;strokeWidth=1;fontStyle=1" parent="1" vertex="1">
          <mxGeometry x="6430" y="1115" width="370" height="150" as="geometry" />
        </mxCell>
        <mxCell id="wvwlTENvmum87CmziHwN-34" value="&lt;font style=&quot;font-size: 20px;&quot;&gt;1&lt;span style=&quot;white-space: pre;&quot;&gt;&#x9;&lt;/span&gt;&amp;nbsp;&amp;nbsp;&amp;nbsp; :authority&lt;/font&gt;" style="text;html=1;align=center;verticalAlign=middle;resizable=0;points=[];autosize=1;strokeColor=none;fillColor=none;strokeWidth=1;fontStyle=1" parent="1" vertex="1">
          <mxGeometry x="6446" y="1110" width="150" height="40" as="geometry" />
        </mxCell>
        <mxCell id="wvwlTENvmum87CmziHwN-35" value="&lt;font style=&quot;font-size: 20px;&quot;&gt;61&lt;span style=&quot;white-space: pre;&quot;&gt;&#x9;&lt;/span&gt;www-authenticate&lt;span style=&quot;white-space: pre;&quot;&gt;&#x9;&lt;/span&gt;&lt;/font&gt;" style="text;html=1;align=center;verticalAlign=middle;resizable=0;points=[];autosize=1;strokeColor=none;fillColor=none;strokeWidth=1;fontStyle=1" parent="1" vertex="1">
          <mxGeometry x="6440" y="1220" width="260" height="40" as="geometry" />
        </mxCell>
        <mxCell id="wvwlTENvmum87CmziHwN-36" value="&lt;font style=&quot;font-size: 20px;&quot;&gt;DYNAMIC TABLE&lt;/font&gt;" style="text;html=1;align=center;verticalAlign=middle;resizable=0;points=[];autosize=1;strokeColor=none;fillColor=none;strokeWidth=1;fontStyle=1" parent="1" vertex="1">
          <mxGeometry x="6505" y="1280" width="180" height="40" as="geometry" />
        </mxCell>
        <mxCell id="wvwlTENvmum87CmziHwN-37" value="" style="rounded=0;whiteSpace=wrap;html=1;strokeWidth=1;fontStyle=1" parent="1" vertex="1">
          <mxGeometry x="6430" y="1325" width="370" height="50" as="geometry" />
        </mxCell>
        <mxCell id="wvwlTENvmum87CmziHwN-38" value="&lt;font style=&quot;font-size: 20px;&quot;&gt;62&lt;span style=&quot;white-space: pre;&quot;&gt;&#x9;&lt;/span&gt;referer&lt;span style=&quot;white-space: pre;&quot;&gt;&#x9;&lt;/span&gt;https://www.zoho.com&lt;/font&gt;" style="text;html=1;align=center;verticalAlign=middle;resizable=0;points=[];autosize=1;strokeColor=none;fillColor=none;strokeWidth=1;fontStyle=1" parent="1" vertex="1">
          <mxGeometry x="6440" y="1325" width="350" height="40" as="geometry" />
        </mxCell>
        <mxCell id="wvwlTENvmum87CmziHwN-39" value="&lt;font size=&quot;1&quot;&gt;&lt;b&gt;&lt;font style=&quot;font-size: 20px;&quot;&gt;STATIC TABLE&lt;/font&gt;&lt;/b&gt;&lt;/font&gt;" style="text;whiteSpace=wrap;html=1;" parent="1" vertex="1">
          <mxGeometry x="6510" y="1065" width="350" height="70" as="geometry" />
        </mxCell>
        <mxCell id="wvwlTENvmum87CmziHwN-40" value="" style="curved=1;endArrow=classic;html=1;rounded=0;exitX=1;exitY=0.5;exitDx=0;exitDy=0;entryX=0;entryY=0.5;entryDx=0;entryDy=0;" parent="1" source="wvwlTENvmum87CmziHwN-17" target="wvwlTENvmum87CmziHwN-37" edge="1">
          <mxGeometry width="50" height="50" relative="1" as="geometry">
            <mxPoint x="6210" y="1420" as="sourcePoint" />
            <mxPoint x="6260" y="1370" as="targetPoint" />
            <Array as="points">
              <mxPoint x="6210" y="1425" />
              <mxPoint x="6220" y="1345" />
              <mxPoint x="6310" y="1395" />
              <mxPoint x="6370" y="1385" />
            </Array>
          </mxGeometry>
        </mxCell>
        <mxCell id="wvwlTENvmum87CmziHwN-41" style="edgeStyle=orthogonalEdgeStyle;rounded=0;orthogonalLoop=1;jettySize=auto;html=1;exitX=0.817;exitY=1.082;exitDx=0;exitDy=0;entryX=1;entryY=0.75;entryDx=0;entryDy=0;exitPerimeter=0;" parent="1" source="wvwlTENvmum87CmziHwN-37" target="wvwlTENvmum87CmziHwN-29" edge="1">
          <mxGeometry relative="1" as="geometry" />
        </mxCell>
        <mxCell id="wvwlTENvmum87CmziHwN-42" value="&lt;b&gt;&lt;font style=&quot;font-size: 20px;&quot;&gt;Referenced entry with index 62&lt;br&gt;&lt;/font&gt;&lt;/b&gt;" style="text;whiteSpace=wrap;html=1;" parent="1" vertex="1">
          <mxGeometry x="6535" y="1645" width="180" height="50" as="geometry" />
        </mxCell>
        <mxCell id="wvwlTENvmum87CmziHwN-50" style="edgeStyle=orthogonalEdgeStyle;rounded=0;orthogonalLoop=1;jettySize=auto;html=1;exitX=0.75;exitY=0;exitDx=0;exitDy=0;" parent="1" source="wvwlTENvmum87CmziHwN-43" edge="1">
          <mxGeometry relative="1" as="geometry">
            <mxPoint x="4880" y="540" as="targetPoint" />
          </mxGeometry>
        </mxCell>
        <mxCell id="wvwlTENvmum87CmziHwN-43" value="" style="rounded=1;whiteSpace=wrap;html=1;fontStyle=1" parent="1" vertex="1">
          <mxGeometry x="4400" y="1640" width="600" height="485" as="geometry" />
        </mxCell>
        <mxCell id="wvwlTENvmum87CmziHwN-44" value="&lt;div style=&quot;font-size: 20px;&quot;&gt;&lt;font style=&quot;font-size: 20px;&quot;&gt;First Request Headers &lt;br&gt;&lt;/font&gt;&lt;/div&gt;" style="text;html=1;align=center;verticalAlign=middle;resizable=0;points=[];autosize=1;strokeColor=none;fillColor=none;fontStyle=1" parent="1" vertex="1">
          <mxGeometry x="4180" y="680" width="220" height="40" as="geometry" />
        </mxCell>
        <UserObject label="&lt;font style=&quot;font-size: 13px;&quot;&gt;&lt;span id=&quot;rfc.figure.u.28&quot;&gt;&lt;span style=&quot;font-size: 18px;&quot;&gt;&lt;pre class=&quot;text&quot;&gt;:method: GET&lt;br&gt;:scheme: https&lt;br&gt;:path: /&lt;br&gt;:authority: www.zohowebstatic.com&lt;br&gt;referer: https://www.zoho.com&lt;br&gt;&lt;/pre&gt;&lt;/span&gt;&lt;/span&gt;&lt;/font&gt;" link="&lt;span id=&quot;rfc.figure.u.73&quot;&gt;&lt;span&gt;&lt;pre class=&quot;text&quot;&gt;:status: 302&#xa;cache-control: private&#xa;date: Mon, 21 Oct 2013 20:13:21 GMT&#xa;location: https://www.example.com&lt;/pre&gt;&lt;/span&gt;&lt;/span&gt;" id="wvwlTENvmum87CmziHwN-45">
          <mxCell style="text;whiteSpace=wrap;html=1;fontStyle=1" parent="1" vertex="1">
            <mxGeometry x="4185" y="705" width="270" height="85" as="geometry" />
          </mxCell>
        </UserObject>
        <mxCell id="wvwlTENvmum87CmziHwN-46" value="&lt;font style=&quot;font-size: 20px;&quot;&gt;Encoded Headers&lt;/font&gt;" style="text;html=1;align=center;verticalAlign=middle;resizable=0;points=[];autosize=1;strokeColor=none;fillColor=none;fontStyle=1" parent="1" vertex="1">
          <mxGeometry x="4165" y="845" width="180" height="40" as="geometry" />
        </mxCell>
        <mxCell id="wvwlTENvmum87CmziHwN-47" value="58 109 101 116 104 111 100 58 32 71 69 84 10 58 115 99 104 101 109 101 58 32 104 116 116 112 115 10 58 112 97 116 104 58 32 47 10 58 97 117 116 104 111 114 105 116 121 58 32 119 119 119 46 122 111 104 111 119 101 98 115 116 97 116 105 99 46 99 111 109 10 114 101 102 101 114 101 114 58 32 104 116 116 112 115 58 47 47 119 119 119 46 122 111 104 111 46 99 111 109" style="text;whiteSpace=wrap;fontStyle=1;fontSize=17;" parent="1" vertex="1">
          <mxGeometry x="4185" y="890" width="455" height="135" as="geometry" />
        </mxCell>
        <mxCell id="wvwlTENvmum87CmziHwN-49" value="&lt;font style=&quot;font-size: 25px;&quot;&gt;REQUEST 1&lt;br&gt;&lt;/font&gt;" style="text;whiteSpace=wrap;html=1;fontStyle=1" parent="1" vertex="1">
          <mxGeometry x="4165" y="1082.5" width="150" height="50" as="geometry" />
        </mxCell>
        <mxCell id="wvwlTENvmum87CmziHwN-52" value="&lt;font style=&quot;font-size: 40px;&quot;&gt;STATIC TABLE&lt;/font&gt;" style="text;html=1;align=center;verticalAlign=middle;resizable=0;points=[];autosize=1;strokeColor=none;fillColor=none;strokeWidth=1;fontStyle=1" parent="1" vertex="1">
          <mxGeometry x="3725" y="2990" width="290" height="60" as="geometry" />
        </mxCell>
        <mxCell id="wvwlTENvmum87CmziHwN-53" value="&lt;div style=&quot;font-size: 20px;&quot;&gt;&lt;font style=&quot;font-size: 20px;&quot;&gt;.&lt;/font&gt;&lt;/div&gt;&lt;div style=&quot;font-size: 20px;&quot;&gt;&lt;font style=&quot;font-size: 20px;&quot;&gt;.&lt;/font&gt;&lt;/div&gt;&lt;div style=&quot;font-size: 20px;&quot;&gt;&lt;font style=&quot;font-size: 20px;&quot;&gt;&lt;br&gt;&lt;/font&gt;&lt;/div&gt;" style="rounded=0;whiteSpace=wrap;html=1;strokeWidth=1;fontStyle=1" parent="1" vertex="1">
          <mxGeometry x="3650" y="3070" width="840" height="240" as="geometry" />
        </mxCell>
        <mxCell id="wvwlTENvmum87CmziHwN-54" value="&lt;font style=&quot;font-size: 46px;&quot;&gt;0&lt;span style=&quot;white-space: pre;&quot;&gt;&#x9;&lt;/span&gt;:authority&lt;/font&gt;" style="text;html=1;align=center;verticalAlign=middle;resizable=0;points=[];autosize=1;strokeColor=none;fillColor=none;strokeWidth=1;fontStyle=1" parent="1" vertex="1">
          <mxGeometry x="3710" y="3102.5" width="270" height="70" as="geometry" />
        </mxCell>
        <mxCell id="wvwlTENvmum87CmziHwN-55" value="&lt;font style=&quot;font-size: 46px;&quot;&gt;98&lt;span style=&quot;white-space: pre;&quot;&gt;&#x9;&lt;/span&gt;frame-options&lt;span style=&quot;white-space: pre;&quot;&gt;&#x9;&lt;/span&gt;sameorigin&lt;/font&gt;" style="text;html=1;align=center;verticalAlign=middle;resizable=0;points=[];autosize=1;strokeColor=none;fillColor=none;strokeWidth=1;fontStyle=1" parent="1" vertex="1">
          <mxGeometry x="3695" y="3220" width="650" height="70" as="geometry" />
        </mxCell>
        <mxCell id="CUMsRrcN4JXkig_kcpdD-1" value="" style="endArrow=classic;html=1;rounded=0;strokeWidth=15;" edge="1" parent="1">
          <mxGeometry width="50" height="50" relative="1" as="geometry">
            <mxPoint x="1721.67" y="7700" as="sourcePoint" />
            <mxPoint x="1660" y="16950" as="targetPoint" />
          </mxGeometry>
        </mxCell>
        <mxCell id="CUMsRrcN4JXkig_kcpdD-2" value="QU&lt;font style=&quot;font-size: 200px;&quot;&gt;HTTP/3 CLIENT&lt;/font&gt;" style="text;html=1;align=center;verticalAlign=middle;resizable=0;points=[];autosize=1;strokeColor=none;fillColor=none;" vertex="1" parent="1">
          <mxGeometry x="970" y="7410" width="1500" height="250" as="geometry" />
        </mxCell>
        <mxCell id="CUMsRrcN4JXkig_kcpdD-3" value="" style="endArrow=classic;html=1;rounded=0;strokeWidth=15;" edge="1" parent="1">
          <mxGeometry width="50" height="50" relative="1" as="geometry">
            <mxPoint x="5981.67" y="7720" as="sourcePoint" />
            <mxPoint x="5940" y="16790" as="targetPoint" />
          </mxGeometry>
        </mxCell>
        <mxCell id="CUMsRrcN4JXkig_kcpdD-4" value="QUIC&lt;font style=&quot;font-size: 200px;&quot;&gt;HTTP/3 SERVER&lt;/font&gt;" style="text;html=1;align=center;verticalAlign=middle;resizable=0;points=[];autosize=1;strokeColor=none;fillColor=none;" vertex="1" parent="1">
          <mxGeometry x="5175" y="7430" width="1610" height="250" as="geometry" />
        </mxCell>
        <mxCell id="CUMsRrcN4JXkig_kcpdD-5" value="" style="endArrow=classic;html=1;rounded=0;strokeWidth=15;" edge="1" parent="1">
          <mxGeometry width="50" height="50" relative="1" as="geometry">
            <mxPoint x="1740" y="7950" as="sourcePoint" />
            <mxPoint x="5950" y="8450" as="targetPoint" />
          </mxGeometry>
        </mxCell>
        <mxCell id="CUMsRrcN4JXkig_kcpdD-6" value="&lt;b&gt;&lt;font style=&quot;font-size: 130px;&quot;&gt;QUIC CLIENT HELLO&lt;br&gt;&lt;/font&gt;&lt;/b&gt;" style="text;whiteSpace=wrap;html=1;rotation=7;" vertex="1" parent="1">
          <mxGeometry x="3297.32" y="7965.56" width="1412" height="140" as="geometry" />
        </mxCell>
        <mxCell id="CUMsRrcN4JXkig_kcpdD-9" value="" style="endArrow=classic;html=1;rounded=0;strokeWidth=15;" edge="1" parent="1">
          <mxGeometry width="50" height="50" relative="1" as="geometry">
            <mxPoint x="5950" y="8480" as="sourcePoint" />
            <mxPoint x="1740" y="9050" as="targetPoint" />
          </mxGeometry>
        </mxCell>
        <mxCell id="CUMsRrcN4JXkig_kcpdD-10" value="&lt;b&gt;&lt;font style=&quot;font-size: 130px;&quot;&gt;QUIC SERVER HELLO AND HANDSHAKE &lt;br&gt;&lt;/font&gt;&lt;/b&gt;" style="text;whiteSpace=wrap;html=1;rotation=352;" vertex="1" parent="1">
          <mxGeometry x="2640" y="8796" width="2830" height="300" as="geometry" />
        </mxCell>
        <mxCell id="CUMsRrcN4JXkig_kcpdD-11" value="" style="endArrow=classic;html=1;rounded=0;strokeWidth=15;" edge="1" parent="1">
          <mxGeometry width="50" height="50" relative="1" as="geometry">
            <mxPoint x="5940" y="8970" as="sourcePoint" />
            <mxPoint x="1730" y="9540" as="targetPoint" />
          </mxGeometry>
        </mxCell>
        <mxCell id="CUMsRrcN4JXkig_kcpdD-12" value="&lt;b&gt;&lt;font style=&quot;font-size: 130px;&quot;&gt;ENCRYPTED EXTENSIONS AND HANDSHAKE FINISHED&lt;br&gt;&lt;/font&gt;&lt;/b&gt;" style="text;whiteSpace=wrap;html=1;rotation=352;" vertex="1" parent="1">
          <mxGeometry x="2240.69" y="9271.25" width="3530" height="300" as="geometry" />
        </mxCell>
        <mxCell id="CUMsRrcN4JXkig_kcpdD-13" value="" style="shape=cylinder3;whiteSpace=wrap;html=1;boundedLbl=1;backgroundOutline=1;size=15;rotation=270;strokeWidth=15;" vertex="1" parent="1">
          <mxGeometry x="3625" y="8035" width="400" height="4110" as="geometry" />
        </mxCell>
        <mxCell id="CUMsRrcN4JXkig_kcpdD-14" value="&lt;div align=&quot;center&quot;&gt;&lt;b&gt;&lt;font style=&quot;font-size: 130px;&quot;&gt;CLIENT INITIATED UNI-DIRECTIONAL QUIC STREAM [ HTTP CONTROL STREAM ] ID = 2&lt;/font&gt;&lt;/b&gt;&lt;br&gt;&lt;/div&gt;" style="text;whiteSpace=wrap;html=1;align=center;" vertex="1" parent="1">
          <mxGeometry x="2230" y="9930" width="3307" height="490" as="geometry" />
        </mxCell>
        <mxCell id="CUMsRrcN4JXkig_kcpdD-15" value="" style="shape=cylinder3;whiteSpace=wrap;html=1;boundedLbl=1;backgroundOutline=1;size=15;rotation=270;strokeWidth=15;fillColor=#FFFF33;" vertex="1" parent="1">
          <mxGeometry x="3617" y="9150" width="400" height="4110" as="geometry" />
        </mxCell>
        <mxCell id="CUMsRrcN4JXkig_kcpdD-16" value="&lt;div align=&quot;center&quot;&gt;&lt;b&gt;&lt;font style=&quot;font-size: 130px;&quot;&gt;CLIENT INITIATED UNI-DIRECTIONAL QUIC STREAM [ HTTP ENCODER STREAM ] ID = 10&lt;br&gt;&lt;/font&gt;&lt;/b&gt;&lt;/div&gt;" style="text;whiteSpace=wrap;html=1;" vertex="1" parent="1">
          <mxGeometry x="2190" y="11040" width="3325" height="470" as="geometry" />
        </mxCell>
        <mxCell id="CUMsRrcN4JXkig_kcpdD-20" value="" style="shape=cylinder3;whiteSpace=wrap;html=1;boundedLbl=1;backgroundOutline=1;size=15;rotation=270;strokeWidth=15;fillColor=#99FF33;" vertex="1" parent="1">
          <mxGeometry x="3627.5" y="10250" width="400" height="4110" as="geometry" />
        </mxCell>
        <mxCell id="CUMsRrcN4JXkig_kcpdD-21" value="&lt;div align=&quot;center&quot;&gt;&lt;b&gt;&lt;font style=&quot;font-size: 130px;&quot;&gt;CLIENT INITIATED UNI-DIRECTIONAL QUIC STREAM [ HTTP DECODER STREAM ] ID = 12&lt;/font&gt;&lt;/b&gt;&lt;/div&gt;" style="text;whiteSpace=wrap;html=1;" vertex="1" parent="1">
          <mxGeometry x="2277.5" y="12150" width="3335" height="530" as="geometry" />
        </mxCell>
        <mxCell id="CUMsRrcN4JXkig_kcpdD-22" value="" style="rounded=1;whiteSpace=wrap;html=1;strokeWidth=15;" vertex="1" parent="1">
          <mxGeometry x="1752" y="13150" width="4120" height="620" as="geometry" />
        </mxCell>
        <mxCell id="CUMsRrcN4JXkig_kcpdD-23" value="&lt;div align=&quot;center&quot;&gt;&lt;b&gt;&lt;font style=&quot;font-size: 130px;&quot;&gt;CLIENT INITIATED BI-DIRECTIONAL QUIC STREAM [ HTTP REQUEST STREAM ] ID = 0&lt;br&gt;&lt;/font&gt;&lt;/b&gt;&lt;/div&gt;" style="text;whiteSpace=wrap;html=1;" vertex="1" parent="1">
          <mxGeometry x="2235" y="13280" width="3240" height="390" as="geometry" />
        </mxCell>
        <mxCell id="CUMsRrcN4JXkig_kcpdD-24" value="" style="shape=cylinder3;whiteSpace=wrap;html=1;boundedLbl=1;backgroundOutline=1;size=15;rotation=270;strokeWidth=15;direction=west;" vertex="1" parent="1">
          <mxGeometry x="3635" y="8620" width="400" height="4110" as="geometry" />
        </mxCell>
        <mxCell id="CUMsRrcN4JXkig_kcpdD-25" value="&lt;div align=&quot;center&quot;&gt;&lt;b&gt;&lt;font style=&quot;font-size: 130px;&quot;&gt;SERVER INITIATED UNI-DIRECTIONAL QUIC STREAM [ HTTP CONTROL STREAM ] ID = 3&lt;br&gt;&lt;/font&gt;&lt;/b&gt;&lt;/div&gt;" style="text;whiteSpace=wrap;html=1;align=center;direction=west;" vertex="1" parent="1">
          <mxGeometry x="2230" y="10510" width="3395.5" height="490" as="geometry" />
        </mxCell>
        <mxCell id="CUMsRrcN4JXkig_kcpdD-30" value="" style="shape=cylinder3;whiteSpace=wrap;html=1;boundedLbl=1;backgroundOutline=1;size=15;rotation=270;strokeWidth=15;fillColor=#FFFF33;direction=west;" vertex="1" parent="1">
          <mxGeometry x="3627.5" y="9690" width="400" height="4110" as="geometry" />
        </mxCell>
        <mxCell id="CUMsRrcN4JXkig_kcpdD-31" value="&lt;div align=&quot;center&quot;&gt;&lt;b&gt;&lt;font style=&quot;font-size: 130px;&quot;&gt;SERVER INITIATED UNI-DIRECTIONAL QUIC STREAM [ HTTP ENCODER STREAM ] ID = 7&lt;br&gt;&lt;/font&gt;&lt;/b&gt;&lt;/div&gt;" style="text;whiteSpace=wrap;html=1;direction=west;" vertex="1" parent="1">
          <mxGeometry x="2207.5" y="11580" width="3372.5" height="470" as="geometry" />
        </mxCell>
        <mxCell id="CUMsRrcN4JXkig_kcpdD-32" value="" style="shape=cylinder3;whiteSpace=wrap;html=1;boundedLbl=1;backgroundOutline=1;size=15;rotation=270;strokeWidth=15;fillColor=#99FF33;direction=west;" vertex="1" parent="1">
          <mxGeometry x="3625" y="10780" width="400" height="4110" as="geometry" />
        </mxCell>
        <mxCell id="CUMsRrcN4JXkig_kcpdD-33" value="&lt;div align=&quot;center&quot;&gt;&lt;b&gt;&lt;font style=&quot;font-size: 130px;&quot;&gt;SERVER INITIATED UNI-DIRECTIONAL QUIC STREAM [ HTTP DECODER STREAM ] ID = 11&lt;/font&gt;&lt;/b&gt;&lt;/div&gt;" style="text;whiteSpace=wrap;html=1;direction=west;" vertex="1" parent="1">
          <mxGeometry x="2255" y="12680" width="3335" height="530" as="geometry" />
        </mxCell>
        <mxCell id="CUMsRrcN4JXkig_kcpdD-34" value="&lt;div style=&quot;font-size: 150px;&quot;&gt;&lt;font style=&quot;font-size: 150px;&quot;&gt;First Request Headers &lt;br&gt;&lt;/font&gt;&lt;/div&gt;" style="text;html=1;align=center;verticalAlign=middle;resizable=0;points=[];autosize=1;strokeColor=none;fillColor=none;fontStyle=1" vertex="1" parent="1">
          <mxGeometry x="-4770" y="9960" width="1520" height="190" as="geometry" />
        </mxCell>
        <UserObject label="&lt;font style=&quot;font-size: 140px;&quot;&gt;&lt;span id=&quot;rfc.figure.u.28&quot;&gt;&lt;pre class=&quot;text&quot;&gt;:method: GET&lt;br&gt;:scheme: https&lt;br&gt;:path: /&lt;br&gt;:authority: www.zohowebstatic.com&lt;br&gt;referer: https://www.zoho.com&lt;br&gt;&lt;/pre&gt;&lt;/span&gt;&lt;/font&gt;" link="&lt;span id=&quot;rfc.figure.u.73&quot;&gt;&lt;span&gt;&lt;pre class=&quot;text&quot;&gt;:status: 302&#xa;cache-control: private&#xa;date: Mon, 21 Oct 2013 20:13:21 GMT&#xa;location: https://www.example.com&lt;/pre&gt;&lt;/span&gt;&lt;/span&gt;" id="CUMsRrcN4JXkig_kcpdD-35">
          <mxCell style="text;whiteSpace=wrap;html=1;fontStyle=1" vertex="1" parent="1">
            <mxGeometry x="-4650" y="10180" width="2870" height="1040" as="geometry" />
          </mxCell>
        </UserObject>
        <mxCell id="CUMsRrcN4JXkig_kcpdD-36" value="&lt;font style=&quot;font-size: 150px;&quot;&gt;Encoded Headers&lt;/font&gt;" style="text;html=1;align=center;verticalAlign=middle;resizable=0;points=[];autosize=1;strokeColor=none;fillColor=none;fontStyle=1" vertex="1" parent="1">
          <mxGeometry x="-4800" y="11300" width="1220" height="190" as="geometry" />
        </mxCell>
        <mxCell id="CUMsRrcN4JXkig_kcpdD-66" style="edgeStyle=orthogonalEdgeStyle;rounded=0;orthogonalLoop=1;jettySize=auto;html=1;entryX=0;entryY=0.5;entryDx=0;entryDy=0;strokeWidth=100;exitX=1.003;exitY=0.369;exitDx=0;exitDy=0;exitPerimeter=0;" edge="1" parent="1" source="CUMsRrcN4JXkig_kcpdD-57" target="CUMsRrcN4JXkig_kcpdD-22">
          <mxGeometry relative="1" as="geometry">
            <mxPoint x="-610" y="12090" as="sourcePoint" />
          </mxGeometry>
        </mxCell>
        <mxCell id="CUMsRrcN4JXkig_kcpdD-46" value="" style="endArrow=classic;html=1;rounded=0;strokeWidth=15;exitX=0.75;exitY=1;exitDx=0;exitDy=0;" edge="1" parent="1" source="CUMsRrcN4JXkig_kcpdD-35">
          <mxGeometry width="50" height="50" relative="1" as="geometry">
            <mxPoint x="280" y="11010" as="sourcePoint" />
            <mxPoint x="1670" y="11220" as="targetPoint" />
            <Array as="points">
              <mxPoint x="-470" y="11410" />
            </Array>
          </mxGeometry>
        </mxCell>
        <mxCell id="CUMsRrcN4JXkig_kcpdD-47" value="&lt;div style=&quot;font-size: 150px;&quot;&gt;&lt;b&gt;&lt;font style=&quot;font-size: 150px;&quot;&gt;SENDS ENCODER INST. INSERT WITH LITERAL NAME&lt;br&gt;&lt;/font&gt;&lt;/b&gt;&lt;/div&gt;" style="text;whiteSpace=wrap;html=1;" vertex="1" parent="1">
          <mxGeometry x="-1100" y="10820" width="2230" height="560" as="geometry" />
        </mxCell>
        <mxCell id="CUMsRrcN4JXkig_kcpdD-53" value="&lt;font style=&quot;font-size: 150px;&quot;&gt;Rather than sending referer name and value again, this field is referenced with index 00, first 00 represents fetch from Dynamic Table&lt;br&gt;&lt;/font&gt;" style="text;whiteSpace=wrap;html=1;fontStyle=1" vertex="1" parent="1">
          <mxGeometry x="-4810" y="15430" width="3940" height="470" as="geometry" />
        </mxCell>
        <mxCell id="CUMsRrcN4JXkig_kcpdD-54" value="&lt;div style=&quot;font-size: 150px;&quot;&gt;&lt;font style=&quot;font-size: 150px;&quot;&gt;Second Request Headers &lt;br&gt;&lt;/font&gt;&lt;/div&gt;" style="text;html=1;align=center;verticalAlign=middle;resizable=0;points=[];autosize=1;strokeColor=none;fillColor=none;fontStyle=1" vertex="1" parent="1">
          <mxGeometry x="-4740" y="13070" width="1740" height="190" as="geometry" />
        </mxCell>
        <UserObject label="&lt;font style=&quot;font-size: 140px;&quot;&gt;&lt;span id=&quot;rfc.figure.u.28&quot;&gt;&lt;pre class=&quot;text&quot;&gt;:method: GET&lt;br&gt;:scheme: https&lt;br&gt;:path: /styles&lt;br&gt;:authority: www.zohowebstatic.com&lt;br&gt;referer: https://www.zoho.com &lt;br&gt;&lt;/pre&gt;&lt;/span&gt;&lt;/font&gt;&lt;div&gt;&lt;br&gt;&lt;/div&gt;&lt;div&gt;&lt;br&gt;&lt;/div&gt;" link="&lt;span id=&quot;rfc.figure.u.73&quot;&gt;&lt;span&gt;&lt;pre class=&quot;text&quot;&gt;:status: 302&#xa;cache-control: private&#xa;date: Mon, 21 Oct 2013 20:13:21 GMT&#xa;location: https://www.example.com&lt;/pre&gt;&lt;/span&gt;&lt;/span&gt;" id="CUMsRrcN4JXkig_kcpdD-55">
          <mxCell style="text;whiteSpace=wrap;html=1;fontStyle=1" vertex="1" parent="1">
            <mxGeometry x="-4650" y="13095" width="2870" height="1040" as="geometry" />
          </mxCell>
        </UserObject>
        <mxCell id="CUMsRrcN4JXkig_kcpdD-56" value="&lt;font style=&quot;font-size: 150px;&quot;&gt;Encoded Headers&lt;/font&gt;" style="text;html=1;align=center;verticalAlign=middle;resizable=0;points=[];autosize=1;strokeColor=none;fillColor=none;fontStyle=1" vertex="1" parent="1">
          <mxGeometry x="-4790" y="14220" width="1220" height="190" as="geometry" />
        </mxCell>
        <mxCell id="CUMsRrcN4JXkig_kcpdD-57" value="&lt;p style=&quot;line-height: 130%;&quot;&gt;&lt;/p&gt;&lt;div align=&quot;justify&quot; style=&quot;font-size: 125px;&quot;&gt;&lt;b&gt;58 109 101 116 104 111 100 58 32 71 69 84 10 58 115 99 104 101 109 101 58 32 104 116 116 112 115 10 58 112 97 116 104 58 32 47 115 116 121 108 101 115 10 58 97 117 116 104 111 114 105 116 121 58 32 119 119 119 46 122 111 104 111 119 101 98 115 116 97 116 105 99 46 99 111 109 00 00&lt;br&gt;&lt;/b&gt;&lt;/div&gt;&lt;p&gt;&lt;/p&gt;" style="text;whiteSpace=wrap;html=1;" vertex="1" parent="1">
          <mxGeometry x="-4610" y="11620" width="3798" height="1100" as="geometry" />
        </mxCell>
        <mxCell id="CUMsRrcN4JXkig_kcpdD-58" value="&lt;font style=&quot;font-size: 150px;&quot;&gt;STATIC TABLE&lt;/font&gt;" style="text;html=1;align=center;verticalAlign=middle;resizable=0;points=[];autosize=1;strokeColor=none;fillColor=none;strokeWidth=1;fontStyle=1" vertex="1" parent="1">
          <mxGeometry x="-1580" y="8610" width="1030" height="190" as="geometry" />
        </mxCell>
        <mxCell id="CUMsRrcN4JXkig_kcpdD-59" value="&lt;div style=&quot;font-size: 20px;&quot;&gt;&lt;font style=&quot;font-size: 20px;&quot;&gt;.&lt;/font&gt;&lt;/div&gt;&lt;div style=&quot;font-size: 20px;&quot;&gt;&lt;font style=&quot;font-size: 20px;&quot;&gt;.&lt;/font&gt;&lt;/div&gt;&lt;div style=&quot;font-size: 20px;&quot;&gt;&lt;font style=&quot;font-size: 20px;&quot;&gt;&lt;br&gt;&lt;/font&gt;&lt;/div&gt;" style="rounded=0;whiteSpace=wrap;html=1;strokeWidth=1;fontStyle=1" vertex="1" parent="1">
          <mxGeometry x="-1590" y="8867.5" width="2230" height="647.5" as="geometry" />
        </mxCell>
        <mxCell id="CUMsRrcN4JXkig_kcpdD-60" value="&lt;font style=&quot;font-size: 140px;&quot;&gt;0&lt;span style=&quot;white-space: pre;&quot;&gt;&#x9;&lt;/span&gt;:authority&lt;/font&gt;" style="text;html=1;align=center;verticalAlign=middle;resizable=0;points=[];autosize=1;strokeColor=none;fillColor=none;strokeWidth=1;fontStyle=1" vertex="1" parent="1">
          <mxGeometry x="-1510" y="8880" width="730" height="180" as="geometry" />
        </mxCell>
        <mxCell id="CUMsRrcN4JXkig_kcpdD-61" value="&lt;font style=&quot;font-size: 140px;&quot;&gt;98&lt;span style=&quot;white-space: pre;&quot;&gt;&#x9;&lt;/span&gt;frame-options&lt;span style=&quot;white-space: pre;&quot;&gt;&#x9;&lt;/span&gt;sameorigin&lt;/font&gt;" style="text;html=1;align=center;verticalAlign=middle;resizable=0;points=[];autosize=1;strokeColor=none;fillColor=none;strokeWidth=1;fontStyle=1" vertex="1" parent="1">
          <mxGeometry x="-1510" y="9290" width="1830" height="180" as="geometry" />
        </mxCell>
        <mxCell id="CUMsRrcN4JXkig_kcpdD-62" value="&lt;font style=&quot;font-size: 150px;&quot;&gt;DYNAMIC TABLE&lt;/font&gt;" style="text;html=1;align=center;verticalAlign=middle;resizable=0;points=[];autosize=1;strokeColor=none;fillColor=none;strokeWidth=1;fontStyle=1" vertex="1" parent="1">
          <mxGeometry x="-1580" y="9580" width="1210" height="190" as="geometry" />
        </mxCell>
        <mxCell id="CUMsRrcN4JXkig_kcpdD-63" value="" style="rounded=0;whiteSpace=wrap;html=1;strokeWidth=1;fontStyle=1" vertex="1" parent="1">
          <mxGeometry x="-1580" y="9860" width="2220" height="280" as="geometry" />
        </mxCell>
        <mxCell id="CUMsRrcN4JXkig_kcpdD-64" value="&lt;font style=&quot;font-size: 140px;&quot;&gt;0&lt;span style=&quot;white-space: pre;&quot;&gt;&#x9;&lt;/span&gt;referer&lt;span style=&quot;white-space: pre;&quot;&gt;&#x9;&lt;/span&gt;https://www.zoho.com&lt;/font&gt;" style="text;html=1;align=center;verticalAlign=middle;resizable=0;points=[];autosize=1;strokeColor=none;fillColor=none;strokeWidth=1;fontStyle=1" vertex="1" parent="1">
          <mxGeometry x="-1490" y="9910" width="1970" height="180" as="geometry" />
        </mxCell>
        <mxCell id="CUMsRrcN4JXkig_kcpdD-67" value="" style="rounded=1;whiteSpace=wrap;html=1;strokeWidth=15;" vertex="1" parent="1">
          <mxGeometry x="1740" y="13850" width="4120" height="620" as="geometry" />
        </mxCell>
        <mxCell id="CUMsRrcN4JXkig_kcpdD-68" value="&lt;div align=&quot;center&quot;&gt;&lt;b&gt;&lt;font style=&quot;font-size: 130px;&quot;&gt;CLIENT INITIATED BI-DIRECTIONAL QUIC STREAM [ HTTP REQUEST STREAM ] ID = 4&lt;br&gt;&lt;/font&gt;&lt;/b&gt;&lt;/div&gt;" style="text;whiteSpace=wrap;html=1;" vertex="1" parent="1">
          <mxGeometry x="2223" y="13980" width="3240" height="390" as="geometry" />
        </mxCell>
      </root>
    </mxGraphModel>
  </diagram>
</mxfile>
